<?xml version="1.0" encoding="utf-8" standalone="no"?>
<!DOCTYPE svg PUBLIC "-//W3C//DTD SVG 1.1//EN"
  "http://www.w3.org/Graphics/SVG/1.1/DTD/svg11.dtd">
<!-- Created with matplotlib (https://matplotlib.org/) -->
<svg height="185.228297pt" version="1.1" viewBox="0 0 222.719434 185.228297" width="222.719434pt" xmlns="http://www.w3.org/2000/svg" xmlns:xlink="http://www.w3.org/1999/xlink">
 <metadata>
  <rdf:RDF xmlns:cc="http://creativecommons.org/ns#" xmlns:dc="http://purl.org/dc/elements/1.1/" xmlns:rdf="http://www.w3.org/1999/02/22-rdf-syntax-ns#">
   <cc:Work>
    <dc:type rdf:resource="http://purl.org/dc/dcmitype/StillImage"/>
    <dc:date>2022-02-03T12:02:13.757367</dc:date>
    <dc:format>image/svg+xml</dc:format>
    <dc:creator>
     <cc:Agent>
      <dc:title>Matplotlib v3.3.4, https://matplotlib.org/</dc:title>
     </cc:Agent>
    </dc:creator>
   </cc:Work>
  </rdf:RDF>
 </metadata>
 <defs>
  <style type="text/css">*{stroke-linecap:butt;stroke-linejoin:round;}</style>
 </defs>
 <g id="figure_1">
  <g id="patch_1">
   <path d="M 0 185.228297 
L 222.719434 185.228297 
L 222.719434 0 
L 0 0 
z
" style="fill:#ffffff;"/>
  </g>
  <g id="axes_1">
   <g id="patch_2">
    <path d="M 31.02528 156.305484 
L 215.16528 156.305484 
L 215.16528 17.705484 
L 31.02528 17.705484 
z
" style="fill:#ffffff;"/>
   </g>
   <g id="matplotlib.axis_1">
    <g id="xtick_1">
     <g id="line2d_1">
      <defs>
       <path d="M 0 0 
L 0 -3 
" id="mde3ffaa803" style="stroke:#000000;stroke-width:0.5;"/>
      </defs>
      <g>
       <use style="stroke:#000000;stroke-width:0.5;" x="90.343106" xlink:href="#mde3ffaa803" y="156.305484"/>
      </g>
     </g>
     <g id="line2d_2">
      <defs>
       <path d="M 0 0 
L 0 3 
" id="m6bbbb6f497" style="stroke:#000000;stroke-width:0.5;"/>
      </defs>
      <g>
       <use style="stroke:#000000;stroke-width:0.5;" x="90.343106" xlink:href="#m6bbbb6f497" y="17.705484"/>
      </g>
     </g>
     <g id="text_1">
      <!-- $\mathdefault{100}$ -->
      <g transform="translate(82.871126 166.560062)scale(0.1 -0.1)">
       <defs>
        <path d="M 29.09375 68 
L 11.09375 59 
L 11.09375 57.59375 
C 12.296875 58.09375 13.40625 58.484375 13.796875 58.6875 
C 15.59375 59.390625 17.296875 59.78125 18.296875 59.78125 
C 20.40625 59.78125 21.296875 58.296875 21.296875 55.078125 
L 21.296875 9.359375 
C 21.296875 6.03125 20.5 3.71875 18.90625 2.796875 
C 17.40625 1.890625 16 1.59375 11.796875 1.5 
L 11.796875 0 
L 39.40625 0 
L 39.40625 1.5 
C 31.5 1.59375 29.90625 2.609375 29.90625 7.453125 
L 29.90625 67.796875 
z
" id="Nimbus_Roman_No9_L_Regular-49"/>
        <path d="M 25.40625 68 
C 19.90625 68 15.703125 66.296875 12 62.796875 
C 6.203125 57.203125 2.40625 45.6875 2.40625 34 
C 2.40625 23.09375 5.703125 11.390625 10.40625 5.796875 
C 14.09375 1.390625 19.203125 -1 25 -1 
C 30.09375 -1 34.40625 0.6875 38 4.1875 
C 43.796875 9.6875 47.59375 21.296875 47.59375 33.390625 
C 47.59375 53.890625 38.5 68 25.40625 68 
z
M 25.09375 65.390625 
C 33.5 65.390625 38 54.09375 38 33.1875 
C 38 12.296875 33.59375 1.59375 25 1.59375 
C 16.40625 1.59375 12 12.296875 12 33.09375 
C 12 54.296875 16.5 65.390625 25.09375 65.390625 
z
" id="Nimbus_Roman_No9_L_Regular-48"/>
       </defs>
       <use transform="scale(0.996264)" xlink:href="#Nimbus_Roman_No9_L_Regular-49"/>
       <use transform="translate(49.8132 0)scale(0.996264)" xlink:href="#Nimbus_Roman_No9_L_Regular-48"/>
       <use transform="translate(99.626401 0)scale(0.996264)" xlink:href="#Nimbus_Roman_No9_L_Regular-48"/>
      </g>
     </g>
    </g>
    <g id="xtick_2">
     <g id="line2d_3">
      <g>
       <use style="stroke:#000000;stroke-width:0.5;" x="150.99528" xlink:href="#mde3ffaa803" y="156.305484"/>
      </g>
     </g>
     <g id="line2d_4">
      <g>
       <use style="stroke:#000000;stroke-width:0.5;" x="150.99528" xlink:href="#m6bbbb6f497" y="17.705484"/>
      </g>
     </g>
     <g id="text_2">
      <!-- $\mathdefault{200}$ -->
      <g transform="translate(143.5233 166.560062)scale(0.1 -0.1)">
       <defs>
        <path d="M 47.5 13.734375 
L 46.203125 14.25 
C 42.5 8.5 41.203125 7.59375 36.703125 7.59375 
L 12.796875 7.59375 
L 29.59375 25.328125 
C 38.5 34.703125 42.40625 42.359375 42.40625 50.21875 
C 42.40625 60.28125 34.296875 68 23.90625 68 
C 18.40625 68 13.203125 65.796875 9.5 61.796875 
C 6.296875 58.375 4.796875 55.15625 3.09375 48 
L 5.203125 47.484375 
C 9.203125 57.359375 12.796875 60.59375 19.703125 60.59375 
C 28.09375 60.59375 33.796875 54.84375 33.796875 46.390625 
C 33.796875 38.53125 29.203125 29.15625 20.796875 20.1875 
L 3 1.1875 
L 3 0 
L 42 0 
z
" id="Nimbus_Roman_No9_L_Regular-50"/>
       </defs>
       <use transform="scale(0.996264)" xlink:href="#Nimbus_Roman_No9_L_Regular-50"/>
       <use transform="translate(49.8132 0)scale(0.996264)" xlink:href="#Nimbus_Roman_No9_L_Regular-48"/>
       <use transform="translate(99.626401 0)scale(0.996264)" xlink:href="#Nimbus_Roman_No9_L_Regular-48"/>
      </g>
     </g>
    </g>
    <g id="xtick_3">
     <g id="line2d_5">
      <g>
       <use style="stroke:#000000;stroke-width:0.5;" x="211.647454" xlink:href="#mde3ffaa803" y="156.305484"/>
      </g>
     </g>
     <g id="line2d_6">
      <g>
       <use style="stroke:#000000;stroke-width:0.5;" x="211.647454" xlink:href="#m6bbbb6f497" y="17.705484"/>
      </g>
     </g>
     <g id="text_3">
      <!-- $\mathdefault{300}$ -->
      <g transform="translate(204.175474 166.560062)scale(0.1 -0.1)">
       <defs>
        <path d="M 15.296875 33.390625 
C 21.203125 33.390625 23.5 33.1875 25.90625 32.296875 
C 32.09375 30.09375 36 24.390625 36 17.5 
C 36 9.09375 30.296875 2.59375 22.90625 2.59375 
C 20.203125 2.59375 18.203125 3.296875 14.5 5.6875 
C 11.5 7.5 9.796875 8.1875 8.09375 8.1875 
C 5.796875 8.1875 4.296875 6.796875 4.296875 4.6875 
C 4.296875 1.1875 8.59375 -1 15.59375 -1 
C 23.296875 -1 31.203125 1.59375 35.90625 5.6875 
C 40.59375 9.796875 43.203125 15.59375 43.203125 22.296875 
C 43.203125 27.390625 41.59375 32.09375 38.703125 35.1875 
C 36.703125 37.390625 34.796875 38.59375 30.40625 40.5 
C 37.296875 45.1875 39.796875 48.890625 39.796875 54.296875 
C 39.796875 62.390625 33.40625 68 24.203125 68 
C 19.203125 68 14.796875 66.296875 11.203125 63.09375 
C 8.203125 60.390625 6.703125 57.796875 4.5 51.796875 
L 6 51.390625 
C 10.09375 58.703125 14.59375 61.984375 20.90625 61.984375 
C 27.40625 61.984375 31.90625 57.59375 31.90625 51.296875 
C 31.90625 47.6875 30.40625 44.09375 27.90625 41.59375 
C 24.90625 38.59375 22.09375 37.09375 15.296875 34.6875 
z
" id="Nimbus_Roman_No9_L_Regular-51"/>
       </defs>
       <use transform="scale(0.996264)" xlink:href="#Nimbus_Roman_No9_L_Regular-51"/>
       <use transform="translate(49.8132 0)scale(0.996264)" xlink:href="#Nimbus_Roman_No9_L_Regular-48"/>
       <use transform="translate(99.626401 0)scale(0.996264)" xlink:href="#Nimbus_Roman_No9_L_Regular-48"/>
      </g>
     </g>
    </g>
    <g id="xtick_4">
     <g id="line2d_7">
      <defs>
       <path d="M 0 0 
L 0 -1.5 
" id="m9ec750c018" style="stroke:#000000;stroke-width:0.5;"/>
      </defs>
      <g>
       <use style="stroke:#000000;stroke-width:0.5;" x="41.821367" xlink:href="#m9ec750c018" y="156.305484"/>
      </g>
     </g>
     <g id="line2d_8">
      <defs>
       <path d="M 0 0 
L 0 1.5 
" id="mf2d1745907" style="stroke:#000000;stroke-width:0.5;"/>
      </defs>
      <g>
       <use style="stroke:#000000;stroke-width:0.5;" x="41.821367" xlink:href="#mf2d1745907" y="17.705484"/>
      </g>
     </g>
    </g>
    <g id="xtick_5">
     <g id="line2d_9">
      <g>
       <use style="stroke:#000000;stroke-width:0.5;" x="53.951802" xlink:href="#m9ec750c018" y="156.305484"/>
      </g>
     </g>
     <g id="line2d_10">
      <g>
       <use style="stroke:#000000;stroke-width:0.5;" x="53.951802" xlink:href="#mf2d1745907" y="17.705484"/>
      </g>
     </g>
    </g>
    <g id="xtick_6">
     <g id="line2d_11">
      <g>
       <use style="stroke:#000000;stroke-width:0.5;" x="66.082237" xlink:href="#m9ec750c018" y="156.305484"/>
      </g>
     </g>
     <g id="line2d_12">
      <g>
       <use style="stroke:#000000;stroke-width:0.5;" x="66.082237" xlink:href="#mf2d1745907" y="17.705484"/>
      </g>
     </g>
    </g>
    <g id="xtick_7">
     <g id="line2d_13">
      <g>
       <use style="stroke:#000000;stroke-width:0.5;" x="78.212672" xlink:href="#m9ec750c018" y="156.305484"/>
      </g>
     </g>
     <g id="line2d_14">
      <g>
       <use style="stroke:#000000;stroke-width:0.5;" x="78.212672" xlink:href="#mf2d1745907" y="17.705484"/>
      </g>
     </g>
    </g>
    <g id="xtick_8">
     <g id="line2d_15">
      <g>
       <use style="stroke:#000000;stroke-width:0.5;" x="102.473541" xlink:href="#m9ec750c018" y="156.305484"/>
      </g>
     </g>
     <g id="line2d_16">
      <g>
       <use style="stroke:#000000;stroke-width:0.5;" x="102.473541" xlink:href="#mf2d1745907" y="17.705484"/>
      </g>
     </g>
    </g>
    <g id="xtick_9">
     <g id="line2d_17">
      <g>
       <use style="stroke:#000000;stroke-width:0.5;" x="114.603976" xlink:href="#m9ec750c018" y="156.305484"/>
      </g>
     </g>
     <g id="line2d_18">
      <g>
       <use style="stroke:#000000;stroke-width:0.5;" x="114.603976" xlink:href="#mf2d1745907" y="17.705484"/>
      </g>
     </g>
    </g>
    <g id="xtick_10">
     <g id="line2d_19">
      <g>
       <use style="stroke:#000000;stroke-width:0.5;" x="126.734411" xlink:href="#m9ec750c018" y="156.305484"/>
      </g>
     </g>
     <g id="line2d_20">
      <g>
       <use style="stroke:#000000;stroke-width:0.5;" x="126.734411" xlink:href="#mf2d1745907" y="17.705484"/>
      </g>
     </g>
    </g>
    <g id="xtick_11">
     <g id="line2d_21">
      <g>
       <use style="stroke:#000000;stroke-width:0.5;" x="138.864845" xlink:href="#m9ec750c018" y="156.305484"/>
      </g>
     </g>
     <g id="line2d_22">
      <g>
       <use style="stroke:#000000;stroke-width:0.5;" x="138.864845" xlink:href="#mf2d1745907" y="17.705484"/>
      </g>
     </g>
    </g>
    <g id="xtick_12">
     <g id="line2d_23">
      <g>
       <use style="stroke:#000000;stroke-width:0.5;" x="163.125715" xlink:href="#m9ec750c018" y="156.305484"/>
      </g>
     </g>
     <g id="line2d_24">
      <g>
       <use style="stroke:#000000;stroke-width:0.5;" x="163.125715" xlink:href="#mf2d1745907" y="17.705484"/>
      </g>
     </g>
    </g>
    <g id="xtick_13">
     <g id="line2d_25">
      <g>
       <use style="stroke:#000000;stroke-width:0.5;" x="175.25615" xlink:href="#m9ec750c018" y="156.305484"/>
      </g>
     </g>
     <g id="line2d_26">
      <g>
       <use style="stroke:#000000;stroke-width:0.5;" x="175.25615" xlink:href="#mf2d1745907" y="17.705484"/>
      </g>
     </g>
    </g>
    <g id="xtick_14">
     <g id="line2d_27">
      <g>
       <use style="stroke:#000000;stroke-width:0.5;" x="187.386585" xlink:href="#m9ec750c018" y="156.305484"/>
      </g>
     </g>
     <g id="line2d_28">
      <g>
       <use style="stroke:#000000;stroke-width:0.5;" x="187.386585" xlink:href="#mf2d1745907" y="17.705484"/>
      </g>
     </g>
    </g>
    <g id="xtick_15">
     <g id="line2d_29">
      <g>
       <use style="stroke:#000000;stroke-width:0.5;" x="199.517019" xlink:href="#m9ec750c018" y="156.305484"/>
      </g>
     </g>
     <g id="line2d_30">
      <g>
       <use style="stroke:#000000;stroke-width:0.5;" x="199.517019" xlink:href="#mf2d1745907" y="17.705484"/>
      </g>
     </g>
    </g>
    <g id="text_4">
     <!-- Timestep \# -->
     <g transform="translate(100.993439 179.471468)scale(0.1 -0.1)">
      <defs>
       <path d="M 25.40625 61.796875 
L 25.40625 11.953125 
C 25.40625 3.484375 24.296875 2.390625 16 1.890625 
L 16 0 
L 45.203125 0 
L 45.203125 1.890625 
C 37 2.296875 35.59375 3.59375 35.59375 10.859375 
L 35.59375 61.796875 
L 41 61.796875 
C 52.40625 61.796875 54.59375 60 56.90625 49.03125 
L 59.296875 49.03125 
L 58.703125 66 
L 2.296875 66 
L 1.703125 49.03125 
L 4.09375 49.03125 
C 6.5 59.90625 8.796875 61.796875 20 61.796875 
z
" id="Nimbus_Roman_No9_L_Regular-84"/>
       <path d="M 17.5 46 
L 2 40.5 
L 2 39 
L 2.796875 39.09375 
C 4 39.296875 5.296875 39.390625 6.203125 39.390625 
C 8.59375 39.390625 9.5 37.796875 9.5 33.390625 
L 9.5 10.1875 
C 9.5 3 8.5 1.890625 1.59375 1.5 
L 1.59375 0 
L 25.296875 0 
L 25.296875 1.5 
C 18.703125 2 17.90625 3 17.90625 10.1875 
L 17.90625 45.6875 
z
M 12.796875 68 
C 10.09375 68 7.796875 65.6875 7.796875 62.890625 
C 7.796875 60.09375 10 57.796875 12.796875 57.796875 
C 15.703125 57.796875 18 59.984375 18 62.890625 
C 18 65.6875 15.703125 68 12.796875 68 
z
" id="Nimbus_Roman_No9_L_Regular-105"/>
       <path d="M 1.90625 39.796875 
C 3.203125 40.09375 4 40.1875 5.09375 40.1875 
C 7.703125 40.1875 8.59375 38.59375 8.59375 33.796875 
L 8.59375 8.5 
C 8.59375 3.09375 7.203125 1.59375 1.59375 1.5 
L 1.59375 0 
L 23.796875 0 
L 23.796875 1.5 
C 18.5 1.6875 17 2.796875 17 6.6875 
L 17 34.890625 
C 17 35.09375 17.796875 36.09375 18.5 36.796875 
C 21 39.09375 25.296875 40.796875 28.796875 40.796875 
C 33.203125 40.796875 35.40625 37.296875 35.40625 30.296875 
L 35.40625 8.59375 
C 35.40625 3 34.296875 1.890625 28.59375 1.5 
L 28.59375 0 
L 51 0 
L 51 1.5 
C 45.296875 1.59375 43.796875 3.296875 43.796875 9.5 
L 43.796875 34.6875 
C 46.796875 39 50.09375 40.796875 54.703125 40.796875 
C 60.40625 40.796875 62.203125 38.09375 62.203125 29.796875 
L 62.203125 8.6875 
C 62.203125 3 61.40625 2.1875 55.59375 1.5 
L 55.59375 0 
L 77.5 0 
L 77.5 1.5 
L 74.90625 1.6875 
C 71.90625 1.890625 70.59375 3.6875 70.59375 7.59375 
L 70.59375 28.1875 
C 70.59375 40 66.703125 46 59 46 
C 53.203125 46 48.09375 43.390625 42.703125 37.59375 
C 40.90625 43.296875 37.5 46 32.09375 46 
C 27.703125 46 24.90625 44.59375 16.59375 38.296875 
L 16.59375 45.796875 
L 15.90625 46 
C 10.796875 44.09375 7.40625 42.984375 1.90625 41.484375 
z
" id="Nimbus_Roman_No9_L_Regular-109"/>
       <path d="M 40.796875 16.4375 
C 36 8.8125 31.703125 5.890625 25.296875 5.890625 
C 19.59375 5.890625 15.296875 8.8125 12.40625 14.53125 
C 10.59375 18.34375 9.90625 21.65625 9.703125 27.796875 
L 40.5 27.796875 
C 39.703125 34.265625 38.703125 37.140625 36.203125 40.3125 
C 33.203125 43.890625 28.59375 46 23.40625 46 
C 18.40625 46 13.703125 44.1875 9.90625 40.8125 
C 5.203125 36.734375 2.5 29.6875 2.5 21.46875 
C 2.5 7.59375 9.703125 -1 21.203125 -1 
C 30.703125 -1 38.203125 4.890625 42.40625 15.734375 
z
M 9.90625 31 
C 11 38.71875 14.40625 42.390625 20.5 42.390625 
C 26.59375 42.390625 29 39.609375 30.296875 31 
z
" id="Nimbus_Roman_No9_L_Regular-101"/>
       <path d="M 31.5 31.390625 
L 31.09375 45 
L 30 45 
L 29.796875 44.796875 
C 28.90625 44.09375 28.796875 43.984375 28.40625 43.984375 
C 27.796875 43.984375 26.796875 44.1875 25.703125 44.6875 
C 23.5 45.59375 21.296875 46 18.703125 46 
C 10.796875 46 5.09375 40.890625 5.09375 33.671875 
C 5.09375 28.0625 8.296875 24.046875 16.796875 19.234375 
L 22.59375 15.921875 
C 26.09375 13.921875 27.796875 11.515625 27.796875 8.40625 
C 27.796875 4 24.59375 1.1875 19.5 1.1875 
C 16.09375 1.1875 13 2.5 11.09375 4.703125 
C 9 7.203125 8.09375 9.515625 6.796875 15.21875 
L 5.203125 15.21875 
L 5.203125 -0.40625 
L 6.5 -0.40625 
C 7.203125 0.59375 7.59375 0.796875 8.796875 0.796875 
C 9.703125 0.796875 11.09375 0.59375 13.40625 0 
C 16.203125 -0.609375 18.90625 -1 20.703125 -1 
C 28.40625 -1 34.796875 4.796875 34.796875 11.8125 
C 34.796875 16.828125 32.40625 20.140625 26.40625 23.75 
L 15.59375 30.15625 
C 12.796875 31.765625 11.296875 34.265625 11.296875 36.96875 
C 11.296875 40.984375 14.40625 43.796875 19 43.796875 
C 24.703125 43.796875 27.703125 40.390625 30 31.46875 
z
" id="Nimbus_Roman_No9_L_Regular-115"/>
       <path d="M 25.5 45 
L 15.40625 45 
L 15.40625 56.59375 
C 15.40625 57.59375 15.296875 57.890625 14.703125 57.890625 
C 14 57 13.40625 56.09375 12.703125 55.09375 
C 8.90625 49.59375 4.59375 44.796875 3 44.390625 
C 1.90625 43.6875 1.296875 42.984375 1.296875 42.484375 
C 1.296875 42.1875 1.40625 41.984375 1.703125 41.796875 
L 7 41.796875 
L 7 11.6875 
C 7 3.296875 10 -1 15.90625 -1 
C 20.796875 -1 24.59375 1.390625 27.90625 6.59375 
L 26.59375 7.6875 
C 24.5 5.1875 22.796875 4.1875 20.59375 4.1875 
C 16.90625 4.1875 15.40625 6.890625 15.40625 13.1875 
L 15.40625 41.796875 
L 25.5 41.796875 
z
" id="Nimbus_Roman_No9_L_Regular-116"/>
       <path d="M 0.90625 39.296875 
C 1.796875 39.390625 2.5 39.390625 3.40625 39.390625 
C 6.796875 39.390625 7.5 38.390625 7.5 33.703125 
L 7.5 -13.109375 
C 7.5 -18.3125 6.40625 -19.40625 0.5 -20 
L 0.5 -21.703125 
L 24.703125 -21.703125 
L 24.703125 -20 
C 17.203125 -19.90625 15.90625 -18.796875 15.90625 -12.46875 
L 15.90625 3.296875 
C 19.40625 0 21.796875 -1 26 -1 
C 37.796875 -1 47 10.1875 47 24.6875 
C 47 37.09375 40 46 30.296875 46 
C 24.703125 46 20.296875 43.484375 15.90625 38.09375 
L 15.90625 45.796875 
L 15.296875 46 
C 9.90625 43.890625 6.40625 42.59375 0.90625 40.890625 
z
M 15.90625 33.390625 
C 15.90625 36.390625 21.5 39.984375 26.09375 39.984375 
C 33.5 39.984375 38.40625 32.390625 38.40625 20.796875 
C 38.40625 9.6875 33.5 2.1875 26.296875 2.1875 
C 21.59375 2.1875 15.90625 5.796875 15.90625 8.796875 
z
" id="Nimbus_Roman_No9_L_Regular-112"/>
       <path d="M 47.09375 27 
L 37.09375 27 
L 39.09375 40.484375 
L 49.59375 40.484375 
L 49.59375 46 
L 39.90625 46 
L 42.90625 66 
L 37.09375 66 
L 34.09375 46 
L 20.796875 46 
L 23.90625 66 
L 18.09375 66 
L 15 46 
L 3.203125 46 
L 3.203125 40.484375 
L 14.203125 40.484375 
L 12.09375 27 
L 0.5 27 
L 0.5 21.484375 
L 11.203125 21.484375 
L 7.90625 0 
L 13.703125 0 
L 17 21.484375 
L 30.40625 21.484375 
L 27.296875 0 
L 33.09375 0 
L 36.203125 21.484375 
L 47.09375 21.484375 
z
M 33.296875 40.484375 
L 31.296875 27 
L 17.90625 27 
L 20 40.484375 
z
" id="Nimbus_Roman_No9_L_Regular-35"/>
      </defs>
      <use transform="scale(0.996264)" xlink:href="#Nimbus_Roman_No9_L_Regular-84"/>
      <use transform="translate(57.384904 0)scale(0.996264)" xlink:href="#Nimbus_Roman_No9_L_Regular-105"/>
      <use transform="translate(85.080074 0)scale(0.996264)" xlink:href="#Nimbus_Roman_No9_L_Regular-109"/>
      <use transform="translate(162.588444 0)scale(0.996264)" xlink:href="#Nimbus_Roman_No9_L_Regular-101"/>
      <use transform="translate(206.822013 0)scale(0.996264)" xlink:href="#Nimbus_Roman_No9_L_Regular-115"/>
      <use transform="translate(245.575719 0)scale(0.996264)" xlink:href="#Nimbus_Roman_No9_L_Regular-116"/>
      <use transform="translate(273.270888 0)scale(0.996264)" xlink:href="#Nimbus_Roman_No9_L_Regular-101"/>
      <use transform="translate(317.504457 0)scale(0.996264)" xlink:href="#Nimbus_Roman_No9_L_Regular-112"/>
      <use transform="translate(392.224258 0)scale(0.996264)" xlink:href="#Nimbus_Roman_No9_L_Regular-35"/>
     </g>
    </g>
   </g>
   <g id="matplotlib.axis_2">
    <g id="ytick_1">
     <g id="line2d_31">
      <defs>
       <path d="M 0 0 
L 3 0 
" id="m874a83ee5e" style="stroke:#000000;stroke-width:0.5;"/>
      </defs>
      <g>
       <use style="stroke:#000000;stroke-width:0.5;" x="31.02528" xlink:href="#m874a83ee5e" y="132.3223"/>
      </g>
     </g>
     <g id="line2d_32">
      <defs>
       <path d="M 0 0 
L -3 0 
" id="m4649cfa6d9" style="stroke:#000000;stroke-width:0.5;"/>
      </defs>
      <g>
       <use style="stroke:#000000;stroke-width:0.5;" x="215.16528" xlink:href="#m4649cfa6d9" y="132.3223"/>
      </g>
     </g>
     <g id="text_5">
      <!-- $\mathdefault{5}$ -->
      <g transform="translate(22.54396 135.699588)scale(0.1 -0.1)">
       <defs>
        <path d="M 18.09375 58.09375 
L 37.703125 58.09375 
C 39.296875 58.09375 39.703125 58.296875 40 58.984375 
L 43.796875 67.890625 
L 42.90625 68.59375 
C 41.40625 66.5 40.40625 66 38.296875 66 
L 17.40625 66 
L 6.5 42.453125 
C 6.40625 42.265625 6.40625 42.15625 6.40625 41.96875 
C 6.40625 41.46875 6.796875 41.171875 7.59375 41.171875 
C 10.796875 41.171875 14.796875 40.484375 18.90625 39.1875 
C 30.40625 35.53125 35.703125 29.40625 35.703125 19.609375 
C 35.703125 10.109375 29.59375 2.6875 21.796875 2.6875 
C 19.796875 2.6875 18.09375 3.390625 15.09375 5.5625 
C 11.90625 7.84375 9.59375 8.828125 7.5 8.828125 
C 4.59375 8.828125 3.203125 7.640625 3.203125 5.171875 
C 3.203125 1.390625 7.90625 -1 15.40625 -1 
C 23.796875 -1 31 1.6875 36 6.75 
C 40.59375 11.203125 42.703125 16.84375 42.703125 24.359375 
C 42.703125 31.484375 40.796875 36.03125 35.796875 40.96875 
C 31.40625 45.328125 25.703125 47.609375 13.90625 49.6875 
z
" id="Nimbus_Roman_No9_L_Regular-53"/>
       </defs>
       <use transform="scale(0.996264)" xlink:href="#Nimbus_Roman_No9_L_Regular-53"/>
      </g>
     </g>
    </g>
    <g id="ytick_2">
     <g id="line2d_33">
      <g>
       <use style="stroke:#000000;stroke-width:0.5;" x="31.02528" xlink:href="#m874a83ee5e" y="101.602329"/>
      </g>
     </g>
     <g id="line2d_34">
      <g>
       <use style="stroke:#000000;stroke-width:0.5;" x="215.16528" xlink:href="#m4649cfa6d9" y="101.602329"/>
      </g>
     </g>
     <g id="text_6">
      <!-- $\mathdefault{10}$ -->
      <g transform="translate(17.56264 104.979618)scale(0.1 -0.1)">
       <use transform="scale(0.996264)" xlink:href="#Nimbus_Roman_No9_L_Regular-49"/>
       <use transform="translate(49.8132 0)scale(0.996264)" xlink:href="#Nimbus_Roman_No9_L_Regular-48"/>
      </g>
     </g>
    </g>
    <g id="ytick_3">
     <g id="line2d_35">
      <g>
       <use style="stroke:#000000;stroke-width:0.5;" x="31.02528" xlink:href="#m874a83ee5e" y="70.882358"/>
      </g>
     </g>
     <g id="line2d_36">
      <g>
       <use style="stroke:#000000;stroke-width:0.5;" x="215.16528" xlink:href="#m4649cfa6d9" y="70.882358"/>
      </g>
     </g>
     <g id="text_7">
      <!-- $\mathdefault{15}$ -->
      <g transform="translate(17.56264 74.259647)scale(0.1 -0.1)">
       <use transform="scale(0.996264)" xlink:href="#Nimbus_Roman_No9_L_Regular-49"/>
       <use transform="translate(49.8132 0)scale(0.996264)" xlink:href="#Nimbus_Roman_No9_L_Regular-53"/>
      </g>
     </g>
    </g>
    <g id="ytick_4">
     <g id="line2d_37">
      <g>
       <use style="stroke:#000000;stroke-width:0.5;" x="31.02528" xlink:href="#m874a83ee5e" y="40.162387"/>
      </g>
     </g>
     <g id="line2d_38">
      <g>
       <use style="stroke:#000000;stroke-width:0.5;" x="215.16528" xlink:href="#m4649cfa6d9" y="40.162387"/>
      </g>
     </g>
     <g id="text_8">
      <!-- $\mathdefault{20}$ -->
      <g transform="translate(17.56264 43.539676)scale(0.1 -0.1)">
       <use transform="scale(0.996264)" xlink:href="#Nimbus_Roman_No9_L_Regular-50"/>
       <use transform="translate(49.8132 0)scale(0.996264)" xlink:href="#Nimbus_Roman_No9_L_Regular-48"/>
      </g>
     </g>
    </g>
    <g id="ytick_5">
     <g id="line2d_39">
      <defs>
       <path d="M 0 0 
L 1.5 0 
" id="mebb036ee37" style="stroke:#000000;stroke-width:0.5;"/>
      </defs>
      <g>
       <use style="stroke:#000000;stroke-width:0.5;" x="31.02528" xlink:href="#mebb036ee37" y="150.754282"/>
      </g>
     </g>
     <g id="line2d_40">
      <defs>
       <path d="M 0 0 
L -1.5 0 
" id="m4d6b9f9711" style="stroke:#000000;stroke-width:0.5;"/>
      </defs>
      <g>
       <use style="stroke:#000000;stroke-width:0.5;" x="215.16528" xlink:href="#m4d6b9f9711" y="150.754282"/>
      </g>
     </g>
    </g>
    <g id="ytick_6">
     <g id="line2d_41">
      <g>
       <use style="stroke:#000000;stroke-width:0.5;" x="31.02528" xlink:href="#mebb036ee37" y="144.610288"/>
      </g>
     </g>
     <g id="line2d_42">
      <g>
       <use style="stroke:#000000;stroke-width:0.5;" x="215.16528" xlink:href="#m4d6b9f9711" y="144.610288"/>
      </g>
     </g>
    </g>
    <g id="ytick_7">
     <g id="line2d_43">
      <g>
       <use style="stroke:#000000;stroke-width:0.5;" x="31.02528" xlink:href="#mebb036ee37" y="138.466294"/>
      </g>
     </g>
     <g id="line2d_44">
      <g>
       <use style="stroke:#000000;stroke-width:0.5;" x="215.16528" xlink:href="#m4d6b9f9711" y="138.466294"/>
      </g>
     </g>
    </g>
    <g id="ytick_8">
     <g id="line2d_45">
      <g>
       <use style="stroke:#000000;stroke-width:0.5;" x="31.02528" xlink:href="#mebb036ee37" y="126.178305"/>
      </g>
     </g>
     <g id="line2d_46">
      <g>
       <use style="stroke:#000000;stroke-width:0.5;" x="215.16528" xlink:href="#m4d6b9f9711" y="126.178305"/>
      </g>
     </g>
    </g>
    <g id="ytick_9">
     <g id="line2d_47">
      <g>
       <use style="stroke:#000000;stroke-width:0.5;" x="31.02528" xlink:href="#mebb036ee37" y="120.034311"/>
      </g>
     </g>
     <g id="line2d_48">
      <g>
       <use style="stroke:#000000;stroke-width:0.5;" x="215.16528" xlink:href="#m4d6b9f9711" y="120.034311"/>
      </g>
     </g>
    </g>
    <g id="ytick_10">
     <g id="line2d_49">
      <g>
       <use style="stroke:#000000;stroke-width:0.5;" x="31.02528" xlink:href="#mebb036ee37" y="113.890317"/>
      </g>
     </g>
     <g id="line2d_50">
      <g>
       <use style="stroke:#000000;stroke-width:0.5;" x="215.16528" xlink:href="#m4d6b9f9711" y="113.890317"/>
      </g>
     </g>
    </g>
    <g id="ytick_11">
     <g id="line2d_51">
      <g>
       <use style="stroke:#000000;stroke-width:0.5;" x="31.02528" xlink:href="#mebb036ee37" y="107.746323"/>
      </g>
     </g>
     <g id="line2d_52">
      <g>
       <use style="stroke:#000000;stroke-width:0.5;" x="215.16528" xlink:href="#m4d6b9f9711" y="107.746323"/>
      </g>
     </g>
    </g>
    <g id="ytick_12">
     <g id="line2d_53">
      <g>
       <use style="stroke:#000000;stroke-width:0.5;" x="31.02528" xlink:href="#mebb036ee37" y="95.458335"/>
      </g>
     </g>
     <g id="line2d_54">
      <g>
       <use style="stroke:#000000;stroke-width:0.5;" x="215.16528" xlink:href="#m4d6b9f9711" y="95.458335"/>
      </g>
     </g>
    </g>
    <g id="ytick_13">
     <g id="line2d_55">
      <g>
       <use style="stroke:#000000;stroke-width:0.5;" x="31.02528" xlink:href="#mebb036ee37" y="89.314341"/>
      </g>
     </g>
     <g id="line2d_56">
      <g>
       <use style="stroke:#000000;stroke-width:0.5;" x="215.16528" xlink:href="#m4d6b9f9711" y="89.314341"/>
      </g>
     </g>
    </g>
    <g id="ytick_14">
     <g id="line2d_57">
      <g>
       <use style="stroke:#000000;stroke-width:0.5;" x="31.02528" xlink:href="#mebb036ee37" y="83.170346"/>
      </g>
     </g>
     <g id="line2d_58">
      <g>
       <use style="stroke:#000000;stroke-width:0.5;" x="215.16528" xlink:href="#m4d6b9f9711" y="83.170346"/>
      </g>
     </g>
    </g>
    <g id="ytick_15">
     <g id="line2d_59">
      <g>
       <use style="stroke:#000000;stroke-width:0.5;" x="31.02528" xlink:href="#mebb036ee37" y="77.026352"/>
      </g>
     </g>
     <g id="line2d_60">
      <g>
       <use style="stroke:#000000;stroke-width:0.5;" x="215.16528" xlink:href="#m4d6b9f9711" y="77.026352"/>
      </g>
     </g>
    </g>
    <g id="ytick_16">
     <g id="line2d_61">
      <g>
       <use style="stroke:#000000;stroke-width:0.5;" x="31.02528" xlink:href="#mebb036ee37" y="64.738364"/>
      </g>
     </g>
     <g id="line2d_62">
      <g>
       <use style="stroke:#000000;stroke-width:0.5;" x="215.16528" xlink:href="#m4d6b9f9711" y="64.738364"/>
      </g>
     </g>
    </g>
    <g id="ytick_17">
     <g id="line2d_63">
      <g>
       <use style="stroke:#000000;stroke-width:0.5;" x="31.02528" xlink:href="#mebb036ee37" y="58.59437"/>
      </g>
     </g>
     <g id="line2d_64">
      <g>
       <use style="stroke:#000000;stroke-width:0.5;" x="215.16528" xlink:href="#m4d6b9f9711" y="58.59437"/>
      </g>
     </g>
    </g>
    <g id="ytick_18">
     <g id="line2d_65">
      <g>
       <use style="stroke:#000000;stroke-width:0.5;" x="31.02528" xlink:href="#mebb036ee37" y="52.450376"/>
      </g>
     </g>
     <g id="line2d_66">
      <g>
       <use style="stroke:#000000;stroke-width:0.5;" x="215.16528" xlink:href="#m4d6b9f9711" y="52.450376"/>
      </g>
     </g>
    </g>
    <g id="ytick_19">
     <g id="line2d_67">
      <g>
       <use style="stroke:#000000;stroke-width:0.5;" x="31.02528" xlink:href="#mebb036ee37" y="46.306382"/>
      </g>
     </g>
     <g id="line2d_68">
      <g>
       <use style="stroke:#000000;stroke-width:0.5;" x="215.16528" xlink:href="#m4d6b9f9711" y="46.306382"/>
      </g>
     </g>
    </g>
    <g id="ytick_20">
     <g id="line2d_69">
      <g>
       <use style="stroke:#000000;stroke-width:0.5;" x="31.02528" xlink:href="#mebb036ee37" y="34.018393"/>
      </g>
     </g>
     <g id="line2d_70">
      <g>
       <use style="stroke:#000000;stroke-width:0.5;" x="215.16528" xlink:href="#m4d6b9f9711" y="34.018393"/>
      </g>
     </g>
    </g>
    <g id="ytick_21">
     <g id="line2d_71">
      <g>
       <use style="stroke:#000000;stroke-width:0.5;" x="31.02528" xlink:href="#mebb036ee37" y="27.874399"/>
      </g>
     </g>
     <g id="line2d_72">
      <g>
       <use style="stroke:#000000;stroke-width:0.5;" x="215.16528" xlink:href="#m4d6b9f9711" y="27.874399"/>
      </g>
     </g>
    </g>
    <g id="ytick_22">
     <g id="line2d_73">
      <g>
       <use style="stroke:#000000;stroke-width:0.5;" x="31.02528" xlink:href="#mebb036ee37" y="21.730405"/>
      </g>
     </g>
     <g id="line2d_74">
      <g>
       <use style="stroke:#000000;stroke-width:0.5;" x="215.16528" xlink:href="#m4d6b9f9711" y="21.730405"/>
      </g>
     </g>
    </g>
    <g id="text_9">
     <!-- Glucose ($mmol/L$) -->
     <g transform="translate(11.07198 124.489469)rotate(-90)scale(0.1 -0.1)">
      <defs>
       <path d="M 70.90625 35.796875 
L 45.40625 35.796875 
L 45.40625 34 
C 49.703125 33.6875 50.90625 33.390625 52.09375 32.59375 
C 53.59375 31.6875 54.203125 29.390625 54.203125 25.09375 
L 54.203125 8.890625 
C 54.203125 5.6875 48.09375 3 40.90625 3 
C 24.59375 3 14.59375 14.390625 14.59375 33 
C 14.59375 42.390625 17.40625 51.5 21.796875 56.390625 
C 26.203125 61.296875 32.40625 63.984375 39.203125 63.984375 
C 44.796875 63.984375 49.703125 62.09375 53.59375 58.5 
C 56.59375 55.703125 58.203125 53 60.703125 46.890625 
L 63 46.890625 
L 62.203125 68 
L 60 68 
C 59.40625 66.09375 57.59375 64.6875 55.5 64.6875 
C 54.5 64.6875 52.90625 64.984375 51.09375 65.6875 
C 46.59375 67.1875 42 68 37.5 68 
C 17.5 68 3.203125 53.296875 3.203125 32.890625 
C 3.203125 23.09375 5.90625 15.59375 11.5 9.6875 
C 18.203125 2.796875 27.796875 -1 38.796875 -1 
C 47.40625 -1 59.90625 2.5 63.90625 6 
L 63.90625 26.296875 
C 63.90625 32.1875 65.09375 33.5 70.90625 34 
z
" id="Nimbus_Roman_No9_L_Regular-71"/>
       <path d="M 1.90625 62.296875 
L 2.5 62.296875 
C 3.59375 62.390625 4.796875 62.5 5.59375 62.5 
C 8.796875 62.5 9.796875 61.09375 9.796875 56.390625 
L 9.796875 8.6875 
C 9.796875 3.296875 8.40625 2 2.09375 1.5 
L 2.09375 0 
L 25.703125 0 
L 25.703125 1.5 
C 19.40625 1.890625 18.203125 2.890625 18.203125 8.390625 
L 18.203125 68.09375 
L 17.796875 68.296875 
C 12.59375 66.59375 8.796875 65.59375 1.90625 63.890625 
z
" id="Nimbus_Roman_No9_L_Regular-108"/>
       <path d="M 47.90625 4.984375 
L 47.40625 4.984375 
C 42.796875 4.984375 41.703125 6.09375 41.703125 10.6875 
L 41.703125 45 
L 25.90625 45 
L 25.90625 43.296875 
C 32.09375 43 33.296875 42 33.296875 37 
L 33.296875 13.5 
C 33.296875 10.6875 32.796875 9.296875 31.40625 8.1875 
C 28.703125 6 25.59375 4.796875 22.59375 4.796875 
C 18.703125 4.796875 15.5 8.1875 15.5 12.390625 
L 15.5 45 
L 0.90625 45 
L 0.90625 43.59375 
C 5.703125 43.296875 7.09375 41.796875 7.09375 37.1875 
L 7.09375 12 
C 7.09375 4.09375 11.90625 -1 19.203125 -1 
C 22.90625 -1 26.796875 0.59375 29.5 3.296875 
L 33.796875 7.59375 
L 33.796875 -0.703125 
L 34.203125 -1 
C 39.203125 1 42.796875 2.09375 47.90625 3.5 
z
" id="Nimbus_Roman_No9_L_Regular-117"/>
       <path d="M 39.796875 15.59375 
C 35 8.59375 31.40625 6.1875 25.703125 6.1875 
C 16.59375 6.1875 10.203125 14.1875 10.203125 25.6875 
C 10.203125 35.984375 15.703125 43.09375 23.796875 43.09375 
C 27.40625 43.09375 28.703125 41.984375 29.703125 38.296875 
L 30.296875 36.09375 
C 31.09375 33.296875 32.90625 31.484375 35 31.484375 
C 37.59375 31.484375 39.796875 33.390625 39.796875 35.6875 
C 39.796875 41.296875 32.796875 46 24.40625 46 
C 19.5 46 14.40625 43.984375 10.296875 40.390625 
C 5.296875 35.984375 2.5 29.1875 2.5 21.296875 
C 2.5 8.296875 10.40625 -1 21.5 -1 
C 26 -1 30 0.59375 33.59375 3.6875 
C 36.296875 6.09375 38.203125 8.796875 41.203125 14.6875 
z
" id="Nimbus_Roman_No9_L_Regular-99"/>
       <path d="M 25 46 
C 12 46 2.90625 36.390625 2.90625 22.59375 
C 2.90625 9.09375 12.203125 -1 24.796875 -1 
C 37.40625 -1 47 9.59375 47 23.390625 
C 47 36.5 37.796875 46 25 46 
z
M 23.703125 43.1875 
C 32.09375 43.1875 38 33.59375 38 19.890625 
C 38 8.59375 33.5 1.796875 26 1.796875 
C 22.09375 1.796875 18.40625 4.1875 16.296875 8.1875 
C 13.5 13.390625 11.90625 20.390625 11.90625 27.5 
C 11.90625 37 16.59375 43.1875 23.703125 43.1875 
z
" id="Nimbus_Roman_No9_L_Regular-111"/>
       <path d="M 29.5 68 
C 22.09375 63.1875 19.09375 60.59375 15.40625 55.984375 
C 8.296875 47.296875 4.796875 37.296875 4.796875 25.59375 
C 4.796875 12.890625 8.5 3.09375 17.296875 -7.109375 
C 21.40625 -11.90625 24 -14.109375 29.203125 -17.3125 
L 30.40625 -15.71875 
C 22.40625 -9.40625 19.59375 -5.90625 16.90625 1.59375 
C 14.5 8.28125 13.40625 15.890625 13.40625 25.890625 
C 13.40625 36.390625 14.703125 44.59375 17.40625 50.796875 
C 20.203125 56.984375 23.203125 60.59375 30.40625 66.390625 
z
" id="Nimbus_Roman_No9_L_Regular-40"/>
       <path d="M 68.90625 11.59375 
C 67.90625 10.390625 67.09375 9.390625 66.796875 8.984375 
C 64 5.390625 61.90625 3.6875 60.40625 3.6875 
C 59.59375 3.6875 59.09375 4.296875 59.09375 5.296875 
C 59.09375 5.796875 59.5 7.390625 60.09375 9.796875 
L 66.90625 34.890625 
C 67 35.296875 67.203125 37.09375 67.203125 37.6875 
C 67.203125 41.296875 64.703125 44 61.296875 44 
C 59.40625 44 57.40625 43.296875 55 41.796875 
C 50.09375 38.59375 46 33.796875 39.09375 22.796875 
C 41.59375 30.390625 43.09375 36.09375 43.09375 37.984375 
C 43.09375 41.484375 40.796875 44 37.40625 44 
C 31.296875 44 24.296875 37.390625 15.09375 22.890625 
L 20.90625 43.796875 
L 20.59375 44 
C 15 42.796875 12.90625 42.390625 4.59375 40.890625 
L 4.59375 39.296875 
L 7.09375 39.296875 
C 9.703125 39.296875 11 38.59375 11 37.09375 
C 11 35.984375 8.703125 26.890625 5.09375 14.1875 
C 2.796875 6 2.5 5 1.203125 -0.109375 
L 8.703125 -0.109375 
C 13.5 15.796875 15 19.484375 18.40625 24.6875 
C 24 33.1875 30 38.796875 33.40625 38.796875 
C 34.703125 38.796875 35.40625 37.890625 35.40625 36.296875 
C 35.40625 35.390625 32.203125 23.296875 25.90625 -0.109375 
L 33.40625 -0.109375 
C 37.40625 15.484375 39.40625 20.484375 44.5 27.59375 
C 49.40625 34.390625 54.40625 38.796875 57.296875 38.796875 
C 58.40625 38.796875 59.296875 37.796875 59.296875 36.6875 
C 59.296875 36.1875 59.09375 34.984375 58.59375 33.1875 
L 52.796875 10.1875 
C 51.90625 6.5 51.5 4.59375 51.5 3.59375 
C 51.5 0.59375 52.90625 -1 55.5 -1 
C 60.203125 -1 64.59375 2.296875 69.90625 9.6875 
L 70.40625 10.390625 
z
" id="Nimbus_Roman_No9_L_Regular_Italic-109"/>
       <path d="M 32.5 44 
C 17.5 44 2.703125 28.5625 2.703125 12.9375 
C 2.703125 4.375 8.296875 -1 17.40625 -1 
C 24 -1 30.40625 1.984375 36.203125 7.65625 
C 42.796875 14.125 46.796875 22.59375 46.796875 30.046875 
C 46.796875 38.3125 41 44 32.5 44 
z
M 31.296875 41.890625 
C 35.59375 41.890625 38.40625 38.21875 38.40625 32.546875 
C 38.40625 25.28125 35.09375 15.328125 30.703125 8.859375 
C 27 3.578125 23.203125 1.09375 18.90625 1.09375 
C 14.203125 1.09375 11.09375 4.671875 11.09375 10.15625 
C 11.09375 17.515625 14 26.265625 18.90625 33.34375 
C 22.796875 38.90625 27 41.890625 31.296875 41.890625 
z
" id="Nimbus_Roman_No9_L_Regular_Italic-111"/>
       <path d="M 22.796875 12.390625 
C 21.90625 11.296875 21 10.1875 20.09375 9 
C 16.90625 4.796875 15 3.296875 13.203125 3.296875 
C 12.203125 3.296875 11.703125 4 11.703125 5.09375 
C 11.703125 5.796875 12 7 12.5 9 
C 12.59375 9.296875 12.703125 9.796875 12.796875 10 
L 27.90625 67.890625 
L 27.40625 68.390625 
C 21.5 67.09375 17.703125 66.390625 11.796875 65.703125 
L 11.796875 64.09375 
C 16.59375 64.09375 18.59375 63.390625 18.59375 61.796875 
C 18.59375 61.5 18.5 60.890625 18.203125 60 
L 4.5 7.1875 
C 4.203125 6.09375 4 5.09375 4 4.59375 
C 4 1 5.703125 -1 8.90625 -1 
C 14.09375 -1 17.59375 1.890625 24.09375 11.5 
z
" id="Nimbus_Roman_No9_L_Regular_Italic-108"/>
       <path d="M 43.90625 71.203125 
C 44.40625 72.5 44.40625 72.890625 44.40625 73 
C 44.40625 74.09375 43.5 75 42.40625 75 
C 41.703125 75 41 74.6875 40.703125 74.09375 
L 6 -21.203125 
C 5.5 -22.5 5.5 -22.90625 5.5 -23 
C 5.5 -24.109375 6.40625 -25 7.5 -25 
C 8.796875 -25 9.09375 -24.3125 9.703125 -22.609375 
z
" id="CMMI10-61"/>
       <path d="M 40.296875 65 
L 13 65 
L 13 63.390625 
C 19.203125 62.796875 20.703125 62 20.703125 59.109375 
C 20.703125 57.71875 20.296875 55.4375 19.59375 52.953125 
L 7.296875 8.96875 
C 5.5 3.1875 4.796875 2.59375 -0.796875 1.59375 
L -0.796875 0 
L 50.09375 0 
L 55.90625 17.828125 
L 53.90625 18.421875 
C 50.40625 11.25 47.703125 8.0625 43.296875 5.875 
C 39.796875 4.1875 35.703125 3.59375 27 3.59375 
C 19.40625 3.59375 16.90625 4.390625 16.90625 6.96875 
C 16.90625 7.671875 17.40625 10.0625 17.90625 11.953125 
L 30.203125 56.03125 
C 31.703125 61.109375 34.296875 62.984375 40.296875 63.390625 
z
" id="Nimbus_Roman_No9_L_Regular_Italic-76"/>
       <path d="M 3.796875 -17.3125 
C 11.203125 -12.515625 14.203125 -9.90625 17.90625 -5.3125 
C 25 3.390625 28.5 13.390625 28.5 25.09375 
C 28.5 37.890625 24.796875 47.59375 16 57.796875 
C 11.90625 62.59375 9.296875 64.796875 4.09375 68 
L 2.90625 66.390625 
C 10.90625 60.09375 13.59375 56.59375 16.40625 49.09375 
C 18.796875 42.390625 19.90625 34.796875 19.90625 24.796875 
C 19.90625 14.390625 18.59375 6.09375 15.90625 -0.015625 
C 13.09375 -6.3125 10.09375 -9.90625 2.90625 -15.71875 
z
" id="Nimbus_Roman_No9_L_Regular-41"/>
      </defs>
      <use transform="scale(0.996264)" xlink:href="#Nimbus_Roman_No9_L_Regular-71"/>
      <use transform="translate(71.929985 0)scale(0.996264)" xlink:href="#Nimbus_Roman_No9_L_Regular-108"/>
      <use transform="translate(99.625154 0)scale(0.996264)" xlink:href="#Nimbus_Roman_No9_L_Regular-117"/>
      <use transform="translate(149.438355 0)scale(0.996264)" xlink:href="#Nimbus_Roman_No9_L_Regular-99"/>
      <use transform="translate(193.671924 0)scale(0.996264)" xlink:href="#Nimbus_Roman_No9_L_Regular-111"/>
      <use transform="translate(243.485124 0)scale(0.996264)" xlink:href="#Nimbus_Roman_No9_L_Regular-115"/>
      <use transform="translate(282.23883 0)scale(0.996264)" xlink:href="#Nimbus_Roman_No9_L_Regular-101"/>
      <use transform="translate(351.378999 0)scale(0.996264)" xlink:href="#Nimbus_Roman_No9_L_Regular-40"/>
      <use transform="translate(384.554229 0)scale(0.996264)" xlink:href="#Nimbus_Roman_No9_L_Regular_Italic-109"/>
      <use transform="translate(456.484214 0)scale(0.996264)" xlink:href="#Nimbus_Roman_No9_L_Regular_Italic-109"/>
      <use transform="translate(528.414199 0)scale(0.996264)" xlink:href="#Nimbus_Roman_No9_L_Regular_Italic-111"/>
      <use transform="translate(578.227399 0)scale(0.996264)" xlink:href="#Nimbus_Roman_No9_L_Regular_Italic-108"/>
      <use transform="translate(611.002427 0)scale(0.996264)" xlink:href="#CMMI10-61"/>
      <use transform="translate(660.815627 0)scale(0.996264)" xlink:href="#Nimbus_Roman_No9_L_Regular_Italic-76"/>
      <use transform="translate(716.505153 0)scale(0.996264)" xlink:href="#Nimbus_Roman_No9_L_Regular-41"/>
     </g>
    </g>
   </g>
   <g id="line2d_75">
    <path clip-path="url(#p71643f9aff)" d="M 39.39528 88.085542 
L 40.001802 89.92874 
L 40.608324 92.386338 
L 41.214845 93.615137 
L 41.821367 95.458335 
L 42.427889 96.687134 
L 43.034411 98.530332 
L 43.640932 99.759131 
L 47.280063 110.81832 
L 47.886585 112.047119 
L 49.70615 117.576714 
L 50.312672 120.034311 
L 50.919193 121.87751 
L 52.132237 126.792705 
L 53.34528 130.479101 
L 53.951802 131.7079 
L 54.558324 133.551098 
L 56.377889 137.237495 
L 56.984411 137.851894 
L 57.590932 139.080693 
L 58.197454 139.695093 
L 58.803976 140.923891 
L 60.017019 142.15269 
L 60.623541 143.381489 
L 64.262672 147.067886 
L 64.869193 147.067886 
L 66.082237 148.296684 
L 67.901802 148.296684 
L 68.508324 147.682285 
L 72.147454 147.682285 
L 72.753976 148.296684 
L 74.573541 148.296684 
L 75.180063 148.911084 
L 76.393106 148.911084 
L 76.999628 149.525483 
L 87.310498 149.525483 
L 87.917019 148.911084 
L 88.523541 148.911084 
L 89.130063 149.525483 
L 94.588758 149.525483 
L 95.19528 148.911084 
L 95.801802 147.682285 
L 97.621367 142.15269 
L 98.834411 140.923891 
L 100.047454 142.15269 
L 100.653976 142.15269 
L 101.260498 142.76709 
L 101.867019 142.76709 
L 103.080063 141.538291 
L 103.686585 140.309492 
L 104.293106 138.466294 
L 104.899628 139.695093 
L 105.50615 139.080693 
L 106.112672 137.851894 
L 106.719193 137.237495 
L 107.325715 136.008696 
L 109.14528 128.635903 
L 109.751802 125.563906 
L 110.358324 123.106308 
L 112.784411 110.81832 
L 114.603976 103.445527 
L 115.817019 100.98793 
L 116.423541 100.37353 
L 117.030063 100.37353 
L 120.062672 103.445527 
L 120.669193 104.674326 
L 121.275715 104.674326 
L 121.882237 108.975122 
L 122.488758 104.674326 
L 123.09528 104.674326 
L 124.308324 102.216728 
L 125.521367 98.530332 
L 126.127889 96.072734 
L 126.734411 94.229536 
L 127.947454 93.000737 
L 130.980063 86.856743 
L 131.586585 86.242344 
L 132.193106 86.242344 
L 134.012672 84.399145 
L 135.832237 80.712749 
L 136.438758 78.869551 
L 137.04528 77.640752 
L 137.651802 77.026352 
L 138.258324 75.797554 
L 138.864845 75.797554 
L 139.471367 76.411953 
L 140.684411 76.411953 
L 141.897454 73.954355 
L 143.717019 64.738364 
L 144.930063 57.365571 
L 146.143106 52.450376 
L 146.749628 50.607178 
L 147.962672 45.691982 
L 148.569193 42.619985 
L 149.782237 34.632793 
L 150.99528 26.6456 
L 172.830063 26.6456 
L 173.436585 27.26 
L 174.649628 32.175195 
L 175.25615 34.018393 
L 175.862672 35.247192 
L 176.469193 37.09039 
L 177.682237 38.319189 
L 178.89528 40.776787 
L 180.108324 44.463183 
L 180.714845 46.920781 
L 181.927889 49.378379 
L 183.140932 50.607178 
L 183.747454 50.607178 
L 184.353976 51.221577 
L 186.173541 51.221577 
L 186.780063 48.14958 
L 187.386585 51.221577 
L 188.599628 51.221577 
L 191.025715 53.679175 
L 191.632237 55.522373 
L 194.058324 60.437568 
L 194.664845 60.437568 
L 195.271367 61.051968 
L 197.090932 59.208769 
L 197.697454 57.365571 
L 198.303976 56.751172 
L 198.910498 55.522373 
L 199.517019 55.522373 
L 200.123541 56.136772 
L 203.15615 62.280766 
L 204.369193 63.509565 
L 206.188758 63.509565 
L 206.79528 62.895166 
L 206.79528 62.895166 
" style="fill:none;stroke:#0c5da5;stroke-linecap:square;stroke-width:0.7;"/>
   </g>
   <g id="line2d_76">
    <path clip-path="url(#p71643f9aff)" d="M 39.39528 87.605484 
L 40.001802 89.765484 
L 40.608324 90.725484 
L 41.214845 93.365484 
L 42.427889 96.245484 
L 43.034411 96.965484 
L 43.640932 99.605484 
L 44.247454 100.565484 
L 44.853976 102.245484 
L 46.067019 106.805484 
L 46.673541 108.245484 
L 47.886585 112.085484 
L 48.493106 112.805484 
L 52.132237 126.005484 
L 52.738758 128.405484 
L 53.34528 130.325484 
L 53.951802 131.765484 
L 54.558324 132.485484 
L 55.164845 134.405484 
L 56.984411 137.765484 
L 57.590932 138.245484 
L 58.197454 139.205484 
L 58.803976 139.685484 
L 59.410498 141.125484 
L 60.623541 142.085484 
L 61.230063 143.285484 
L 61.836585 144.005484 
L 63.049628 144.965484 
L 63.65615 145.685484 
L 64.869193 146.645484 
L 65.475715 146.405484 
L 66.688758 147.845484 
L 67.901802 147.365484 
L 68.508324 147.365484 
L 69.114845 146.405484 
L 69.721367 146.405484 
L 70.934411 146.885484 
L 72.753976 146.885484 
L 73.360498 147.605484 
L 74.573541 147.605484 
L 75.180063 147.365484 
L 75.786585 148.325484 
L 76.393106 148.325484 
L 76.999628 148.085484 
L 77.60615 148.805484 
L 78.212672 148.805484 
L 79.425715 148.325484 
L 80.032237 148.565484 
L 87.917019 148.565484 
L 88.523541 147.845484 
L 89.130063 147.605484 
L 89.736585 148.805484 
L 90.343106 149.045484 
L 91.55615 148.565484 
L 95.19528 148.565484 
L 95.801802 147.845484 
L 96.408324 146.165484 
L 97.621367 141.365484 
L 98.227889 139.685484 
L 98.834411 139.925484 
L 99.440932 139.925484 
L 100.047454 141.365484 
L 100.653976 142.325484 
L 101.260498 142.325484 
L 101.867019 142.565484 
L 102.473541 142.325484 
L 104.293106 138.965484 
L 104.899628 136.805484 
L 105.50615 138.965484 
L 106.112672 138.965484 
L 107.325715 135.845484 
L 107.932237 134.645484 
L 109.14528 128.165484 
L 109.751802 126.005484 
L 112.177889 114.725484 
L 112.784411 110.885484 
L 113.390932 108.005484 
L 113.997454 106.085484 
L 115.210498 101.285484 
L 115.817019 100.805484 
L 116.423541 100.085484 
L 117.030063 99.845484 
L 117.636585 100.325484 
L 118.849628 102.485484 
L 120.669193 103.925484 
L 121.275715 105.365484 
L 121.882237 105.125484 
L 122.488758 111.125484 
L 123.09528 104.645484 
L 123.701802 102.725484 
L 124.308324 101.285484 
L 124.914845 101.045484 
L 125.521367 98.165484 
L 126.734411 94.325484 
L 127.340932 91.685484 
L 127.947454 91.925484 
L 128.553976 92.405484 
L 129.160498 91.205484 
L 129.767019 88.805484 
L 130.373541 88.325484 
L 131.586585 85.205484 
L 132.193106 85.205484 
L 132.799628 85.925484 
L 133.40615 85.445484 
L 134.012672 84.485484 
L 134.619193 83.765484 
L 137.04528 77.045484 
L 137.651802 75.845484 
L 138.258324 75.845484 
L 138.864845 74.885484 
L 139.471367 75.125484 
L 140.077889 76.325484 
L 140.684411 76.565484 
L 141.290932 76.085484 
L 141.897454 73.925484 
L 142.503976 72.245484 
L 143.717019 64.085484 
L 144.323541 61.205484 
L 145.536585 53.765484 
L 147.35615 48.725484 
L 148.569193 43.445484 
L 149.175715 40.085484 
L 150.99528 27.125484 
L 151.601802 24.005484 
L 152.814845 28.325484 
L 153.421367 28.565484 
L 154.027889 28.085484 
L 154.634411 27.365484 
L 155.240932 26.885484 
L 155.847454 26.645484 
L 156.453976 27.125484 
L 157.667019 27.605484 
L 158.880063 27.605484 
L 160.093106 27.125484 
L 173.436585 27.125484 
L 174.043106 27.845484 
L 175.25615 34.565484 
L 175.862672 36.245484 
L 176.469193 36.725484 
L 177.075715 38.165484 
L 178.288758 38.165484 
L 179.501802 41.525484 
L 180.714845 45.845484 
L 181.321367 48.725484 
L 181.927889 49.205484 
L 183.140932 49.685484 
L 183.747454 50.165484 
L 184.353976 49.685484 
L 184.960498 50.645484 
L 185.567019 50.885484 
L 186.780063 50.405484 
L 187.386585 46.085484 
L 187.993106 50.405484 
L 188.599628 51.365484 
L 189.812672 51.365484 
L 190.419193 52.565484 
L 191.025715 53.045484 
L 191.632237 53.045484 
L 192.238758 55.925484 
L 192.84528 57.845484 
L 193.451802 58.565484 
L 194.058324 59.525484 
L 194.664845 61.445484 
L 195.271367 60.005484 
L 195.877889 60.245484 
L 196.484411 59.525484 
L 197.697454 57.605484 
L 198.303976 55.445484 
L 198.910498 54.965484 
L 199.517019 53.765484 
L 200.123541 54.485484 
L 200.730063 55.925484 
L 201.336585 57.845484 
L 202.549628 60.485484 
L 203.15615 61.445484 
L 203.762672 62.645484 
L 204.975715 63.125484 
L 205.582237 63.125484 
L 206.188758 62.885484 
L 206.79528 62.885484 
L 206.79528 62.885484 
" style="fill:none;stroke:#00b945;stroke-linecap:square;stroke-width:0.7;"/>
   </g>
   <g id="line2d_77">
    <path clip-path="url(#p71643f9aff)" d="M 39.39528 87.845484 
L 40.001802 90.005484 
L 40.608324 90.965484 
L 41.214845 93.605484 
L 41.821367 95.525484 
L 43.034411 97.445484 
L 43.640932 99.845484 
L 44.247454 101.045484 
L 45.460498 105.365484 
L 47.280063 110.645484 
L 47.886585 113.285484 
L 48.493106 113.285484 
L 50.312672 119.765484 
L 50.919193 122.405484 
L 51.525715 123.605484 
L 52.738758 128.645484 
L 53.34528 129.845484 
L 53.951802 131.765484 
L 54.558324 132.245484 
L 55.164845 134.645484 
L 55.771367 135.605484 
L 56.984411 137.765484 
L 57.590932 138.245484 
L 58.197454 139.205484 
L 58.803976 139.925484 
L 59.410498 141.125484 
L 60.017019 141.605484 
L 60.623541 142.565484 
L 61.230063 144.005484 
L 61.836585 144.485484 
L 62.443106 144.725484 
L 64.262672 146.885484 
L 64.869193 147.365484 
L 65.475715 147.125484 
L 66.082237 148.085484 
L 66.688758 148.805484 
L 68.508324 148.085484 
L 69.114845 147.365484 
L 69.721367 147.365484 
L 70.934411 147.845484 
L 72.147454 147.845484 
L 73.360498 148.325484 
L 74.573541 148.325484 
L 75.180063 148.565484 
L 75.786585 149.285484 
L 76.393106 149.285484 
L 76.999628 149.045484 
L 77.60615 149.765484 
L 78.819193 149.765484 
L 79.425715 149.285484 
L 80.032237 149.765484 
L 80.638758 149.525484 
L 81.24528 149.525484 
L 81.851802 149.765484 
L 84.277889 149.765484 
L 84.884411 149.525484 
L 87.917019 149.525484 
L 88.523541 148.565484 
L 89.130063 148.565484 
L 89.736585 149.765484 
L 90.343106 150.005484 
L 91.55615 149.525484 
L 93.375715 149.525484 
L 93.982237 149.765484 
L 95.19528 149.765484 
L 95.801802 148.805484 
L 96.408324 147.365484 
L 97.014845 144.485484 
L 97.621367 142.325484 
L 98.227889 140.645484 
L 98.834411 140.645484 
L 99.440932 140.885484 
L 100.653976 143.285484 
L 101.260498 143.045484 
L 101.867019 143.525484 
L 102.473541 142.805484 
L 103.080063 142.565484 
L 104.293106 140.165484 
L 104.899628 137.285484 
L 105.50615 139.925484 
L 106.112672 140.165484 
L 106.719193 138.245484 
L 107.932237 135.605484 
L 109.14528 129.125484 
L 112.177889 115.445484 
L 113.390932 108.485484 
L 113.997454 106.805484 
L 115.210498 102.485484 
L 115.817019 100.805484 
L 116.423541 100.805484 
L 117.636585 101.285484 
L 118.243106 102.725484 
L 118.849628 103.445484 
L 120.062672 104.405484 
L 120.669193 105.365484 
L 121.275715 106.565484 
L 121.882237 105.845484 
L 122.488758 112.565484 
L 123.09528 105.605484 
L 124.308324 102.005484 
L 124.914845 101.765484 
L 125.521367 98.885484 
L 126.127889 96.725484 
L 126.734411 95.045484 
L 127.340932 92.405484 
L 128.553976 92.885484 
L 129.160498 91.925484 
L 129.767019 89.285484 
L 130.373541 88.565484 
L 130.980063 86.885484 
L 131.586585 85.685484 
L 132.193106 86.165484 
L 132.799628 86.885484 
L 133.40615 85.685484 
L 134.012672 85.445484 
L 134.619193 84.485484 
L 135.225715 82.325484 
L 135.832237 80.645484 
L 136.438758 79.685484 
L 137.04528 77.285484 
L 137.651802 76.325484 
L 138.864845 75.365484 
L 139.471367 75.365484 
L 140.077889 76.805484 
L 140.684411 77.285484 
L 141.290932 76.325484 
L 141.897454 74.645484 
L 142.503976 72.485484 
L 143.717019 65.045484 
L 144.323541 62.165484 
L 145.536585 54.725484 
L 147.35615 50.405484 
L 148.569193 45.365484 
L 149.175715 41.765484 
L 151.601802 25.205484 
L 152.208324 27.605484 
L 152.814845 29.285484 
L 153.421367 30.485484 
L 154.027889 29.525484 
L 154.634411 29.045484 
L 155.847454 28.565484 
L 156.453976 28.805484 
L 157.060498 29.525484 
L 157.667019 29.525484 
L 158.273541 29.285484 
L 158.880063 29.525484 
L 160.093106 29.045484 
L 173.436585 29.045484 
L 174.043106 30.005484 
L 175.25615 36.725484 
L 175.862672 38.165484 
L 176.469193 38.645484 
L 177.075715 40.325484 
L 177.682237 40.325484 
L 178.288758 40.085484 
L 179.501802 43.205484 
L 180.108324 45.605484 
L 180.714845 47.045484 
L 181.321367 49.685484 
L 181.927889 50.645484 
L 182.534411 50.645484 
L 183.140932 50.885484 
L 183.747454 51.605484 
L 184.353976 50.885484 
L 184.960498 52.085484 
L 185.567019 52.325484 
L 186.173541 51.845484 
L 186.780063 51.845484 
L 187.386585 47.765484 
L 187.993106 51.605484 
L 188.599628 52.805484 
L 189.20615 52.565484 
L 189.812672 52.085484 
L 190.419193 53.525484 
L 191.025715 54.485484 
L 191.632237 54.245484 
L 192.238758 57.125484 
L 192.84528 58.805484 
L 193.451802 59.765484 
L 194.058324 60.485484 
L 194.664845 62.405484 
L 195.271367 61.445484 
L 195.877889 61.925484 
L 196.484411 60.485484 
L 197.090932 59.765484 
L 197.697454 58.805484 
L 198.303976 56.645484 
L 198.910498 56.405484 
L 199.517019 54.725484 
L 200.123541 55.685484 
L 200.730063 56.405484 
L 201.943106 60.965484 
L 202.549628 61.925484 
L 203.15615 63.125484 
L 203.762672 63.365484 
L 204.369193 64.085484 
L 204.975715 64.565484 
L 206.188758 64.085484 
L 206.79528 63.605484 
L 206.79528 63.605484 
" style="fill:none;stroke:#ff9500;stroke-linecap:square;stroke-width:0.7;"/>
   </g>
   <g id="patch_3">
    <path d="M 31.02528 156.305484 
L 31.02528 17.705484 
" style="fill:none;stroke:#000000;stroke-linecap:square;stroke-linejoin:miter;stroke-width:0.5;"/>
   </g>
   <g id="patch_4">
    <path d="M 215.16528 156.305484 
L 215.16528 17.705484 
" style="fill:none;stroke:#000000;stroke-linecap:square;stroke-linejoin:miter;stroke-width:0.5;"/>
   </g>
   <g id="patch_5">
    <path d="M 31.02528 156.305484 
L 215.16528 156.305484 
" style="fill:none;stroke:#000000;stroke-linecap:square;stroke-linejoin:miter;stroke-width:0.5;"/>
   </g>
   <g id="patch_6">
    <path d="M 31.02528 17.705484 
L 215.16528 17.705484 
" style="fill:none;stroke:#000000;stroke-linecap:square;stroke-linejoin:miter;stroke-width:0.5;"/>
   </g>
   <g id="text_10">
    <!-- Subject 1 - Trial 1 -->
    <g transform="translate(79.806054 11.705484)scale(0.12 -0.12)">
     <defs>
      <path d="M 44.703125 67.390625 
L 42.59375 67.390625 
C 42.203125 65.09375 41.09375 63.984375 39.40625 63.984375 
C 38.40625 63.984375 36.703125 64.390625 35 65.1875 
C 31.296875 67.1875 27.59375 68 24.40625 68 
C 20.09375 68 15.703125 66.296875 12.40625 63.390625 
C 8.90625 60.296875 7.09375 56.09375 7.09375 50.890625 
C 7.09375 42.890625 11.5 37.296875 22.703125 31.390625 
C 29.90625 27.59375 35.09375 23.5 37.59375 19.6875 
C 38.5 18.390625 39 16.296875 39 13.890625 
C 39 7.1875 34 2.59375 26.703125 2.59375 
C 17.796875 2.59375 11.5 8.09375 6.5 20.296875 
L 4.203125 20.296875 
L 7.203125 -0.90625 
L 9.40625 -0.90625 
C 9.5 0.59375 10.703125 2 12.203125 2 
C 13.296875 2 15 1.59375 16.90625 0.890625 
C 20.703125 -0.203125 24.703125 -1 28.703125 -1 
C 40.203125 -1 49.09375 6.890625 49.09375 17.1875 
C 49.09375 25.390625 43.59375 31.890625 30.40625 39 
C 19.90625 44.796875 15.703125 49.1875 15.703125 54.59375 
C 15.703125 60.09375 19.90625 63.890625 26.09375 63.890625 
C 30.59375 63.890625 34.796875 62 38.296875 58.390625 
C 41.40625 55.203125 42.796875 52.59375 44.40625 46.6875 
L 46.90625 46.6875 
z
" id="Nimbus_Roman_No9_L_Regular-83"/>
      <path d="M 15.296875 68.09375 
L 14.796875 68.296875 
C 10.59375 66.796875 7.90625 66 3.203125 64.6875 
L 0.296875 63.890625 
L 0.296875 62.296875 
C 0.90625 62.390625 1.296875 62.390625 2 62.390625 
C 6 62.390625 6.90625 61.5 6.90625 57.296875 
L 6.90625 5.390625 
C 6.90625 2.296875 15.40625 -1 23.40625 -1 
C 36.59375 -1 46.796875 9.984375 46.796875 24.296875 
C 46.796875 36.59375 39.203125 46 29.203125 46 
C 23.09375 46 17.296875 42.390625 15.296875 37.484375 
z
M 15.296875 32.1875 
C 15.296875 36.09375 20 39.6875 25.203125 39.6875 
C 33 39.6875 38 31.890625 38 19.6875 
C 38 8.59375 33.203125 2.1875 25 2.1875 
C 19.796875 2.1875 15.296875 4.484375 15.296875 6.984375 
z
" id="Nimbus_Roman_No9_L_Regular-98"/>
      <path d="M 19.296875 45.6875 
L 18.796875 46 
C 12.90625 43.6875 9.09375 42.390625 3.203125 40.578125 
L 3.203125 38.984375 
L 3.703125 39.078125 
C 5.203125 39.28125 6.703125 39.375 7.703125 39.375 
C 10 39.375 10.90625 37.671875 10.90625 33.359375 
L 10.90625 -4.65625 
C 10.90625 -12.28125 10.59375 -14.796875 9.5 -16.796875 
C 8.90625 -17.8125 7.5 -18.609375 6.09375 -18.609375 
C 4.59375 -18.609375 3.59375 -17.90625 1.90625 -15.796875 
C 0.09375 -13.484375 -1.296875 -12.59375 -2.90625 -12.59375 
C -5.203125 -12.59375 -7 -14.296875 -7 -16.5 
C -7 -19.703125 -3 -22 2.40625 -22 
C 13.40625 -22 19.296875 -14.390625 19.296875 -0.140625 
z
M 14.203125 68 
C 11.5 68 9.203125 65.6875 9.203125 62.890625 
C 9.203125 60.09375 11.40625 57.796875 14.203125 57.796875 
C 17.09375 57.796875 19.40625 59.984375 19.40625 62.890625 
C 19.40625 65.6875 17.09375 68 14.203125 68 
z
" id="Nimbus_Roman_No9_L_Regular-106"/>
      <path d="M 3.90625 26 
L 3.90625 19.6875 
L 28.5 19.6875 
L 28.5 26 
z
" id="Nimbus_Roman_No9_L_Regular-45"/>
      <path d="M 0.703125 39 
C 2.09375 39.296875 3 39.390625 4.203125 39.390625 
C 6.703125 39.390625 7.59375 37.796875 7.59375 33.390625 
L 7.59375 8.390625 
C 7.59375 3.390625 6.90625 2.6875 0.5 1.5 
L 0.5 0 
L 24.5 0 
L 24.5 1.5 
C 17.703125 1.796875 16 3.296875 16 9 
L 16 31.5 
C 16 34.6875 20.296875 39.6875 23 39.6875 
C 23.59375 39.6875 24.5 39.1875 25.59375 38.1875 
C 27.203125 36.796875 28.296875 36.1875 29.59375 36.1875 
C 32 36.1875 33.5 37.890625 33.5 40.6875 
C 33.5 43.984375 31.40625 46 28 46 
C 23.796875 46 20.90625 43.6875 16 36.59375 
L 16 45.796875 
L 15.5 46 
C 10.203125 43.796875 6.59375 42.5 0.703125 40.59375 
z
" id="Nimbus_Roman_No9_L_Regular-114"/>
      <path d="M 44.203125 6.59375 
C 42.5 5.1875 41.296875 4.6875 39.796875 4.6875 
C 37.5 4.6875 36.796875 6.09375 36.796875 10.5 
L 36.796875 30 
C 36.796875 35.1875 36.296875 38.09375 34.796875 40.5 
C 32.59375 44.09375 28.296875 46 22.40625 46 
C 13 46 5.59375 41.09375 5.59375 34.796875 
C 5.59375 32.5 7.59375 30.5 9.90625 30.5 
C 12.296875 30.5 14.40625 32.5 14.40625 34.6875 
C 14.40625 35.09375 14.296875 35.59375 14.203125 36.296875 
C 14 37.1875 13.90625 38 13.90625 38.6875 
C 13.90625 41.390625 17.09375 43.59375 21.09375 43.59375 
C 26 43.59375 28.703125 40.6875 28.703125 35.296875 
L 28.703125 29.1875 
C 13.296875 23 11.59375 22.1875 7.296875 18.390625 
C 5.09375 16.390625 3.703125 13 3.703125 9.6875 
C 3.703125 3.390625 8.09375 -1 14.203125 -1 
C 18.59375 -1 22.703125 1.09375 28.796875 6.296875 
C 29.296875 1.09375 31.09375 -1 35.203125 -1 
C 38.59375 -1 40.703125 0.1875 44.203125 4 
z
M 28.703125 12.296875 
C 28.703125 9.1875 28.203125 8.296875 26.09375 7.09375 
C 23.703125 5.6875 20.90625 4.796875 18.796875 4.796875 
C 15.296875 4.796875 12.5 8.1875 12.5 12.5 
L 12.5 12.890625 
C 12.5 18.796875 16.59375 22.390625 28.703125 26.796875 
z
" id="Nimbus_Roman_No9_L_Regular-97"/>
     </defs>
     <use transform="scale(0.996264)" xlink:href="#Nimbus_Roman_No9_L_Regular-83"/>
     <use transform="translate(55.391677 0)scale(0.996264)" xlink:href="#Nimbus_Roman_No9_L_Regular-117"/>
     <use transform="translate(105.204877 0)scale(0.996264)" xlink:href="#Nimbus_Roman_No9_L_Regular-98"/>
     <use transform="translate(155.018078 0)scale(0.996264)" xlink:href="#Nimbus_Roman_No9_L_Regular-106"/>
     <use transform="translate(182.713248 0)scale(0.996264)" xlink:href="#Nimbus_Roman_No9_L_Regular-101"/>
     <use transform="translate(226.946816 0)scale(0.996264)" xlink:href="#Nimbus_Roman_No9_L_Regular-99"/>
     <use transform="translate(271.180385 0)scale(0.996264)" xlink:href="#Nimbus_Roman_No9_L_Regular-116"/>
     <use transform="translate(323.782155 0)scale(0.996264)" xlink:href="#Nimbus_Roman_No9_L_Regular-49"/>
     <use transform="translate(398.501956 0)scale(0.996264)" xlink:href="#Nimbus_Roman_No9_L_Regular-45"/>
     <use transform="translate(456.583786 0)scale(0.996264)" xlink:href="#Nimbus_Roman_No9_L_Regular-84"/>
     <use transform="translate(513.96869 0)scale(0.996264)" xlink:href="#Nimbus_Roman_No9_L_Regular-114"/>
     <use transform="translate(547.14392 0)scale(0.996264)" xlink:href="#Nimbus_Roman_No9_L_Regular-105"/>
     <use transform="translate(574.839089 0)scale(0.996264)" xlink:href="#Nimbus_Roman_No9_L_Regular-97"/>
     <use transform="translate(619.072658 0)scale(0.996264)" xlink:href="#Nimbus_Roman_No9_L_Regular-108"/>
     <use transform="translate(671.674428 0)scale(0.996264)" xlink:href="#Nimbus_Roman_No9_L_Regular-49"/>
    </g>
   </g>
   <g id="legend_1">
    <g id="line2d_78">
     <path d="M 38.52228 28.616482 
L 55.18228 28.616482 
" style="fill:none;stroke:#0c5da5;stroke-linecap:square;stroke-width:0.7;"/>
    </g>
    <g id="line2d_79"/>
    <g id="text_11">
     <!-- Ground Truth -->
     <g transform="translate(61.84628 31.531982)scale(0.0833 -0.0833)">
      <defs>
       <path d="M 1.59375 39.796875 
C 2.203125 40.09375 3.203125 40.1875 4.296875 40.1875 
C 7.09375 40.1875 8 38.6875 8 33.796875 
L 8 9 
C 8 3.296875 6.90625 1.890625 1.796875 1.5 
L 1.796875 0 
L 23 0 
L 23 1.5 
C 17.90625 1.890625 16.40625 3.09375 16.40625 6.6875 
L 16.40625 34.796875 
C 21.203125 39.296875 23.40625 40.484375 26.703125 40.484375 
C 31.59375 40.484375 34 37.390625 34 30.796875 
L 34 9.890625 
C 34 3.59375 32.703125 1.890625 27.703125 1.5 
L 27.703125 0 
L 48.5 0 
L 48.5 1.5 
C 43.59375 2 42.40625 3.1875 42.40625 8.09375 
L 42.40625 31 
C 42.40625 40.390625 38 46 30.59375 46 
C 26 46 22.90625 44.296875 16.09375 37.890625 
L 16.09375 45.796875 
L 15.40625 46 
C 10.5 44.1875 7.09375 43.09375 1.59375 41.484375 
z
" id="Nimbus_Roman_No9_L_Regular-110"/>
       <path d="M 34.40625 -1 
L 49.09375 4.1875 
L 49.09375 5.796875 
C 47.296875 5.6875 47.09375 5.6875 46.796875 5.6875 
C 43.203125 5.6875 42.40625 6.796875 42.40625 11.390625 
L 42.40625 68.09375 
L 41.90625 68.296875 
C 37.09375 66.59375 33.59375 65.59375 27.203125 63.890625 
L 27.203125 62.296875 
C 28 62.390625 28.59375 62.390625 29.40625 62.390625 
C 33.09375 62.390625 34 61.390625 34 57.296875 
L 34 41.6875 
C 30.203125 44.890625 27.5 46 23.5 46 
C 12 46 2.703125 34.6875 2.703125 20.5 
C 2.703125 7.6875 10.203125 -1 21.203125 -1 
C 26.796875 -1 30.59375 1 34 5.6875 
L 34 -0.703125 
z
M 34 10.1875 
C 34 9.5 33.296875 8.296875 32.296875 7.1875 
C 30.5 5.1875 28 4.1875 25.09375 4.1875 
C 16.796875 4.1875 11.296875 12.1875 11.296875 24.5 
C 11.296875 35.796875 16.203125 43.1875 23.796875 43.1875 
C 29.09375 43.1875 34 38.5 34 33.1875 
z
" id="Nimbus_Roman_No9_L_Regular-100"/>
       <path d="M 15.703125 34.296875 
C 19.90625 38.890625 22.90625 40.59375 26.796875 40.59375 
C 31.796875 40.59375 34.296875 37 34.296875 30 
L 34.296875 10.1875 
C 34.296875 3.390625 33.296875 2.09375 27.5 1.5 
L 27.5 0 
L 48.703125 0 
L 48.703125 1.5 
C 43.296875 2.5 42.703125 3.296875 42.703125 10.1875 
L 42.703125 30.09375 
C 42.703125 40.59375 38.5 46 30.40625 46 
C 24.5 46 20.296875 43.59375 15.703125 37.59375 
L 15.703125 68 
L 15.203125 68.296875 
C 11.796875 67.09375 9.296875 66.296875 3.703125 64.6875 
L 1 63.890625 
L 1 62.296875 
C 1.40625 62.390625 1.703125 62.390625 2.203125 62.390625 
C 6.5 62.390625 7.296875 61.59375 7.296875 57.296875 
L 7.296875 10.1875 
C 7.296875 3.1875 6.703125 2.296875 0.90625 1.5 
L 0.90625 0 
L 22.5 0 
L 22.5 1.5 
C 16.703125 2.09375 15.703125 3.296875 15.703125 10.1875 
z
" id="Nimbus_Roman_No9_L_Regular-104"/>
      </defs>
      <use transform="scale(0.996264)" xlink:href="#Nimbus_Roman_No9_L_Regular-71"/>
      <use transform="translate(71.929985 0)scale(0.996264)" xlink:href="#Nimbus_Roman_No9_L_Regular-114"/>
      <use transform="translate(105.105215 0)scale(0.996264)" xlink:href="#Nimbus_Roman_No9_L_Regular-111"/>
      <use transform="translate(154.918415 0)scale(0.996264)" xlink:href="#Nimbus_Roman_No9_L_Regular-117"/>
      <use transform="translate(204.731616 0)scale(0.996264)" xlink:href="#Nimbus_Roman_No9_L_Regular-110"/>
      <use transform="translate(254.544816 0)scale(0.996264)" xlink:href="#Nimbus_Roman_No9_L_Regular-100"/>
      <use transform="translate(329.264617 0)scale(0.996264)" xlink:href="#Nimbus_Roman_No9_L_Regular-84"/>
      <use transform="translate(386.649521 0)scale(0.996264)" xlink:href="#Nimbus_Roman_No9_L_Regular-114"/>
      <use transform="translate(419.824751 0)scale(0.996264)" xlink:href="#Nimbus_Roman_No9_L_Regular-117"/>
      <use transform="translate(469.637951 0)scale(0.996264)" xlink:href="#Nimbus_Roman_No9_L_Regular-116"/>
      <use transform="translate(497.333121 0)scale(0.996264)" xlink:href="#Nimbus_Roman_No9_L_Regular-104"/>
     </g>
    </g>
    <g id="line2d_80">
     <path d="M 38.52228 40.907619 
L 55.18228 40.907619 
" style="fill:none;stroke:#00b945;stroke-linecap:square;stroke-width:0.7;"/>
    </g>
    <g id="line2d_81"/>
    <g id="text_12">
     <!-- Software (float) -->
     <g transform="translate(61.84628 43.823119)scale(0.0833 -0.0833)">
      <defs>
       <path d="M 30.90625 45 
L 18.59375 45 
L 18.59375 56.421875 
C 18.59375 62.140625 20.5 65.1875 24.296875 65.1875 
C 26.40625 65.1875 27.796875 64.203125 29.59375 61.34375 
C 31.203125 58.78125 32.40625 57.796875 34.09375 57.796875 
C 36.40625 57.796875 38.296875 59.578125 38.296875 61.84375 
C 38.296875 65.390625 33.90625 68 27.90625 68 
C 21.703125 68 16.40625 65.296875 13.796875 60.765625 
C 11.203125 56.421875 10.40625 52.875 10.296875 45 
L 2.09375 45 
L 2.09375 41.796875 
L 10.296875 41.796875 
L 10.296875 10.390625 
C 10.296875 3.09375 9.203125 1.890625 2 1.5 
L 2 0 
L 28 0 
L 28 1.5 
C 19.796875 1.796875 18.703125 2.890625 18.703125 10.390625 
L 18.703125 41.796875 
L 30.90625 41.796875 
z
" id="Nimbus_Roman_No9_L_Regular-102"/>
       <path d="M 57.09375 45 
L 57.09375 43.484375 
C 60.5 42.796875 61.5 42.109375 61.5 40.421875 
C 61.5 38.9375 60.90625 36.5625 59.796875 33.875 
L 50.796875 11.890625 
L 42.40625 34.078125 
C 40.703125 38.640625 40.703125 38.640625 40.703125 39.921875 
C 40.703125 42.109375 41.796875 42.796875 46.5 43.484375 
L 46.5 45 
L 26.203125 45 
L 26.203125 43.484375 
C 29.90625 43.09375 31.09375 42 33.09375 36.65625 
C 33.796875 34.765625 34.5 32.890625 35.09375 31.109375 
L 26 11.390625 
L 16.09375 37.25 
C 15.703125 38.234375 15.5 39.234375 15.5 40.21875 
C 15.5 42.296875 16.703125 43.09375 20.09375 43.484375 
L 20.09375 45 
L 2.09375 45 
L 2.09375 43.484375 
C 4.40625 43.296875 5.203125 42.296875 7.40625 37.25 
L 20.90625 3.375 
C 22.09375 0.390625 22.90625 -1 23.5 -1 
C 24 -1 24.796875 0.296875 26 2.875 
L 37.203125 26.65625 
L 46.296875 3.265625 
C 47.703125 -0.40625 48.09375 -1 48.703125 -1 
C 49.40625 -1 49.90625 -0.109375 51.5 3.859375 
L 65.296875 38.140625 
C 67.09375 42.296875 67.40625 42.796875 69.40625 43.484375 
L 69.40625 45 
z
" id="Nimbus_Roman_No9_L_Regular-119"/>
       <path d="M 3.203125 41.796875 
L 10.09375 41.796875 
L 10.09375 10.5 
C 10.09375 6 9.5 3.5 8.09375 2.59375 
C 7.09375 1.890625 6.09375 1.6875 3.203125 1.5 
L 3.203125 0 
L 25.59375 0 
L 25.59375 1.5 
C 19.90625 2.09375 18.5 3.296875 18.5 7.890625 
L 18.5 41.796875 
L 37.296875 41.796875 
L 37.296875 8.390625 
C 37.296875 3.5 35.796875 1.890625 30.59375 1.5 
L 30.59375 0 
L 52.09375 0 
L 52.09375 1.5 
C 46.703125 1.890625 45.703125 2.890625 45.703125 8.09375 
L 45.703125 67.6875 
L 45.203125 67.890625 
C 44.40625 67.796875 43.296875 67.390625 42.09375 66.796875 
C 40.203125 65.890625 38.796875 65.390625 37.90625 65.390625 
C 37.40625 65.390625 36.40625 65.6875 34.90625 66.1875 
C 32.09375 67.390625 29.203125 68 26.796875 68 
C 22.09375 68 17.5 65.59375 14.703125 61.75 
C 11.703125 57.5 10.703125 53.65625 10.296875 45 
L 3.203125 45 
z
M 37.296875 45 
L 18.5 45 
L 18.5 50.109375 
C 18.5 60.359375 20.59375 65.296875 25 65.296875 
C 27.203125 65.296875 28.40625 64.5 30.203125 61.84375 
C 32.09375 58.890625 33.40625 58 35.703125 58 
C 36.40625 58 36.796875 58.1875 37.296875 58.6875 
z
" id="Nimbus_Roman_No9_L_Regular-3"/>
      </defs>
      <use transform="scale(0.996264)" xlink:href="#Nimbus_Roman_No9_L_Regular-83"/>
      <use transform="translate(55.391677 0)scale(0.996264)" xlink:href="#Nimbus_Roman_No9_L_Regular-111"/>
      <use transform="translate(105.204877 0)scale(0.996264)" xlink:href="#Nimbus_Roman_No9_L_Regular-102"/>
      <use transform="translate(138.380107 0)scale(0.996264)" xlink:href="#Nimbus_Roman_No9_L_Regular-116"/>
      <use transform="translate(166.075277 0)scale(0.996264)" xlink:href="#Nimbus_Roman_No9_L_Regular-119"/>
      <use transform="translate(237.009165 0)scale(0.996264)" xlink:href="#Nimbus_Roman_No9_L_Regular-97"/>
      <use transform="translate(281.242734 0)scale(0.996264)" xlink:href="#Nimbus_Roman_No9_L_Regular-114"/>
      <use transform="translate(314.417963 0)scale(0.996264)" xlink:href="#Nimbus_Roman_No9_L_Regular-101"/>
      <use transform="translate(383.558132 0)scale(0.996264)" xlink:href="#Nimbus_Roman_No9_L_Regular-40"/>
      <use transform="translate(416.733362 0)scale(0.996264)" xlink:href="#Nimbus_Roman_No9_L_Regular-3"/>
      <use transform="translate(472.125039 0)scale(0.996264)" xlink:href="#Nimbus_Roman_No9_L_Regular-111"/>
      <use transform="translate(521.938239 0)scale(0.996264)" xlink:href="#Nimbus_Roman_No9_L_Regular-97"/>
      <use transform="translate(566.171808 0)scale(0.996264)" xlink:href="#Nimbus_Roman_No9_L_Regular-116"/>
      <use transform="translate(593.866978 0)scale(0.996264)" xlink:href="#Nimbus_Roman_No9_L_Regular-41"/>
     </g>
    </g>
    <g id="line2d_82">
     <path d="M 38.52228 53.198755 
L 55.18228 53.198755 
" style="fill:none;stroke:#ff9500;stroke-linecap:square;stroke-width:0.7;"/>
    </g>
    <g id="line2d_83"/>
    <g id="text_13">
     <!-- FPGA (fixed-point) -->
     <g transform="translate(61.84628 56.114255)scale(0.0833 -0.0833)">
      <defs>
       <path d="M 47.90625 23.296875 
L 47.90625 46.34375 
L 45.59375 46.34375 
C 44.40625 38.46875 42.59375 37 34.59375 37 
L 20.09375 37 
L 20.09375 58.84375 
C 20.09375 61.59375 20.59375 62.1875 23.296875 62.1875 
L 36.90625 62.1875 
C 48.203125 62.1875 50.40625 60.71875 52.09375 51.859375 
L 54.59375 51.859375 
L 54.296875 66 
L 1.203125 66 
L 1.203125 64.09375 
C 8.59375 63.5 9.90625 62.125 9.90625 55.21875 
L 9.90625 12.0625 
C 9.90625 3.703125 8.796875 2.390625 1.203125 1.890625 
L 1.203125 0 
L 29.203125 0 
L 29.203125 1.890625 
C 21.5 2.296875 20.09375 3.703125 20.09375 10.953125 
L 20.09375 32.890625 
L 34.59375 32.890625 
C 42.703125 32.890625 44.40625 31.375 45.59375 23.234375 
z
" id="Nimbus_Roman_No9_L_Regular-70"/>
       <path d="M 20.203125 29.296875 
C 22.796875 29.09375 24.5 28.984375 27.09375 28.984375 
C 34.90625 28.984375 40.296875 29.984375 44.59375 32.390625 
C 50.59375 35.5625 54.203125 41.578125 54.203125 48.078125 
C 54.203125 52.234375 52.796875 55.984375 50.09375 58.84375 
C 46.09375 63.1875 37.40625 66 28 66 
L 1.59375 66 
L 1.59375 64.09375 
C 9 63.296875 10 62.296875 10 55.125 
L 10 11.953125 
C 10 3.59375 9.203125 2.59375 1.59375 1.890625 
L 1.59375 0 
L 29.59375 0 
L 29.59375 1.890625 
C 21.703125 2.1875 20.203125 3.59375 20.203125 10.859375 
z
M 20.203125 58.9375 
C 20.203125 61.59375 20.90625 62.296875 23.59375 62.296875 
C 37.09375 62.296875 43.296875 57.65625 43.296875 47.5 
C 43.296875 37.921875 37.40625 33 25.90625 33 
C 23.90625 33 22.5 33.09375 20.203125 33.28125 
z
" id="Nimbus_Roman_No9_L_Regular-80"/>
       <path d="M 70.59375 1.890625 
C 66.09375 2.203125 65.09375 3.203125 61.59375 10.71875 
L 36.703125 67 
L 34.703125 67 
L 13.90625 18.546875 
C 7.5 3.71875 6.296875 2.09375 1.5 1.890625 
L 1.5 0 
L 21.296875 0 
L 21.296875 1.890625 
C 16.5 1.890625 14.5 3.203125 14.5 6.046875 
C 14.5 7.265625 14.796875 8.6875 15.296875 10.015625 
L 19.90625 21.890625 
L 46.09375 21.890625 
L 50.203125 12.140625 
C 51.40625 9.40625 52.09375 6.765625 52.09375 5.34375 
C 52.09375 2.796875 50.40625 2 45.09375 1.890625 
L 45.09375 0 
L 70.59375 0 
z
M 21.59375 26 
L 33.09375 53 
L 44.703125 26 
z
" id="Nimbus_Roman_No9_L_Regular-65"/>
       <path d="M 3.09375 41.6875 
L 9.90625 41.6875 
L 9.90625 9.390625 
C 9.90625 3 8.796875 1.6875 3.203125 1.5 
L 3.203125 0 
L 25.203125 0 
L 25.203125 1.5 
C 19.59375 1.890625 18.296875 3.296875 18.296875 8.796875 
L 18.296875 41.6875 
L 26.90625 41.6875 
C 36.5 41.6875 37 41.390625 37 36.09375 
L 37 9.6875 
C 37 2.890625 36.296875 2 30.09375 1.5 
L 30.09375 0 
L 52.09375 0 
L 52.09375 1.5 
C 46.5 2 45.40625 3.296875 45.40625 9.6875 
L 45.40625 35.890625 
C 45.40625 38.09375 45.40625 40.390625 45.59375 45.6875 
L 45.203125 46 
C 40.796875 45.28125 37.90625 45 33.90625 45 
L 18.203125 45 
L 18.203125 49.234375 
C 18.203125 53.5625 18.5 56.625 19 58.296875 
C 20.40625 62.53125 24.296875 65.484375 28.796875 65.484375 
C 31.59375 65.484375 33.5 64.203125 35.90625 60.859375 
C 37.796875 58.203125 39.09375 57.21875 40.796875 57.21875 
C 42.90625 57.21875 44.40625 58.890625 44.40625 61.0625 
C 44.40625 65.203125 39.40625 68 31.703125 68 
C 24.09375 68 18.296875 65.390625 14.703125 60.5625 
C 11.703125 56.515625 10.59375 52.875 10 45 
L 3.09375 45 
z
" id="Nimbus_Roman_No9_L_Regular-2"/>
       <path d="M 27.796875 0 
L 47.90625 0 
L 47.90625 1.5 
C 44.796875 1.5 42.796875 3.09375 39.703125 7.5 
L 26.90625 27.09375 
L 35.203125 39.09375 
C 37.09375 41.796875 40.09375 43.390625 43.296875 43.484375 
L 43.296875 45 
L 27.5 45 
L 27.5 43.484375 
C 30.5 43.296875 31.5 42.6875 31.5 41.296875 
C 31.5 40.09375 30.296875 37.890625 27.796875 34.796875 
C 27.296875 34.1875 26.09375 32.390625 24.796875 30.390625 
L 23.40625 32.390625 
C 20.59375 36.59375 18.796875 40 18.796875 41.296875 
C 18.796875 42.6875 20.09375 43.390625 23.09375 43.484375 
L 23.09375 45 
L 2.40625 45 
L 2.40625 43.484375 
L 3.296875 43.484375 
C 6.296875 43.484375 7.90625 42.1875 11 37.5 
L 20.40625 23.09375 
L 9 6.59375 
C 6 2.5 5 1.796875 1.703125 1.5 
L 1.703125 0 
L 16.203125 0 
L 16.203125 1.5 
C 13.40625 1.5 12.203125 2 12.203125 3.296875 
C 12.203125 3.890625 12.90625 5.390625 14.203125 7.390625 
L 22.09375 19.6875 
L 31.203125 5.6875 
C 31.59375 5.09375 31.796875 4.5 31.796875 3.890625 
C 31.796875 2.09375 31.09375 1.6875 27.796875 1.5 
z
" id="Nimbus_Roman_No9_L_Regular-120"/>
      </defs>
      <use transform="scale(0.996264)" xlink:href="#Nimbus_Roman_No9_L_Regular-70"/>
      <use transform="translate(55.391677 0)scale(0.996264)" xlink:href="#Nimbus_Roman_No9_L_Regular-80"/>
      <use transform="translate(110.783354 0)scale(0.996264)" xlink:href="#Nimbus_Roman_No9_L_Regular-71"/>
      <use transform="translate(182.713339 0)scale(0.996264)" xlink:href="#Nimbus_Roman_No9_L_Regular-65"/>
      <use transform="translate(279.549924 0)scale(0.996264)" xlink:href="#Nimbus_Roman_No9_L_Regular-40"/>
      <use transform="translate(312.725154 0)scale(0.996264)" xlink:href="#Nimbus_Roman_No9_L_Regular-2"/>
      <use transform="translate(368.116831 0)scale(0.996264)" xlink:href="#Nimbus_Roman_No9_L_Regular-120"/>
      <use transform="translate(416.436638 0)scale(0.996264)" xlink:href="#Nimbus_Roman_No9_L_Regular-101"/>
      <use transform="translate(460.670207 0)scale(0.996264)" xlink:href="#Nimbus_Roman_No9_L_Regular-100"/>
      <use transform="translate(510.483408 0)scale(0.996264)" xlink:href="#Nimbus_Roman_No9_L_Regular-45"/>
      <use transform="translate(543.658637 0)scale(0.996264)" xlink:href="#Nimbus_Roman_No9_L_Regular-112"/>
      <use transform="translate(593.471838 0)scale(0.996264)" xlink:href="#Nimbus_Roman_No9_L_Regular-111"/>
      <use transform="translate(643.285038 0)scale(0.996264)" xlink:href="#Nimbus_Roman_No9_L_Regular-105"/>
      <use transform="translate(670.980208 0)scale(0.996264)" xlink:href="#Nimbus_Roman_No9_L_Regular-110"/>
      <use transform="translate(720.793408 0)scale(0.996264)" xlink:href="#Nimbus_Roman_No9_L_Regular-116"/>
      <use transform="translate(748.488578 0)scale(0.996264)" xlink:href="#Nimbus_Roman_No9_L_Regular-41"/>
     </g>
    </g>
   </g>
  </g>
 </g>
 <defs>
  <clipPath id="p71643f9aff">
   <rect height="138.6" width="184.14" x="31.02528" y="17.705484"/>
  </clipPath>
 </defs>
</svg>
