<?xml version="1.0" encoding="utf-8" standalone="no"?>
<!DOCTYPE svg PUBLIC "-//W3C//DTD SVG 1.1//EN"
  "http://www.w3.org/Graphics/SVG/1.1/DTD/svg11.dtd">
<!-- Created with matplotlib (https://matplotlib.org/) -->
<svg height="185.228297pt" version="1.1" viewBox="0 0 222.097585 185.228297" width="222.097585pt" xmlns="http://www.w3.org/2000/svg" xmlns:xlink="http://www.w3.org/1999/xlink">
 <metadata>
  <rdf:RDF xmlns:cc="http://creativecommons.org/ns#" xmlns:dc="http://purl.org/dc/elements/1.1/" xmlns:rdf="http://www.w3.org/1999/02/22-rdf-syntax-ns#">
   <cc:Work>
    <dc:type rdf:resource="http://purl.org/dc/dcmitype/StillImage"/>
    <dc:date>2022-02-03T12:02:25.774454</dc:date>
    <dc:format>image/svg+xml</dc:format>
    <dc:creator>
     <cc:Agent>
      <dc:title>Matplotlib v3.3.4, https://matplotlib.org/</dc:title>
     </cc:Agent>
    </dc:creator>
   </cc:Work>
  </rdf:RDF>
 </metadata>
 <defs>
  <style type="text/css">*{stroke-linecap:butt;stroke-linejoin:round;}</style>
 </defs>
 <g id="figure_1">
  <g id="patch_1">
   <path d="M 0 185.228297 
L 222.097585 185.228297 
L 222.097585 0 
L 0 0 
z
" style="fill:#ffffff;"/>
  </g>
  <g id="axes_1">
   <g id="patch_2">
    <path d="M 31.02528 156.305484 
L 215.16528 156.305484 
L 215.16528 17.705484 
L 31.02528 17.705484 
z
" style="fill:#ffffff;"/>
   </g>
   <g id="matplotlib.axis_1">
    <g id="xtick_1">
     <g id="line2d_1">
      <defs>
       <path d="M 0 0 
L 0 -3 
" id="me77cf2e5b5" style="stroke:#000000;stroke-width:0.5;"/>
      </defs>
      <g>
       <use style="stroke:#000000;stroke-width:0.5;" x="90.159179" xlink:href="#me77cf2e5b5" y="156.305484"/>
      </g>
     </g>
     <g id="line2d_2">
      <defs>
       <path d="M 0 0 
L 0 3 
" id="m5c12df9cbe" style="stroke:#000000;stroke-width:0.5;"/>
      </defs>
      <g>
       <use style="stroke:#000000;stroke-width:0.5;" x="90.159179" xlink:href="#m5c12df9cbe" y="17.705484"/>
      </g>
     </g>
     <g id="text_1">
      <!-- $\mathdefault{100}$ -->
      <g transform="translate(82.687199 166.560062)scale(0.1 -0.1)">
       <defs>
        <path d="M 29.09375 68 
L 11.09375 59 
L 11.09375 57.59375 
C 12.296875 58.09375 13.40625 58.484375 13.796875 58.6875 
C 15.59375 59.390625 17.296875 59.78125 18.296875 59.78125 
C 20.40625 59.78125 21.296875 58.296875 21.296875 55.078125 
L 21.296875 9.359375 
C 21.296875 6.03125 20.5 3.71875 18.90625 2.796875 
C 17.40625 1.890625 16 1.59375 11.796875 1.5 
L 11.796875 0 
L 39.40625 0 
L 39.40625 1.5 
C 31.5 1.59375 29.90625 2.609375 29.90625 7.453125 
L 29.90625 67.796875 
z
" id="Nimbus_Roman_No9_L_Regular-49"/>
        <path d="M 25.40625 68 
C 19.90625 68 15.703125 66.296875 12 62.796875 
C 6.203125 57.203125 2.40625 45.6875 2.40625 34 
C 2.40625 23.09375 5.703125 11.390625 10.40625 5.796875 
C 14.09375 1.390625 19.203125 -1 25 -1 
C 30.09375 -1 34.40625 0.6875 38 4.1875 
C 43.796875 9.6875 47.59375 21.296875 47.59375 33.390625 
C 47.59375 53.890625 38.5 68 25.40625 68 
z
M 25.09375 65.390625 
C 33.5 65.390625 38 54.09375 38 33.1875 
C 38 12.296875 33.59375 1.59375 25 1.59375 
C 16.40625 1.59375 12 12.296875 12 33.09375 
C 12 54.296875 16.5 65.390625 25.09375 65.390625 
z
" id="Nimbus_Roman_No9_L_Regular-48"/>
       </defs>
       <use transform="scale(0.996264)" xlink:href="#Nimbus_Roman_No9_L_Regular-49"/>
       <use transform="translate(49.8132 0)scale(0.996264)" xlink:href="#Nimbus_Roman_No9_L_Regular-48"/>
       <use transform="translate(99.626401 0)scale(0.996264)" xlink:href="#Nimbus_Roman_No9_L_Regular-48"/>
      </g>
     </g>
    </g>
    <g id="xtick_2">
     <g id="line2d_3">
      <g>
       <use style="stroke:#000000;stroke-width:0.5;" x="150.592392" xlink:href="#me77cf2e5b5" y="156.305484"/>
      </g>
     </g>
     <g id="line2d_4">
      <g>
       <use style="stroke:#000000;stroke-width:0.5;" x="150.592392" xlink:href="#m5c12df9cbe" y="17.705484"/>
      </g>
     </g>
     <g id="text_2">
      <!-- $\mathdefault{200}$ -->
      <g transform="translate(143.120412 166.560062)scale(0.1 -0.1)">
       <defs>
        <path d="M 47.5 13.734375 
L 46.203125 14.25 
C 42.5 8.5 41.203125 7.59375 36.703125 7.59375 
L 12.796875 7.59375 
L 29.59375 25.328125 
C 38.5 34.703125 42.40625 42.359375 42.40625 50.21875 
C 42.40625 60.28125 34.296875 68 23.90625 68 
C 18.40625 68 13.203125 65.796875 9.5 61.796875 
C 6.296875 58.375 4.796875 55.15625 3.09375 48 
L 5.203125 47.484375 
C 9.203125 57.359375 12.796875 60.59375 19.703125 60.59375 
C 28.09375 60.59375 33.796875 54.84375 33.796875 46.390625 
C 33.796875 38.53125 29.203125 29.15625 20.796875 20.1875 
L 3 1.1875 
L 3 0 
L 42 0 
z
" id="Nimbus_Roman_No9_L_Regular-50"/>
       </defs>
       <use transform="scale(0.996264)" xlink:href="#Nimbus_Roman_No9_L_Regular-50"/>
       <use transform="translate(49.8132 0)scale(0.996264)" xlink:href="#Nimbus_Roman_No9_L_Regular-48"/>
       <use transform="translate(99.626401 0)scale(0.996264)" xlink:href="#Nimbus_Roman_No9_L_Regular-48"/>
      </g>
     </g>
    </g>
    <g id="xtick_3">
     <g id="line2d_5">
      <g>
       <use style="stroke:#000000;stroke-width:0.5;" x="211.025605" xlink:href="#me77cf2e5b5" y="156.305484"/>
      </g>
     </g>
     <g id="line2d_6">
      <g>
       <use style="stroke:#000000;stroke-width:0.5;" x="211.025605" xlink:href="#m5c12df9cbe" y="17.705484"/>
      </g>
     </g>
     <g id="text_3">
      <!-- $\mathdefault{300}$ -->
      <g transform="translate(203.553625 166.560062)scale(0.1 -0.1)">
       <defs>
        <path d="M 15.296875 33.390625 
C 21.203125 33.390625 23.5 33.1875 25.90625 32.296875 
C 32.09375 30.09375 36 24.390625 36 17.5 
C 36 9.09375 30.296875 2.59375 22.90625 2.59375 
C 20.203125 2.59375 18.203125 3.296875 14.5 5.6875 
C 11.5 7.5 9.796875 8.1875 8.09375 8.1875 
C 5.796875 8.1875 4.296875 6.796875 4.296875 4.6875 
C 4.296875 1.1875 8.59375 -1 15.59375 -1 
C 23.296875 -1 31.203125 1.59375 35.90625 5.6875 
C 40.59375 9.796875 43.203125 15.59375 43.203125 22.296875 
C 43.203125 27.390625 41.59375 32.09375 38.703125 35.1875 
C 36.703125 37.390625 34.796875 38.59375 30.40625 40.5 
C 37.296875 45.1875 39.796875 48.890625 39.796875 54.296875 
C 39.796875 62.390625 33.40625 68 24.203125 68 
C 19.203125 68 14.796875 66.296875 11.203125 63.09375 
C 8.203125 60.390625 6.703125 57.796875 4.5 51.796875 
L 6 51.390625 
C 10.09375 58.703125 14.59375 61.984375 20.90625 61.984375 
C 27.40625 61.984375 31.90625 57.59375 31.90625 51.296875 
C 31.90625 47.6875 30.40625 44.09375 27.90625 41.59375 
C 24.90625 38.59375 22.09375 37.09375 15.296875 34.6875 
z
" id="Nimbus_Roman_No9_L_Regular-51"/>
       </defs>
       <use transform="scale(0.996264)" xlink:href="#Nimbus_Roman_No9_L_Regular-51"/>
       <use transform="translate(49.8132 0)scale(0.996264)" xlink:href="#Nimbus_Roman_No9_L_Regular-48"/>
       <use transform="translate(99.626401 0)scale(0.996264)" xlink:href="#Nimbus_Roman_No9_L_Regular-48"/>
      </g>
     </g>
    </g>
    <g id="xtick_4">
     <g id="line2d_7">
      <defs>
       <path d="M 0 0 
L 0 -1.5 
" id="mfc7b9b76a5" style="stroke:#000000;stroke-width:0.5;"/>
      </defs>
      <g>
       <use style="stroke:#000000;stroke-width:0.5;" x="41.812609" xlink:href="#mfc7b9b76a5" y="156.305484"/>
      </g>
     </g>
     <g id="line2d_8">
      <defs>
       <path d="M 0 0 
L 0 1.5 
" id="m98c5b86442" style="stroke:#000000;stroke-width:0.5;"/>
      </defs>
      <g>
       <use style="stroke:#000000;stroke-width:0.5;" x="41.812609" xlink:href="#m98c5b86442" y="17.705484"/>
      </g>
     </g>
    </g>
    <g id="xtick_5">
     <g id="line2d_9">
      <g>
       <use style="stroke:#000000;stroke-width:0.5;" x="53.899251" xlink:href="#mfc7b9b76a5" y="156.305484"/>
      </g>
     </g>
     <g id="line2d_10">
      <g>
       <use style="stroke:#000000;stroke-width:0.5;" x="53.899251" xlink:href="#m98c5b86442" y="17.705484"/>
      </g>
     </g>
    </g>
    <g id="xtick_6">
     <g id="line2d_11">
      <g>
       <use style="stroke:#000000;stroke-width:0.5;" x="65.985894" xlink:href="#mfc7b9b76a5" y="156.305484"/>
      </g>
     </g>
     <g id="line2d_12">
      <g>
       <use style="stroke:#000000;stroke-width:0.5;" x="65.985894" xlink:href="#m98c5b86442" y="17.705484"/>
      </g>
     </g>
    </g>
    <g id="xtick_7">
     <g id="line2d_13">
      <g>
       <use style="stroke:#000000;stroke-width:0.5;" x="78.072537" xlink:href="#mfc7b9b76a5" y="156.305484"/>
      </g>
     </g>
     <g id="line2d_14">
      <g>
       <use style="stroke:#000000;stroke-width:0.5;" x="78.072537" xlink:href="#m98c5b86442" y="17.705484"/>
      </g>
     </g>
    </g>
    <g id="xtick_8">
     <g id="line2d_15">
      <g>
       <use style="stroke:#000000;stroke-width:0.5;" x="102.245822" xlink:href="#mfc7b9b76a5" y="156.305484"/>
      </g>
     </g>
     <g id="line2d_16">
      <g>
       <use style="stroke:#000000;stroke-width:0.5;" x="102.245822" xlink:href="#m98c5b86442" y="17.705484"/>
      </g>
     </g>
    </g>
    <g id="xtick_9">
     <g id="line2d_17">
      <g>
       <use style="stroke:#000000;stroke-width:0.5;" x="114.332464" xlink:href="#mfc7b9b76a5" y="156.305484"/>
      </g>
     </g>
     <g id="line2d_18">
      <g>
       <use style="stroke:#000000;stroke-width:0.5;" x="114.332464" xlink:href="#m98c5b86442" y="17.705484"/>
      </g>
     </g>
    </g>
    <g id="xtick_10">
     <g id="line2d_19">
      <g>
       <use style="stroke:#000000;stroke-width:0.5;" x="126.419107" xlink:href="#mfc7b9b76a5" y="156.305484"/>
      </g>
     </g>
     <g id="line2d_20">
      <g>
       <use style="stroke:#000000;stroke-width:0.5;" x="126.419107" xlink:href="#m98c5b86442" y="17.705484"/>
      </g>
     </g>
    </g>
    <g id="xtick_11">
     <g id="line2d_21">
      <g>
       <use style="stroke:#000000;stroke-width:0.5;" x="138.50575" xlink:href="#mfc7b9b76a5" y="156.305484"/>
      </g>
     </g>
     <g id="line2d_22">
      <g>
       <use style="stroke:#000000;stroke-width:0.5;" x="138.50575" xlink:href="#m98c5b86442" y="17.705484"/>
      </g>
     </g>
    </g>
    <g id="xtick_12">
     <g id="line2d_23">
      <g>
       <use style="stroke:#000000;stroke-width:0.5;" x="162.679035" xlink:href="#mfc7b9b76a5" y="156.305484"/>
      </g>
     </g>
     <g id="line2d_24">
      <g>
       <use style="stroke:#000000;stroke-width:0.5;" x="162.679035" xlink:href="#m98c5b86442" y="17.705484"/>
      </g>
     </g>
    </g>
    <g id="xtick_13">
     <g id="line2d_25">
      <g>
       <use style="stroke:#000000;stroke-width:0.5;" x="174.765677" xlink:href="#mfc7b9b76a5" y="156.305484"/>
      </g>
     </g>
     <g id="line2d_26">
      <g>
       <use style="stroke:#000000;stroke-width:0.5;" x="174.765677" xlink:href="#m98c5b86442" y="17.705484"/>
      </g>
     </g>
    </g>
    <g id="xtick_14">
     <g id="line2d_27">
      <g>
       <use style="stroke:#000000;stroke-width:0.5;" x="186.85232" xlink:href="#mfc7b9b76a5" y="156.305484"/>
      </g>
     </g>
     <g id="line2d_28">
      <g>
       <use style="stroke:#000000;stroke-width:0.5;" x="186.85232" xlink:href="#m98c5b86442" y="17.705484"/>
      </g>
     </g>
    </g>
    <g id="xtick_15">
     <g id="line2d_29">
      <g>
       <use style="stroke:#000000;stroke-width:0.5;" x="198.938963" xlink:href="#mfc7b9b76a5" y="156.305484"/>
      </g>
     </g>
     <g id="line2d_30">
      <g>
       <use style="stroke:#000000;stroke-width:0.5;" x="198.938963" xlink:href="#m98c5b86442" y="17.705484"/>
      </g>
     </g>
    </g>
    <g id="text_4">
     <!-- Timestep \# -->
     <g transform="translate(100.993439 179.471468)scale(0.1 -0.1)">
      <defs>
       <path d="M 25.40625 61.796875 
L 25.40625 11.953125 
C 25.40625 3.484375 24.296875 2.390625 16 1.890625 
L 16 0 
L 45.203125 0 
L 45.203125 1.890625 
C 37 2.296875 35.59375 3.59375 35.59375 10.859375 
L 35.59375 61.796875 
L 41 61.796875 
C 52.40625 61.796875 54.59375 60 56.90625 49.03125 
L 59.296875 49.03125 
L 58.703125 66 
L 2.296875 66 
L 1.703125 49.03125 
L 4.09375 49.03125 
C 6.5 59.90625 8.796875 61.796875 20 61.796875 
z
" id="Nimbus_Roman_No9_L_Regular-84"/>
       <path d="M 17.5 46 
L 2 40.5 
L 2 39 
L 2.796875 39.09375 
C 4 39.296875 5.296875 39.390625 6.203125 39.390625 
C 8.59375 39.390625 9.5 37.796875 9.5 33.390625 
L 9.5 10.1875 
C 9.5 3 8.5 1.890625 1.59375 1.5 
L 1.59375 0 
L 25.296875 0 
L 25.296875 1.5 
C 18.703125 2 17.90625 3 17.90625 10.1875 
L 17.90625 45.6875 
z
M 12.796875 68 
C 10.09375 68 7.796875 65.6875 7.796875 62.890625 
C 7.796875 60.09375 10 57.796875 12.796875 57.796875 
C 15.703125 57.796875 18 59.984375 18 62.890625 
C 18 65.6875 15.703125 68 12.796875 68 
z
" id="Nimbus_Roman_No9_L_Regular-105"/>
       <path d="M 1.90625 39.796875 
C 3.203125 40.09375 4 40.1875 5.09375 40.1875 
C 7.703125 40.1875 8.59375 38.59375 8.59375 33.796875 
L 8.59375 8.5 
C 8.59375 3.09375 7.203125 1.59375 1.59375 1.5 
L 1.59375 0 
L 23.796875 0 
L 23.796875 1.5 
C 18.5 1.6875 17 2.796875 17 6.6875 
L 17 34.890625 
C 17 35.09375 17.796875 36.09375 18.5 36.796875 
C 21 39.09375 25.296875 40.796875 28.796875 40.796875 
C 33.203125 40.796875 35.40625 37.296875 35.40625 30.296875 
L 35.40625 8.59375 
C 35.40625 3 34.296875 1.890625 28.59375 1.5 
L 28.59375 0 
L 51 0 
L 51 1.5 
C 45.296875 1.59375 43.796875 3.296875 43.796875 9.5 
L 43.796875 34.6875 
C 46.796875 39 50.09375 40.796875 54.703125 40.796875 
C 60.40625 40.796875 62.203125 38.09375 62.203125 29.796875 
L 62.203125 8.6875 
C 62.203125 3 61.40625 2.1875 55.59375 1.5 
L 55.59375 0 
L 77.5 0 
L 77.5 1.5 
L 74.90625 1.6875 
C 71.90625 1.890625 70.59375 3.6875 70.59375 7.59375 
L 70.59375 28.1875 
C 70.59375 40 66.703125 46 59 46 
C 53.203125 46 48.09375 43.390625 42.703125 37.59375 
C 40.90625 43.296875 37.5 46 32.09375 46 
C 27.703125 46 24.90625 44.59375 16.59375 38.296875 
L 16.59375 45.796875 
L 15.90625 46 
C 10.796875 44.09375 7.40625 42.984375 1.90625 41.484375 
z
" id="Nimbus_Roman_No9_L_Regular-109"/>
       <path d="M 40.796875 16.4375 
C 36 8.8125 31.703125 5.890625 25.296875 5.890625 
C 19.59375 5.890625 15.296875 8.8125 12.40625 14.53125 
C 10.59375 18.34375 9.90625 21.65625 9.703125 27.796875 
L 40.5 27.796875 
C 39.703125 34.265625 38.703125 37.140625 36.203125 40.3125 
C 33.203125 43.890625 28.59375 46 23.40625 46 
C 18.40625 46 13.703125 44.1875 9.90625 40.8125 
C 5.203125 36.734375 2.5 29.6875 2.5 21.46875 
C 2.5 7.59375 9.703125 -1 21.203125 -1 
C 30.703125 -1 38.203125 4.890625 42.40625 15.734375 
z
M 9.90625 31 
C 11 38.71875 14.40625 42.390625 20.5 42.390625 
C 26.59375 42.390625 29 39.609375 30.296875 31 
z
" id="Nimbus_Roman_No9_L_Regular-101"/>
       <path d="M 31.5 31.390625 
L 31.09375 45 
L 30 45 
L 29.796875 44.796875 
C 28.90625 44.09375 28.796875 43.984375 28.40625 43.984375 
C 27.796875 43.984375 26.796875 44.1875 25.703125 44.6875 
C 23.5 45.59375 21.296875 46 18.703125 46 
C 10.796875 46 5.09375 40.890625 5.09375 33.671875 
C 5.09375 28.0625 8.296875 24.046875 16.796875 19.234375 
L 22.59375 15.921875 
C 26.09375 13.921875 27.796875 11.515625 27.796875 8.40625 
C 27.796875 4 24.59375 1.1875 19.5 1.1875 
C 16.09375 1.1875 13 2.5 11.09375 4.703125 
C 9 7.203125 8.09375 9.515625 6.796875 15.21875 
L 5.203125 15.21875 
L 5.203125 -0.40625 
L 6.5 -0.40625 
C 7.203125 0.59375 7.59375 0.796875 8.796875 0.796875 
C 9.703125 0.796875 11.09375 0.59375 13.40625 0 
C 16.203125 -0.609375 18.90625 -1 20.703125 -1 
C 28.40625 -1 34.796875 4.796875 34.796875 11.8125 
C 34.796875 16.828125 32.40625 20.140625 26.40625 23.75 
L 15.59375 30.15625 
C 12.796875 31.765625 11.296875 34.265625 11.296875 36.96875 
C 11.296875 40.984375 14.40625 43.796875 19 43.796875 
C 24.703125 43.796875 27.703125 40.390625 30 31.46875 
z
" id="Nimbus_Roman_No9_L_Regular-115"/>
       <path d="M 25.5 45 
L 15.40625 45 
L 15.40625 56.59375 
C 15.40625 57.59375 15.296875 57.890625 14.703125 57.890625 
C 14 57 13.40625 56.09375 12.703125 55.09375 
C 8.90625 49.59375 4.59375 44.796875 3 44.390625 
C 1.90625 43.6875 1.296875 42.984375 1.296875 42.484375 
C 1.296875 42.1875 1.40625 41.984375 1.703125 41.796875 
L 7 41.796875 
L 7 11.6875 
C 7 3.296875 10 -1 15.90625 -1 
C 20.796875 -1 24.59375 1.390625 27.90625 6.59375 
L 26.59375 7.6875 
C 24.5 5.1875 22.796875 4.1875 20.59375 4.1875 
C 16.90625 4.1875 15.40625 6.890625 15.40625 13.1875 
L 15.40625 41.796875 
L 25.5 41.796875 
z
" id="Nimbus_Roman_No9_L_Regular-116"/>
       <path d="M 0.90625 39.296875 
C 1.796875 39.390625 2.5 39.390625 3.40625 39.390625 
C 6.796875 39.390625 7.5 38.390625 7.5 33.703125 
L 7.5 -13.109375 
C 7.5 -18.3125 6.40625 -19.40625 0.5 -20 
L 0.5 -21.703125 
L 24.703125 -21.703125 
L 24.703125 -20 
C 17.203125 -19.90625 15.90625 -18.796875 15.90625 -12.46875 
L 15.90625 3.296875 
C 19.40625 0 21.796875 -1 26 -1 
C 37.796875 -1 47 10.1875 47 24.6875 
C 47 37.09375 40 46 30.296875 46 
C 24.703125 46 20.296875 43.484375 15.90625 38.09375 
L 15.90625 45.796875 
L 15.296875 46 
C 9.90625 43.890625 6.40625 42.59375 0.90625 40.890625 
z
M 15.90625 33.390625 
C 15.90625 36.390625 21.5 39.984375 26.09375 39.984375 
C 33.5 39.984375 38.40625 32.390625 38.40625 20.796875 
C 38.40625 9.6875 33.5 2.1875 26.296875 2.1875 
C 21.59375 2.1875 15.90625 5.796875 15.90625 8.796875 
z
" id="Nimbus_Roman_No9_L_Regular-112"/>
       <path d="M 47.09375 27 
L 37.09375 27 
L 39.09375 40.484375 
L 49.59375 40.484375 
L 49.59375 46 
L 39.90625 46 
L 42.90625 66 
L 37.09375 66 
L 34.09375 46 
L 20.796875 46 
L 23.90625 66 
L 18.09375 66 
L 15 46 
L 3.203125 46 
L 3.203125 40.484375 
L 14.203125 40.484375 
L 12.09375 27 
L 0.5 27 
L 0.5 21.484375 
L 11.203125 21.484375 
L 7.90625 0 
L 13.703125 0 
L 17 21.484375 
L 30.40625 21.484375 
L 27.296875 0 
L 33.09375 0 
L 36.203125 21.484375 
L 47.09375 21.484375 
z
M 33.296875 40.484375 
L 31.296875 27 
L 17.90625 27 
L 20 40.484375 
z
" id="Nimbus_Roman_No9_L_Regular-35"/>
      </defs>
      <use transform="scale(0.996264)" xlink:href="#Nimbus_Roman_No9_L_Regular-84"/>
      <use transform="translate(57.384904 0)scale(0.996264)" xlink:href="#Nimbus_Roman_No9_L_Regular-105"/>
      <use transform="translate(85.080074 0)scale(0.996264)" xlink:href="#Nimbus_Roman_No9_L_Regular-109"/>
      <use transform="translate(162.588444 0)scale(0.996264)" xlink:href="#Nimbus_Roman_No9_L_Regular-101"/>
      <use transform="translate(206.822013 0)scale(0.996264)" xlink:href="#Nimbus_Roman_No9_L_Regular-115"/>
      <use transform="translate(245.575719 0)scale(0.996264)" xlink:href="#Nimbus_Roman_No9_L_Regular-116"/>
      <use transform="translate(273.270888 0)scale(0.996264)" xlink:href="#Nimbus_Roman_No9_L_Regular-101"/>
      <use transform="translate(317.504457 0)scale(0.996264)" xlink:href="#Nimbus_Roman_No9_L_Regular-112"/>
      <use transform="translate(392.224258 0)scale(0.996264)" xlink:href="#Nimbus_Roman_No9_L_Regular-35"/>
     </g>
    </g>
   </g>
   <g id="matplotlib.axis_2">
    <g id="ytick_1">
     <g id="line2d_31">
      <defs>
       <path d="M 0 0 
L 3 0 
" id="m66f503725f" style="stroke:#000000;stroke-width:0.5;"/>
      </defs>
      <g>
       <use style="stroke:#000000;stroke-width:0.5;" x="31.02528" xlink:href="#m66f503725f" y="132.3655"/>
      </g>
     </g>
     <g id="line2d_32">
      <defs>
       <path d="M 0 0 
L -3 0 
" id="m2b4286a944" style="stroke:#000000;stroke-width:0.5;"/>
      </defs>
      <g>
       <use style="stroke:#000000;stroke-width:0.5;" x="215.16528" xlink:href="#m2b4286a944" y="132.3655"/>
      </g>
     </g>
     <g id="text_5">
      <!-- $\mathdefault{5}$ -->
      <g transform="translate(22.54396 135.742789)scale(0.1 -0.1)">
       <defs>
        <path d="M 18.09375 58.09375 
L 37.703125 58.09375 
C 39.296875 58.09375 39.703125 58.296875 40 58.984375 
L 43.796875 67.890625 
L 42.90625 68.59375 
C 41.40625 66.5 40.40625 66 38.296875 66 
L 17.40625 66 
L 6.5 42.453125 
C 6.40625 42.265625 6.40625 42.15625 6.40625 41.96875 
C 6.40625 41.46875 6.796875 41.171875 7.59375 41.171875 
C 10.796875 41.171875 14.796875 40.484375 18.90625 39.1875 
C 30.40625 35.53125 35.703125 29.40625 35.703125 19.609375 
C 35.703125 10.109375 29.59375 2.6875 21.796875 2.6875 
C 19.796875 2.6875 18.09375 3.390625 15.09375 5.5625 
C 11.90625 7.84375 9.59375 8.828125 7.5 8.828125 
C 4.59375 8.828125 3.203125 7.640625 3.203125 5.171875 
C 3.203125 1.390625 7.90625 -1 15.40625 -1 
C 23.796875 -1 31 1.6875 36 6.75 
C 40.59375 11.203125 42.703125 16.84375 42.703125 24.359375 
C 42.703125 31.484375 40.796875 36.03125 35.796875 40.96875 
C 31.40625 45.328125 25.703125 47.609375 13.90625 49.6875 
z
" id="Nimbus_Roman_No9_L_Regular-53"/>
       </defs>
       <use transform="scale(0.996264)" xlink:href="#Nimbus_Roman_No9_L_Regular-53"/>
      </g>
     </g>
    </g>
    <g id="ytick_2">
     <g id="line2d_33">
      <g>
       <use style="stroke:#000000;stroke-width:0.5;" x="31.02528" xlink:href="#m66f503725f" y="100.86553"/>
      </g>
     </g>
     <g id="line2d_34">
      <g>
       <use style="stroke:#000000;stroke-width:0.5;" x="215.16528" xlink:href="#m2b4286a944" y="100.86553"/>
      </g>
     </g>
     <g id="text_6">
      <!-- $\mathdefault{10}$ -->
      <g transform="translate(17.56264 104.242819)scale(0.1 -0.1)">
       <use transform="scale(0.996264)" xlink:href="#Nimbus_Roman_No9_L_Regular-49"/>
       <use transform="translate(49.8132 0)scale(0.996264)" xlink:href="#Nimbus_Roman_No9_L_Regular-48"/>
      </g>
     </g>
    </g>
    <g id="ytick_3">
     <g id="line2d_35">
      <g>
       <use style="stroke:#000000;stroke-width:0.5;" x="31.02528" xlink:href="#m66f503725f" y="69.36556"/>
      </g>
     </g>
     <g id="line2d_36">
      <g>
       <use style="stroke:#000000;stroke-width:0.5;" x="215.16528" xlink:href="#m2b4286a944" y="69.36556"/>
      </g>
     </g>
     <g id="text_7">
      <!-- $\mathdefault{15}$ -->
      <g transform="translate(17.56264 72.742849)scale(0.1 -0.1)">
       <use transform="scale(0.996264)" xlink:href="#Nimbus_Roman_No9_L_Regular-49"/>
       <use transform="translate(49.8132 0)scale(0.996264)" xlink:href="#Nimbus_Roman_No9_L_Regular-53"/>
      </g>
     </g>
    </g>
    <g id="ytick_4">
     <g id="line2d_37">
      <g>
       <use style="stroke:#000000;stroke-width:0.5;" x="31.02528" xlink:href="#m66f503725f" y="37.86559"/>
      </g>
     </g>
     <g id="line2d_38">
      <g>
       <use style="stroke:#000000;stroke-width:0.5;" x="215.16528" xlink:href="#m2b4286a944" y="37.86559"/>
      </g>
     </g>
     <g id="text_8">
      <!-- $\mathdefault{20}$ -->
      <g transform="translate(17.56264 41.242879)scale(0.1 -0.1)">
       <use transform="scale(0.996264)" xlink:href="#Nimbus_Roman_No9_L_Regular-50"/>
       <use transform="translate(49.8132 0)scale(0.996264)" xlink:href="#Nimbus_Roman_No9_L_Regular-48"/>
      </g>
     </g>
    </g>
    <g id="ytick_5">
     <g id="line2d_39">
      <defs>
       <path d="M 0 0 
L 1.5 0 
" id="m4e199a5fd7" style="stroke:#000000;stroke-width:0.5;"/>
      </defs>
      <g>
       <use style="stroke:#000000;stroke-width:0.5;" x="31.02528" xlink:href="#m4e199a5fd7" y="151.265482"/>
      </g>
     </g>
     <g id="line2d_40">
      <defs>
       <path d="M 0 0 
L -1.5 0 
" id="me5ee3f7594" style="stroke:#000000;stroke-width:0.5;"/>
      </defs>
      <g>
       <use style="stroke:#000000;stroke-width:0.5;" x="215.16528" xlink:href="#me5ee3f7594" y="151.265482"/>
      </g>
     </g>
    </g>
    <g id="ytick_6">
     <g id="line2d_41">
      <g>
       <use style="stroke:#000000;stroke-width:0.5;" x="31.02528" xlink:href="#m4e199a5fd7" y="144.965488"/>
      </g>
     </g>
     <g id="line2d_42">
      <g>
       <use style="stroke:#000000;stroke-width:0.5;" x="215.16528" xlink:href="#me5ee3f7594" y="144.965488"/>
      </g>
     </g>
    </g>
    <g id="ytick_7">
     <g id="line2d_43">
      <g>
       <use style="stroke:#000000;stroke-width:0.5;" x="31.02528" xlink:href="#m4e199a5fd7" y="138.665494"/>
      </g>
     </g>
     <g id="line2d_44">
      <g>
       <use style="stroke:#000000;stroke-width:0.5;" x="215.16528" xlink:href="#me5ee3f7594" y="138.665494"/>
      </g>
     </g>
    </g>
    <g id="ytick_8">
     <g id="line2d_45">
      <g>
       <use style="stroke:#000000;stroke-width:0.5;" x="31.02528" xlink:href="#m4e199a5fd7" y="126.065506"/>
      </g>
     </g>
     <g id="line2d_46">
      <g>
       <use style="stroke:#000000;stroke-width:0.5;" x="215.16528" xlink:href="#me5ee3f7594" y="126.065506"/>
      </g>
     </g>
    </g>
    <g id="ytick_9">
     <g id="line2d_47">
      <g>
       <use style="stroke:#000000;stroke-width:0.5;" x="31.02528" xlink:href="#m4e199a5fd7" y="119.765512"/>
      </g>
     </g>
     <g id="line2d_48">
      <g>
       <use style="stroke:#000000;stroke-width:0.5;" x="215.16528" xlink:href="#me5ee3f7594" y="119.765512"/>
      </g>
     </g>
    </g>
    <g id="ytick_10">
     <g id="line2d_49">
      <g>
       <use style="stroke:#000000;stroke-width:0.5;" x="31.02528" xlink:href="#m4e199a5fd7" y="113.465518"/>
      </g>
     </g>
     <g id="line2d_50">
      <g>
       <use style="stroke:#000000;stroke-width:0.5;" x="215.16528" xlink:href="#me5ee3f7594" y="113.465518"/>
      </g>
     </g>
    </g>
    <g id="ytick_11">
     <g id="line2d_51">
      <g>
       <use style="stroke:#000000;stroke-width:0.5;" x="31.02528" xlink:href="#m4e199a5fd7" y="107.165524"/>
      </g>
     </g>
     <g id="line2d_52">
      <g>
       <use style="stroke:#000000;stroke-width:0.5;" x="215.16528" xlink:href="#me5ee3f7594" y="107.165524"/>
      </g>
     </g>
    </g>
    <g id="ytick_12">
     <g id="line2d_53">
      <g>
       <use style="stroke:#000000;stroke-width:0.5;" x="31.02528" xlink:href="#m4e199a5fd7" y="94.565536"/>
      </g>
     </g>
     <g id="line2d_54">
      <g>
       <use style="stroke:#000000;stroke-width:0.5;" x="215.16528" xlink:href="#me5ee3f7594" y="94.565536"/>
      </g>
     </g>
    </g>
    <g id="ytick_13">
     <g id="line2d_55">
      <g>
       <use style="stroke:#000000;stroke-width:0.5;" x="31.02528" xlink:href="#m4e199a5fd7" y="88.265542"/>
      </g>
     </g>
     <g id="line2d_56">
      <g>
       <use style="stroke:#000000;stroke-width:0.5;" x="215.16528" xlink:href="#me5ee3f7594" y="88.265542"/>
      </g>
     </g>
    </g>
    <g id="ytick_14">
     <g id="line2d_57">
      <g>
       <use style="stroke:#000000;stroke-width:0.5;" x="31.02528" xlink:href="#m4e199a5fd7" y="81.965548"/>
      </g>
     </g>
     <g id="line2d_58">
      <g>
       <use style="stroke:#000000;stroke-width:0.5;" x="215.16528" xlink:href="#me5ee3f7594" y="81.965548"/>
      </g>
     </g>
    </g>
    <g id="ytick_15">
     <g id="line2d_59">
      <g>
       <use style="stroke:#000000;stroke-width:0.5;" x="31.02528" xlink:href="#m4e199a5fd7" y="75.665554"/>
      </g>
     </g>
     <g id="line2d_60">
      <g>
       <use style="stroke:#000000;stroke-width:0.5;" x="215.16528" xlink:href="#me5ee3f7594" y="75.665554"/>
      </g>
     </g>
    </g>
    <g id="ytick_16">
     <g id="line2d_61">
      <g>
       <use style="stroke:#000000;stroke-width:0.5;" x="31.02528" xlink:href="#m4e199a5fd7" y="63.065566"/>
      </g>
     </g>
     <g id="line2d_62">
      <g>
       <use style="stroke:#000000;stroke-width:0.5;" x="215.16528" xlink:href="#me5ee3f7594" y="63.065566"/>
      </g>
     </g>
    </g>
    <g id="ytick_17">
     <g id="line2d_63">
      <g>
       <use style="stroke:#000000;stroke-width:0.5;" x="31.02528" xlink:href="#m4e199a5fd7" y="56.765572"/>
      </g>
     </g>
     <g id="line2d_64">
      <g>
       <use style="stroke:#000000;stroke-width:0.5;" x="215.16528" xlink:href="#me5ee3f7594" y="56.765572"/>
      </g>
     </g>
    </g>
    <g id="ytick_18">
     <g id="line2d_65">
      <g>
       <use style="stroke:#000000;stroke-width:0.5;" x="31.02528" xlink:href="#m4e199a5fd7" y="50.465578"/>
      </g>
     </g>
     <g id="line2d_66">
      <g>
       <use style="stroke:#000000;stroke-width:0.5;" x="215.16528" xlink:href="#me5ee3f7594" y="50.465578"/>
      </g>
     </g>
    </g>
    <g id="ytick_19">
     <g id="line2d_67">
      <g>
       <use style="stroke:#000000;stroke-width:0.5;" x="31.02528" xlink:href="#m4e199a5fd7" y="44.165584"/>
      </g>
     </g>
     <g id="line2d_68">
      <g>
       <use style="stroke:#000000;stroke-width:0.5;" x="215.16528" xlink:href="#me5ee3f7594" y="44.165584"/>
      </g>
     </g>
    </g>
    <g id="ytick_20">
     <g id="line2d_69">
      <g>
       <use style="stroke:#000000;stroke-width:0.5;" x="31.02528" xlink:href="#m4e199a5fd7" y="31.565596"/>
      </g>
     </g>
     <g id="line2d_70">
      <g>
       <use style="stroke:#000000;stroke-width:0.5;" x="215.16528" xlink:href="#me5ee3f7594" y="31.565596"/>
      </g>
     </g>
    </g>
    <g id="ytick_21">
     <g id="line2d_71">
      <g>
       <use style="stroke:#000000;stroke-width:0.5;" x="31.02528" xlink:href="#m4e199a5fd7" y="25.265602"/>
      </g>
     </g>
     <g id="line2d_72">
      <g>
       <use style="stroke:#000000;stroke-width:0.5;" x="215.16528" xlink:href="#me5ee3f7594" y="25.265602"/>
      </g>
     </g>
    </g>
    <g id="ytick_22">
     <g id="line2d_73">
      <g>
       <use style="stroke:#000000;stroke-width:0.5;" x="31.02528" xlink:href="#m4e199a5fd7" y="18.965608"/>
      </g>
     </g>
     <g id="line2d_74">
      <g>
       <use style="stroke:#000000;stroke-width:0.5;" x="215.16528" xlink:href="#me5ee3f7594" y="18.965608"/>
      </g>
     </g>
    </g>
    <g id="text_9">
     <!-- Glucose ($mmol/L$) -->
     <g transform="translate(11.07198 124.489469)rotate(-90)scale(0.1 -0.1)">
      <defs>
       <path d="M 70.90625 35.796875 
L 45.40625 35.796875 
L 45.40625 34 
C 49.703125 33.6875 50.90625 33.390625 52.09375 32.59375 
C 53.59375 31.6875 54.203125 29.390625 54.203125 25.09375 
L 54.203125 8.890625 
C 54.203125 5.6875 48.09375 3 40.90625 3 
C 24.59375 3 14.59375 14.390625 14.59375 33 
C 14.59375 42.390625 17.40625 51.5 21.796875 56.390625 
C 26.203125 61.296875 32.40625 63.984375 39.203125 63.984375 
C 44.796875 63.984375 49.703125 62.09375 53.59375 58.5 
C 56.59375 55.703125 58.203125 53 60.703125 46.890625 
L 63 46.890625 
L 62.203125 68 
L 60 68 
C 59.40625 66.09375 57.59375 64.6875 55.5 64.6875 
C 54.5 64.6875 52.90625 64.984375 51.09375 65.6875 
C 46.59375 67.1875 42 68 37.5 68 
C 17.5 68 3.203125 53.296875 3.203125 32.890625 
C 3.203125 23.09375 5.90625 15.59375 11.5 9.6875 
C 18.203125 2.796875 27.796875 -1 38.796875 -1 
C 47.40625 -1 59.90625 2.5 63.90625 6 
L 63.90625 26.296875 
C 63.90625 32.1875 65.09375 33.5 70.90625 34 
z
" id="Nimbus_Roman_No9_L_Regular-71"/>
       <path d="M 1.90625 62.296875 
L 2.5 62.296875 
C 3.59375 62.390625 4.796875 62.5 5.59375 62.5 
C 8.796875 62.5 9.796875 61.09375 9.796875 56.390625 
L 9.796875 8.6875 
C 9.796875 3.296875 8.40625 2 2.09375 1.5 
L 2.09375 0 
L 25.703125 0 
L 25.703125 1.5 
C 19.40625 1.890625 18.203125 2.890625 18.203125 8.390625 
L 18.203125 68.09375 
L 17.796875 68.296875 
C 12.59375 66.59375 8.796875 65.59375 1.90625 63.890625 
z
" id="Nimbus_Roman_No9_L_Regular-108"/>
       <path d="M 47.90625 4.984375 
L 47.40625 4.984375 
C 42.796875 4.984375 41.703125 6.09375 41.703125 10.6875 
L 41.703125 45 
L 25.90625 45 
L 25.90625 43.296875 
C 32.09375 43 33.296875 42 33.296875 37 
L 33.296875 13.5 
C 33.296875 10.6875 32.796875 9.296875 31.40625 8.1875 
C 28.703125 6 25.59375 4.796875 22.59375 4.796875 
C 18.703125 4.796875 15.5 8.1875 15.5 12.390625 
L 15.5 45 
L 0.90625 45 
L 0.90625 43.59375 
C 5.703125 43.296875 7.09375 41.796875 7.09375 37.1875 
L 7.09375 12 
C 7.09375 4.09375 11.90625 -1 19.203125 -1 
C 22.90625 -1 26.796875 0.59375 29.5 3.296875 
L 33.796875 7.59375 
L 33.796875 -0.703125 
L 34.203125 -1 
C 39.203125 1 42.796875 2.09375 47.90625 3.5 
z
" id="Nimbus_Roman_No9_L_Regular-117"/>
       <path d="M 39.796875 15.59375 
C 35 8.59375 31.40625 6.1875 25.703125 6.1875 
C 16.59375 6.1875 10.203125 14.1875 10.203125 25.6875 
C 10.203125 35.984375 15.703125 43.09375 23.796875 43.09375 
C 27.40625 43.09375 28.703125 41.984375 29.703125 38.296875 
L 30.296875 36.09375 
C 31.09375 33.296875 32.90625 31.484375 35 31.484375 
C 37.59375 31.484375 39.796875 33.390625 39.796875 35.6875 
C 39.796875 41.296875 32.796875 46 24.40625 46 
C 19.5 46 14.40625 43.984375 10.296875 40.390625 
C 5.296875 35.984375 2.5 29.1875 2.5 21.296875 
C 2.5 8.296875 10.40625 -1 21.5 -1 
C 26 -1 30 0.59375 33.59375 3.6875 
C 36.296875 6.09375 38.203125 8.796875 41.203125 14.6875 
z
" id="Nimbus_Roman_No9_L_Regular-99"/>
       <path d="M 25 46 
C 12 46 2.90625 36.390625 2.90625 22.59375 
C 2.90625 9.09375 12.203125 -1 24.796875 -1 
C 37.40625 -1 47 9.59375 47 23.390625 
C 47 36.5 37.796875 46 25 46 
z
M 23.703125 43.1875 
C 32.09375 43.1875 38 33.59375 38 19.890625 
C 38 8.59375 33.5 1.796875 26 1.796875 
C 22.09375 1.796875 18.40625 4.1875 16.296875 8.1875 
C 13.5 13.390625 11.90625 20.390625 11.90625 27.5 
C 11.90625 37 16.59375 43.1875 23.703125 43.1875 
z
" id="Nimbus_Roman_No9_L_Regular-111"/>
       <path d="M 29.5 68 
C 22.09375 63.1875 19.09375 60.59375 15.40625 55.984375 
C 8.296875 47.296875 4.796875 37.296875 4.796875 25.59375 
C 4.796875 12.890625 8.5 3.09375 17.296875 -7.109375 
C 21.40625 -11.90625 24 -14.109375 29.203125 -17.3125 
L 30.40625 -15.71875 
C 22.40625 -9.40625 19.59375 -5.90625 16.90625 1.59375 
C 14.5 8.28125 13.40625 15.890625 13.40625 25.890625 
C 13.40625 36.390625 14.703125 44.59375 17.40625 50.796875 
C 20.203125 56.984375 23.203125 60.59375 30.40625 66.390625 
z
" id="Nimbus_Roman_No9_L_Regular-40"/>
       <path d="M 68.90625 11.59375 
C 67.90625 10.390625 67.09375 9.390625 66.796875 8.984375 
C 64 5.390625 61.90625 3.6875 60.40625 3.6875 
C 59.59375 3.6875 59.09375 4.296875 59.09375 5.296875 
C 59.09375 5.796875 59.5 7.390625 60.09375 9.796875 
L 66.90625 34.890625 
C 67 35.296875 67.203125 37.09375 67.203125 37.6875 
C 67.203125 41.296875 64.703125 44 61.296875 44 
C 59.40625 44 57.40625 43.296875 55 41.796875 
C 50.09375 38.59375 46 33.796875 39.09375 22.796875 
C 41.59375 30.390625 43.09375 36.09375 43.09375 37.984375 
C 43.09375 41.484375 40.796875 44 37.40625 44 
C 31.296875 44 24.296875 37.390625 15.09375 22.890625 
L 20.90625 43.796875 
L 20.59375 44 
C 15 42.796875 12.90625 42.390625 4.59375 40.890625 
L 4.59375 39.296875 
L 7.09375 39.296875 
C 9.703125 39.296875 11 38.59375 11 37.09375 
C 11 35.984375 8.703125 26.890625 5.09375 14.1875 
C 2.796875 6 2.5 5 1.203125 -0.109375 
L 8.703125 -0.109375 
C 13.5 15.796875 15 19.484375 18.40625 24.6875 
C 24 33.1875 30 38.796875 33.40625 38.796875 
C 34.703125 38.796875 35.40625 37.890625 35.40625 36.296875 
C 35.40625 35.390625 32.203125 23.296875 25.90625 -0.109375 
L 33.40625 -0.109375 
C 37.40625 15.484375 39.40625 20.484375 44.5 27.59375 
C 49.40625 34.390625 54.40625 38.796875 57.296875 38.796875 
C 58.40625 38.796875 59.296875 37.796875 59.296875 36.6875 
C 59.296875 36.1875 59.09375 34.984375 58.59375 33.1875 
L 52.796875 10.1875 
C 51.90625 6.5 51.5 4.59375 51.5 3.59375 
C 51.5 0.59375 52.90625 -1 55.5 -1 
C 60.203125 -1 64.59375 2.296875 69.90625 9.6875 
L 70.40625 10.390625 
z
" id="Nimbus_Roman_No9_L_Regular_Italic-109"/>
       <path d="M 32.5 44 
C 17.5 44 2.703125 28.5625 2.703125 12.9375 
C 2.703125 4.375 8.296875 -1 17.40625 -1 
C 24 -1 30.40625 1.984375 36.203125 7.65625 
C 42.796875 14.125 46.796875 22.59375 46.796875 30.046875 
C 46.796875 38.3125 41 44 32.5 44 
z
M 31.296875 41.890625 
C 35.59375 41.890625 38.40625 38.21875 38.40625 32.546875 
C 38.40625 25.28125 35.09375 15.328125 30.703125 8.859375 
C 27 3.578125 23.203125 1.09375 18.90625 1.09375 
C 14.203125 1.09375 11.09375 4.671875 11.09375 10.15625 
C 11.09375 17.515625 14 26.265625 18.90625 33.34375 
C 22.796875 38.90625 27 41.890625 31.296875 41.890625 
z
" id="Nimbus_Roman_No9_L_Regular_Italic-111"/>
       <path d="M 22.796875 12.390625 
C 21.90625 11.296875 21 10.1875 20.09375 9 
C 16.90625 4.796875 15 3.296875 13.203125 3.296875 
C 12.203125 3.296875 11.703125 4 11.703125 5.09375 
C 11.703125 5.796875 12 7 12.5 9 
C 12.59375 9.296875 12.703125 9.796875 12.796875 10 
L 27.90625 67.890625 
L 27.40625 68.390625 
C 21.5 67.09375 17.703125 66.390625 11.796875 65.703125 
L 11.796875 64.09375 
C 16.59375 64.09375 18.59375 63.390625 18.59375 61.796875 
C 18.59375 61.5 18.5 60.890625 18.203125 60 
L 4.5 7.1875 
C 4.203125 6.09375 4 5.09375 4 4.59375 
C 4 1 5.703125 -1 8.90625 -1 
C 14.09375 -1 17.59375 1.890625 24.09375 11.5 
z
" id="Nimbus_Roman_No9_L_Regular_Italic-108"/>
       <path d="M 43.90625 71.203125 
C 44.40625 72.5 44.40625 72.890625 44.40625 73 
C 44.40625 74.09375 43.5 75 42.40625 75 
C 41.703125 75 41 74.6875 40.703125 74.09375 
L 6 -21.203125 
C 5.5 -22.5 5.5 -22.90625 5.5 -23 
C 5.5 -24.109375 6.40625 -25 7.5 -25 
C 8.796875 -25 9.09375 -24.3125 9.703125 -22.609375 
z
" id="CMMI10-61"/>
       <path d="M 40.296875 65 
L 13 65 
L 13 63.390625 
C 19.203125 62.796875 20.703125 62 20.703125 59.109375 
C 20.703125 57.71875 20.296875 55.4375 19.59375 52.953125 
L 7.296875 8.96875 
C 5.5 3.1875 4.796875 2.59375 -0.796875 1.59375 
L -0.796875 0 
L 50.09375 0 
L 55.90625 17.828125 
L 53.90625 18.421875 
C 50.40625 11.25 47.703125 8.0625 43.296875 5.875 
C 39.796875 4.1875 35.703125 3.59375 27 3.59375 
C 19.40625 3.59375 16.90625 4.390625 16.90625 6.96875 
C 16.90625 7.671875 17.40625 10.0625 17.90625 11.953125 
L 30.203125 56.03125 
C 31.703125 61.109375 34.296875 62.984375 40.296875 63.390625 
z
" id="Nimbus_Roman_No9_L_Regular_Italic-76"/>
       <path d="M 3.796875 -17.3125 
C 11.203125 -12.515625 14.203125 -9.90625 17.90625 -5.3125 
C 25 3.390625 28.5 13.390625 28.5 25.09375 
C 28.5 37.890625 24.796875 47.59375 16 57.796875 
C 11.90625 62.59375 9.296875 64.796875 4.09375 68 
L 2.90625 66.390625 
C 10.90625 60.09375 13.59375 56.59375 16.40625 49.09375 
C 18.796875 42.390625 19.90625 34.796875 19.90625 24.796875 
C 19.90625 14.390625 18.59375 6.09375 15.90625 -0.015625 
C 13.09375 -6.3125 10.09375 -9.90625 2.90625 -15.71875 
z
" id="Nimbus_Roman_No9_L_Regular-41"/>
      </defs>
      <use transform="scale(0.996264)" xlink:href="#Nimbus_Roman_No9_L_Regular-71"/>
      <use transform="translate(71.929985 0)scale(0.996264)" xlink:href="#Nimbus_Roman_No9_L_Regular-108"/>
      <use transform="translate(99.625154 0)scale(0.996264)" xlink:href="#Nimbus_Roman_No9_L_Regular-117"/>
      <use transform="translate(149.438355 0)scale(0.996264)" xlink:href="#Nimbus_Roman_No9_L_Regular-99"/>
      <use transform="translate(193.671924 0)scale(0.996264)" xlink:href="#Nimbus_Roman_No9_L_Regular-111"/>
      <use transform="translate(243.485124 0)scale(0.996264)" xlink:href="#Nimbus_Roman_No9_L_Regular-115"/>
      <use transform="translate(282.23883 0)scale(0.996264)" xlink:href="#Nimbus_Roman_No9_L_Regular-101"/>
      <use transform="translate(351.378999 0)scale(0.996264)" xlink:href="#Nimbus_Roman_No9_L_Regular-40"/>
      <use transform="translate(384.554229 0)scale(0.996264)" xlink:href="#Nimbus_Roman_No9_L_Regular_Italic-109"/>
      <use transform="translate(456.484214 0)scale(0.996264)" xlink:href="#Nimbus_Roman_No9_L_Regular_Italic-109"/>
      <use transform="translate(528.414199 0)scale(0.996264)" xlink:href="#Nimbus_Roman_No9_L_Regular_Italic-111"/>
      <use transform="translate(578.227399 0)scale(0.996264)" xlink:href="#Nimbus_Roman_No9_L_Regular_Italic-108"/>
      <use transform="translate(611.002427 0)scale(0.996264)" xlink:href="#CMMI10-61"/>
      <use transform="translate(660.815627 0)scale(0.996264)" xlink:href="#Nimbus_Roman_No9_L_Regular_Italic-76"/>
      <use transform="translate(716.505153 0)scale(0.996264)" xlink:href="#Nimbus_Roman_No9_L_Regular-41"/>
     </g>
    </g>
   </g>
   <g id="line2d_75">
    <path clip-path="url(#p5e5b422bc5)" d="M 39.39528 72.515557 
L 39.999612 72.515557 
L 42.416941 75.035555 
L 43.021273 76.295554 
L 44.229937 77.555553 
L 44.834269 78.815551 
L 46.647266 80.70555 
L 47.251598 81.965548 
L 49.064594 83.855547 
L 50.273259 86.375544 
L 50.877591 88.265542 
L 51.481923 89.525541 
L 52.086255 91.415539 
L 53.899251 95.195536 
L 55.107916 96.455535 
L 56.31658 96.455535 
L 56.920912 97.715533 
L 57.525244 97.715533 
L 59.33824 99.605532 
L 59.942573 100.86553 
L 60.546905 101.49553 
L 61.755569 104.015527 
L 62.359901 105.905526 
L 62.964233 107.165524 
L 63.568565 109.055523 
L 64.172898 110.315521 
L 65.985894 112.20552 
L 66.590226 113.465518 
L 67.194558 113.465518 
L 67.79889 114.095518 
L 68.403222 114.095518 
L 69.611887 115.355517 
L 70.216219 116.615515 
L 73.842212 120.395512 
L 74.446544 124.175508 
L 75.050876 121.025511 
L 75.655208 121.655511 
L 76.25954 122.915509 
L 76.863872 122.915509 
L 77.468204 122.28551 
L 78.072537 120.395512 
L 78.676869 117.875514 
L 80.489865 108.425523 
L 81.094197 107.165524 
L 82.302861 107.165524 
L 82.907194 108.425523 
L 83.511526 110.315521 
L 84.115858 111.57552 
L 85.928854 113.465518 
L 86.533186 113.465518 
L 87.137518 114.095518 
L 87.741851 115.355517 
L 88.950515 119.135513 
L 90.763511 126.695506 
L 91.972176 130.475502 
L 92.576508 131.735501 
L 93.18084 133.625499 
L 93.785172 134.255499 
L 94.993836 136.775496 
L 96.2025 138.035495 
L 96.806833 137.405496 
L 97.411165 139.925493 
L 98.015497 136.775496 
L 98.619829 135.515497 
L 99.224161 133.625499 
L 99.828493 131.105502 
L 100.432825 129.215503 
L 102.850154 119.135513 
L 104.058818 115.355517 
L 104.66315 114.725517 
L 105.267482 115.355517 
L 105.871814 117.245515 
L 106.476147 119.765512 
L 107.080479 122.915509 
L 109.497807 132.9955 
L 110.706472 136.775496 
L 111.915136 139.295494 
L 113.728132 141.185492 
L 114.332464 142.445491 
L 116.145461 144.335489 
L 116.749793 145.595488 
L 117.958457 146.855487 
L 118.562789 142.445491 
L 119.167121 147.485486 
L 119.771453 148.115485 
L 120.980118 148.115485 
L 121.58445 147.485486 
L 122.188782 147.485486 
L 122.793114 146.855487 
L 124.606111 143.07549 
L 125.210443 140.555493 
L 125.814775 138.665494 
L 126.419107 136.145497 
L 128.232103 126.695506 
L 129.440768 121.655511 
L 131.253764 115.985516 
L 131.858096 114.725517 
L 133.06676 113.465518 
L 135.484089 108.425523 
L 136.692753 107.165524 
L 139.110082 107.165524 
L 139.714414 106.535525 
L 140.318746 105.275526 
L 142.736074 102.755529 
L 143.340407 102.755529 
L 144.549071 101.49553 
L 145.153403 101.49553 
L 145.757735 102.125529 
L 146.362067 102.125529 
L 146.966399 102.755529 
L 147.570731 102.125529 
L 149.98806 102.125529 
L 150.592392 98.975532 
L 151.196724 102.755529 
L 154.822717 102.755529 
L 156.635713 104.645527 
L 157.844378 104.645527 
L 159.657374 102.755529 
L 161.47037 102.755529 
L 162.679035 104.015527 
L 163.283367 105.275526 
L 163.887699 105.275526 
L 164.492031 105.905526 
L 166.305027 104.015527 
L 167.513692 101.49553 
L 168.118024 98.975532 
L 168.722356 97.085534 
L 169.326688 93.935537 
L 169.93102 90.155541 
L 170.535352 79.445551 
L 171.139685 85.745545 
L 172.348349 75.035555 
L 172.952681 69.36556 
L 175.370009 42.275586 
L 175.974342 37.235591 
L 176.578674 33.455595 
L 177.183006 31.565596 
L 177.787338 30.305598 
L 178.39167 29.675598 
L 178.996002 30.935597 
L 180.808999 32.825595 
L 181.413331 32.825595 
L 182.017663 32.195596 
L 182.621995 32.195596 
L 183.226327 32.825595 
L 183.830659 32.825595 
L 185.039324 34.085594 
L 185.643656 32.825595 
L 186.247988 32.195596 
L 188.060984 28.415599 
L 188.665316 27.7856 
L 189.269648 26.525601 
L 191.082645 24.635603 
L 191.686977 24.635603 
L 192.291309 24.005604 
L 192.895641 24.005604 
L 194.104305 26.525601 
L 195.31297 30.305598 
L 195.917302 31.565596 
L 196.521634 39.125589 
L 197.125966 34.085594 
L 197.730298 35.345593 
L 198.33463 37.86559 
L 198.938963 39.755589 
L 199.543295 42.275586 
L 200.751959 46.055583 
L 201.356291 48.57558 
L 203.169287 54.245575 
L 203.77362 56.765572 
L 204.377952 58.025571 
L 204.982284 59.915569 
L 205.586616 61.175568 
L 206.190948 63.065566 
L 206.79528 64.325565 
L 206.79528 64.325565 
" style="fill:none;stroke:#0c5da5;stroke-linecap:square;stroke-width:0.7;"/>
   </g>
   <g id="line2d_76">
    <path clip-path="url(#p5e5b422bc5)" d="M 39.39528 72.23986 
L 39.999612 72.23986 
L 40.603944 71.993765 
L 41.208277 72.485953 
L 41.812609 73.716422 
L 42.416941 74.454703 
L 43.021273 74.94689 
L 43.625605 76.669547 
L 44.229937 77.161734 
L 44.834269 77.407828 
L 45.438601 79.130484 
L 46.042934 79.868765 
L 46.647266 80.11486 
L 47.251598 80.607047 
L 47.85593 82.329703 
L 48.460262 83.067984 
L 49.064594 83.314078 
L 49.668926 83.806265 
L 50.877591 87.005484 
L 51.481923 89.466422 
L 52.086255 90.450797 
L 52.690587 92.419547 
L 53.899251 94.388297 
L 54.503583 95.618765 
L 55.107916 95.86486 
L 55.712248 96.357047 
L 56.920912 95.86486 
L 57.525244 97.587516 
L 58.129576 97.833609 
L 58.733908 98.325797 
L 59.942573 99.80236 
L 60.546905 101.278922 
L 61.151237 101.771109 
L 61.755569 103.493765 
L 62.359901 104.724234 
L 62.964233 106.939078 
L 63.568565 108.415641 
L 64.172898 110.38439 
L 64.77723 111.368765 
L 65.381562 111.61486 
L 65.985894 111.61486 
L 66.590226 112.107047 
L 67.194558 114.075797 
L 67.79889 113.583609 
L 68.403222 114.32189 
L 69.007555 114.075797 
L 70.216219 115.55236 
L 70.820551 117.275016 
L 71.424883 118.013297 
L 72.029215 118.25939 
L 72.633547 118.751578 
L 73.237879 119.48986 
L 74.446544 120.474234 
L 75.050876 126.13439 
L 75.655208 121.212516 
L 76.25954 120.474234 
L 76.863872 122.442984 
L 77.468204 123.673453 
L 78.072537 121.704703 
L 79.281201 116.044547 
L 79.885533 111.368765 
L 80.489865 107.67736 
L 81.094197 105.216422 
L 81.698529 105.462516 
L 82.302861 106.200797 
L 84.115858 111.860953 
L 84.72019 113.091422 
L 85.324522 112.845328 
L 85.928854 113.091422 
L 86.533186 113.829703 
L 87.137518 113.337516 
L 87.741851 114.075797 
L 88.346183 116.290641 
L 88.950515 118.997672 
L 89.554847 120.966422 
L 91.367843 128.595328 
L 92.576508 131.794547 
L 93.18084 132.532828 
L 93.785172 134.501578 
L 94.389504 134.747672 
L 95.598168 137.208609 
L 96.2025 137.700797 
L 96.806833 137.94689 
L 97.411165 136.716422 
L 98.015497 140.161734 
L 98.619829 135.732047 
L 99.828493 131.056265 
L 102.245822 122.442984 
L 103.454486 116.536734 
L 104.66315 113.829703 
L 105.267482 113.337516 
L 105.871814 115.55236 
L 107.684811 126.13439 
L 108.289143 128.349234 
L 108.893475 130.07189 
L 110.706472 136.470328 
L 111.310804 137.94689 
L 112.519468 139.915641 
L 113.1238 139.915641 
L 114.332464 140.900016 
L 114.936796 142.376578 
L 115.541129 143.11486 
L 116.749793 144.099234 
L 117.354125 145.575797 
L 118.562789 146.560172 
L 119.167121 140.161734 
L 119.771453 146.560172 
L 120.375786 149.021109 
L 120.980118 148.775016 
L 121.58445 147.05236 
L 122.188782 146.560172 
L 122.793114 146.314078 
L 123.397446 144.591422 
L 124.001778 144.099234 
L 124.606111 142.868765 
L 125.210443 141.146109 
L 125.814775 137.94689 
L 126.419107 136.716422 
L 128.836435 123.673453 
L 129.440768 121.704703 
L 130.0451 119.243765 
L 131.253764 116.536734 
L 131.858096 114.567984 
L 132.462428 113.337516 
L 133.06676 113.337516 
L 133.671092 113.091422 
L 136.088421 107.185172 
L 136.692753 106.692984 
L 137.297085 106.692984 
L 137.901417 107.185172 
L 138.50575 107.185172 
L 139.110082 107.431265 
L 139.714414 107.185172 
L 140.318746 105.954703 
L 140.923078 103.985953 
L 141.52741 103.247672 
L 142.736074 102.755484 
L 143.340407 102.017203 
L 143.944739 102.50939 
L 144.549071 101.771109 
L 145.153403 100.786734 
L 145.757735 100.786734 
L 146.362067 102.263297 
L 146.966399 102.263297 
L 147.570731 103.001578 
L 148.175064 102.017203 
L 149.383728 101.525016 
L 150.592392 102.017203 
L 151.196724 97.095328 
L 151.801056 102.755484 
L 152.405389 103.985953 
L 153.009721 103.493765 
L 153.614053 102.017203 
L 154.218385 102.50939 
L 154.822717 102.263297 
L 155.427049 101.771109 
L 156.031381 103.493765 
L 156.635713 104.724234 
L 157.240046 104.970328 
L 157.844378 104.478141 
L 158.44871 104.970328 
L 159.053042 103.001578 
L 159.657374 102.017203 
L 160.261706 101.771109 
L 160.866038 102.263297 
L 162.074703 102.755484 
L 162.679035 103.73986 
L 163.283367 104.478141 
L 163.887699 105.954703 
L 164.492031 105.462516 
L 165.096363 105.954703 
L 166.305027 103.73986 
L 166.90936 102.755484 
L 168.118024 100.048453 
L 168.722356 96.849234 
L 169.326688 94.63439 
L 170.535352 86.75939 
L 171.139685 72.23986 
L 171.744017 83.067984 
L 172.348349 80.607047 
L 175.370009 40.493765 
L 176.578674 34.095328 
L 177.183006 30.896109 
L 177.787338 30.896109 
L 178.39167 32.126578 
L 178.996002 29.665641 
L 180.204666 33.110953 
L 181.413331 33.603141 
L 182.017663 33.603141 
L 182.621995 32.372672 
L 183.226327 32.126578 
L 183.830659 33.603141 
L 185.039324 34.095328 
L 185.643656 34.833609 
L 186.85232 31.142203 
L 187.456652 29.419547 
L 188.060984 28.435172 
L 188.665316 27.204703 
L 189.269648 27.204703 
L 191.082645 24.98986 
L 191.686977 24.743765 
L 192.291309 24.743765 
L 192.895641 24.005484 
L 193.499973 24.251578 
L 195.917302 32.372672 
L 196.521634 33.110953 
L 197.125966 42.708609 
L 197.730298 35.079703 
L 198.33463 34.095328 
L 198.938963 37.540641 
L 199.543295 41.724234 
L 200.147627 43.939078 
L 200.751959 45.661734 
L 201.356291 48.61486 
L 201.960623 49.599234 
L 202.564955 50.829703 
L 203.169287 53.290641 
L 205.586616 60.919547 
L 206.190948 61.411734 
L 206.79528 63.626578 
L 206.79528 63.626578 
" style="fill:none;stroke:#00b945;stroke-linecap:square;stroke-width:0.7;"/>
   </g>
   <g id="line2d_77">
    <path clip-path="url(#p5e5b422bc5)" d="M 39.39528 72.732047 
L 39.999612 72.732047 
L 40.603944 72.485953 
L 41.208277 72.732047 
L 41.812609 73.962516 
L 42.416941 74.700797 
L 43.021273 74.94689 
L 43.625605 77.161734 
L 44.229937 77.900016 
L 44.834269 77.653922 
L 45.438601 79.622672 
L 46.042934 80.11486 
L 46.647266 80.11486 
L 47.251598 81.099234 
L 47.85593 82.82189 
L 48.460262 83.560172 
L 49.064594 83.560172 
L 49.668926 84.05236 
L 50.273259 85.775016 
L 50.877591 87.005484 
L 52.086255 91.189078 
L 52.690587 92.173453 
L 53.294919 94.388297 
L 53.899251 95.618765 
L 54.503583 96.110953 
L 55.107916 96.110953 
L 55.712248 96.849234 
L 56.31658 96.849234 
L 56.920912 96.603141 
L 57.525244 98.079703 
L 58.733908 99.064078 
L 59.33824 99.310172 
L 60.546905 101.525016 
L 61.151237 102.263297 
L 61.755569 104.478141 
L 62.359901 105.462516 
L 62.964233 107.67736 
L 63.568565 108.661734 
L 64.172898 111.368765 
L 64.77723 112.107047 
L 65.985894 112.107047 
L 67.194558 114.567984 
L 67.79889 114.567984 
L 68.403222 115.306265 
L 69.007555 115.306265 
L 70.216219 116.290641 
L 70.820551 117.767203 
L 71.424883 118.013297 
L 72.029215 118.751578 
L 72.633547 119.735953 
L 73.237879 119.982047 
L 74.446544 120.966422 
L 75.050876 126.626578 
L 75.655208 121.950797 
L 76.25954 120.720328 
L 76.863872 123.181265 
L 77.468204 124.165641 
L 78.072537 122.442984 
L 78.676869 118.997672 
L 79.281201 117.028922 
L 79.885533 111.368765 
L 80.489865 108.169547 
L 81.094197 105.708609 
L 81.698529 105.462516 
L 82.302861 106.44689 
L 83.511526 110.630484 
L 84.115858 112.845328 
L 84.72019 113.583609 
L 85.928854 114.075797 
L 86.533186 115.060172 
L 87.137518 114.814078 
L 87.741851 115.798453 
L 88.346183 117.767203 
L 88.950515 119.243765 
L 91.367843 128.841422 
L 93.18084 132.532828 
L 93.785172 134.993765 
L 94.389504 135.485953 
L 94.993836 136.224234 
L 95.598168 137.454703 
L 96.806833 137.94689 
L 97.411165 136.962516 
L 98.015497 140.407828 
L 98.619829 136.224234 
L 99.224161 133.763297 
L 99.828493 131.794547 
L 100.432825 129.333609 
L 101.037157 127.36486 
L 101.64149 124.903922 
L 102.245822 123.42736 
L 102.850154 119.982047 
L 103.454486 117.521109 
L 104.66315 114.567984 
L 105.267482 113.829703 
L 106.476147 119.735953 
L 107.080479 123.673453 
L 107.684811 126.626578 
L 108.893475 131.056265 
L 109.497807 132.778922 
L 110.102139 135.485953 
L 111.310804 138.685172 
L 111.915136 139.17736 
L 112.519468 140.407828 
L 113.1238 140.161734 
L 114.332464 141.146109 
L 114.936796 142.622672 
L 115.541129 143.11486 
L 116.749793 144.591422 
L 117.354125 146.314078 
L 117.958457 147.05236 
L 118.562789 147.05236 
L 119.167121 140.653922 
L 119.771453 147.05236 
L 120.375786 150.005484 
L 120.980118 149.75939 
L 121.58445 148.036734 
L 122.188782 146.806265 
L 122.793114 147.298453 
L 123.397446 145.575797 
L 124.001778 145.083609 
L 125.210443 141.638297 
L 125.814775 139.17736 
L 126.419107 137.700797 
L 127.023439 134.501578 
L 127.627771 130.564078 
L 128.232103 128.103141 
L 128.836435 124.903922 
L 130.649432 118.997672 
L 131.253764 117.767203 
L 131.858096 115.55236 
L 132.462428 114.32189 
L 133.06676 114.567984 
L 133.671092 114.32189 
L 134.275425 112.353141 
L 136.088421 108.169547 
L 136.692753 107.67736 
L 137.297085 108.169547 
L 137.901417 108.169547 
L 139.110082 108.661734 
L 139.714414 108.169547 
L 140.318746 107.431265 
L 140.923078 105.462516 
L 141.52741 104.232047 
L 142.131742 103.985953 
L 143.340407 103.001578 
L 143.944739 103.73986 
L 144.549071 102.755484 
L 145.153403 101.525016 
L 145.757735 101.525016 
L 146.362067 103.001578 
L 146.966399 103.247672 
L 147.570731 103.73986 
L 148.175064 103.247672 
L 148.779396 102.017203 
L 149.383728 102.017203 
L 149.98806 102.50939 
L 150.592392 102.50939 
L 151.196724 98.079703 
L 151.801056 103.73986 
L 152.405389 105.216422 
L 153.009721 104.232047 
L 153.614053 102.755484 
L 154.218385 103.493765 
L 155.427049 102.50939 
L 156.635713 105.954703 
L 157.240046 105.708609 
L 157.844378 105.216422 
L 158.44871 105.954703 
L 159.053042 103.73986 
L 159.657374 102.755484 
L 160.261706 102.755484 
L 160.866038 103.247672 
L 161.47037 103.493765 
L 162.074703 103.493765 
L 162.679035 103.985953 
L 163.887699 106.692984 
L 164.492031 106.44689 
L 165.096363 106.939078 
L 165.700695 105.954703 
L 166.305027 104.478141 
L 166.90936 103.73986 
L 167.513692 102.755484 
L 168.118024 100.540641 
L 168.722356 97.341422 
L 169.326688 95.618765 
L 169.93102 91.681265 
L 170.535352 86.75939 
L 171.139685 72.732047 
L 171.744017 83.560172 
L 172.348349 81.099234 
L 173.557013 64.36486 
L 174.765677 50.091422 
L 175.370009 41.724234 
L 176.578674 35.57189 
L 177.183006 32.126578 
L 177.787338 31.880484 
L 178.39167 33.357047 
L 178.996002 31.142203 
L 179.600334 33.357047 
L 180.204666 34.587516 
L 180.808999 35.079703 
L 181.413331 35.325797 
L 182.017663 35.325797 
L 182.621995 34.341422 
L 183.226327 34.341422 
L 183.830659 35.57189 
L 185.039324 36.064078 
L 185.643656 36.556265 
L 187.456652 31.388297 
L 188.060984 30.650016 
L 188.665316 28.681265 
L 189.269648 28.92736 
L 189.873981 28.435172 
L 190.478313 27.450797 
L 191.082645 27.204703 
L 191.686977 26.712516 
L 192.291309 26.712516 
L 192.895641 25.974234 
L 193.499973 26.220328 
L 195.917302 34.095328 
L 196.521634 35.325797 
L 197.125966 44.431265 
L 197.730298 37.048453 
L 198.33463 36.064078 
L 199.543295 43.200797 
L 200.147627 45.415641 
L 200.751959 47.138297 
L 201.356291 49.845328 
L 201.960623 50.583609 
L 202.564955 52.306265 
L 203.77362 56.48986 
L 204.982284 60.181265 
L 205.586616 61.411734 
L 206.190948 61.903922 
L 206.79528 64.118765 
L 206.79528 64.118765 
" style="fill:none;stroke:#ff9500;stroke-linecap:square;stroke-width:0.7;"/>
   </g>
   <g id="patch_3">
    <path d="M 31.02528 156.305484 
L 31.02528 17.705484 
" style="fill:none;stroke:#000000;stroke-linecap:square;stroke-linejoin:miter;stroke-width:0.5;"/>
   </g>
   <g id="patch_4">
    <path d="M 215.16528 156.305484 
L 215.16528 17.705484 
" style="fill:none;stroke:#000000;stroke-linecap:square;stroke-linejoin:miter;stroke-width:0.5;"/>
   </g>
   <g id="patch_5">
    <path d="M 31.02528 156.305484 
L 215.16528 156.305484 
" style="fill:none;stroke:#000000;stroke-linecap:square;stroke-linejoin:miter;stroke-width:0.5;"/>
   </g>
   <g id="patch_6">
    <path d="M 31.02528 17.705484 
L 215.16528 17.705484 
" style="fill:none;stroke:#000000;stroke-linecap:square;stroke-linejoin:miter;stroke-width:0.5;"/>
   </g>
   <g id="text_10">
    <!-- Subject 1 - Trial 2 -->
    <g transform="translate(79.806054 11.705484)scale(0.12 -0.12)">
     <defs>
      <path d="M 44.703125 67.390625 
L 42.59375 67.390625 
C 42.203125 65.09375 41.09375 63.984375 39.40625 63.984375 
C 38.40625 63.984375 36.703125 64.390625 35 65.1875 
C 31.296875 67.1875 27.59375 68 24.40625 68 
C 20.09375 68 15.703125 66.296875 12.40625 63.390625 
C 8.90625 60.296875 7.09375 56.09375 7.09375 50.890625 
C 7.09375 42.890625 11.5 37.296875 22.703125 31.390625 
C 29.90625 27.59375 35.09375 23.5 37.59375 19.6875 
C 38.5 18.390625 39 16.296875 39 13.890625 
C 39 7.1875 34 2.59375 26.703125 2.59375 
C 17.796875 2.59375 11.5 8.09375 6.5 20.296875 
L 4.203125 20.296875 
L 7.203125 -0.90625 
L 9.40625 -0.90625 
C 9.5 0.59375 10.703125 2 12.203125 2 
C 13.296875 2 15 1.59375 16.90625 0.890625 
C 20.703125 -0.203125 24.703125 -1 28.703125 -1 
C 40.203125 -1 49.09375 6.890625 49.09375 17.1875 
C 49.09375 25.390625 43.59375 31.890625 30.40625 39 
C 19.90625 44.796875 15.703125 49.1875 15.703125 54.59375 
C 15.703125 60.09375 19.90625 63.890625 26.09375 63.890625 
C 30.59375 63.890625 34.796875 62 38.296875 58.390625 
C 41.40625 55.203125 42.796875 52.59375 44.40625 46.6875 
L 46.90625 46.6875 
z
" id="Nimbus_Roman_No9_L_Regular-83"/>
      <path d="M 15.296875 68.09375 
L 14.796875 68.296875 
C 10.59375 66.796875 7.90625 66 3.203125 64.6875 
L 0.296875 63.890625 
L 0.296875 62.296875 
C 0.90625 62.390625 1.296875 62.390625 2 62.390625 
C 6 62.390625 6.90625 61.5 6.90625 57.296875 
L 6.90625 5.390625 
C 6.90625 2.296875 15.40625 -1 23.40625 -1 
C 36.59375 -1 46.796875 9.984375 46.796875 24.296875 
C 46.796875 36.59375 39.203125 46 29.203125 46 
C 23.09375 46 17.296875 42.390625 15.296875 37.484375 
z
M 15.296875 32.1875 
C 15.296875 36.09375 20 39.6875 25.203125 39.6875 
C 33 39.6875 38 31.890625 38 19.6875 
C 38 8.59375 33.203125 2.1875 25 2.1875 
C 19.796875 2.1875 15.296875 4.484375 15.296875 6.984375 
z
" id="Nimbus_Roman_No9_L_Regular-98"/>
      <path d="M 19.296875 45.6875 
L 18.796875 46 
C 12.90625 43.6875 9.09375 42.390625 3.203125 40.578125 
L 3.203125 38.984375 
L 3.703125 39.078125 
C 5.203125 39.28125 6.703125 39.375 7.703125 39.375 
C 10 39.375 10.90625 37.671875 10.90625 33.359375 
L 10.90625 -4.65625 
C 10.90625 -12.28125 10.59375 -14.796875 9.5 -16.796875 
C 8.90625 -17.8125 7.5 -18.609375 6.09375 -18.609375 
C 4.59375 -18.609375 3.59375 -17.90625 1.90625 -15.796875 
C 0.09375 -13.484375 -1.296875 -12.59375 -2.90625 -12.59375 
C -5.203125 -12.59375 -7 -14.296875 -7 -16.5 
C -7 -19.703125 -3 -22 2.40625 -22 
C 13.40625 -22 19.296875 -14.390625 19.296875 -0.140625 
z
M 14.203125 68 
C 11.5 68 9.203125 65.6875 9.203125 62.890625 
C 9.203125 60.09375 11.40625 57.796875 14.203125 57.796875 
C 17.09375 57.796875 19.40625 59.984375 19.40625 62.890625 
C 19.40625 65.6875 17.09375 68 14.203125 68 
z
" id="Nimbus_Roman_No9_L_Regular-106"/>
      <path d="M 3.90625 26 
L 3.90625 19.6875 
L 28.5 19.6875 
L 28.5 26 
z
" id="Nimbus_Roman_No9_L_Regular-45"/>
      <path d="M 0.703125 39 
C 2.09375 39.296875 3 39.390625 4.203125 39.390625 
C 6.703125 39.390625 7.59375 37.796875 7.59375 33.390625 
L 7.59375 8.390625 
C 7.59375 3.390625 6.90625 2.6875 0.5 1.5 
L 0.5 0 
L 24.5 0 
L 24.5 1.5 
C 17.703125 1.796875 16 3.296875 16 9 
L 16 31.5 
C 16 34.6875 20.296875 39.6875 23 39.6875 
C 23.59375 39.6875 24.5 39.1875 25.59375 38.1875 
C 27.203125 36.796875 28.296875 36.1875 29.59375 36.1875 
C 32 36.1875 33.5 37.890625 33.5 40.6875 
C 33.5 43.984375 31.40625 46 28 46 
C 23.796875 46 20.90625 43.6875 16 36.59375 
L 16 45.796875 
L 15.5 46 
C 10.203125 43.796875 6.59375 42.5 0.703125 40.59375 
z
" id="Nimbus_Roman_No9_L_Regular-114"/>
      <path d="M 44.203125 6.59375 
C 42.5 5.1875 41.296875 4.6875 39.796875 4.6875 
C 37.5 4.6875 36.796875 6.09375 36.796875 10.5 
L 36.796875 30 
C 36.796875 35.1875 36.296875 38.09375 34.796875 40.5 
C 32.59375 44.09375 28.296875 46 22.40625 46 
C 13 46 5.59375 41.09375 5.59375 34.796875 
C 5.59375 32.5 7.59375 30.5 9.90625 30.5 
C 12.296875 30.5 14.40625 32.5 14.40625 34.6875 
C 14.40625 35.09375 14.296875 35.59375 14.203125 36.296875 
C 14 37.1875 13.90625 38 13.90625 38.6875 
C 13.90625 41.390625 17.09375 43.59375 21.09375 43.59375 
C 26 43.59375 28.703125 40.6875 28.703125 35.296875 
L 28.703125 29.1875 
C 13.296875 23 11.59375 22.1875 7.296875 18.390625 
C 5.09375 16.390625 3.703125 13 3.703125 9.6875 
C 3.703125 3.390625 8.09375 -1 14.203125 -1 
C 18.59375 -1 22.703125 1.09375 28.796875 6.296875 
C 29.296875 1.09375 31.09375 -1 35.203125 -1 
C 38.59375 -1 40.703125 0.1875 44.203125 4 
z
M 28.703125 12.296875 
C 28.703125 9.1875 28.203125 8.296875 26.09375 7.09375 
C 23.703125 5.6875 20.90625 4.796875 18.796875 4.796875 
C 15.296875 4.796875 12.5 8.1875 12.5 12.5 
L 12.5 12.890625 
C 12.5 18.796875 16.59375 22.390625 28.703125 26.796875 
z
" id="Nimbus_Roman_No9_L_Regular-97"/>
     </defs>
     <use transform="scale(0.996264)" xlink:href="#Nimbus_Roman_No9_L_Regular-83"/>
     <use transform="translate(55.391677 0)scale(0.996264)" xlink:href="#Nimbus_Roman_No9_L_Regular-117"/>
     <use transform="translate(105.204877 0)scale(0.996264)" xlink:href="#Nimbus_Roman_No9_L_Regular-98"/>
     <use transform="translate(155.018078 0)scale(0.996264)" xlink:href="#Nimbus_Roman_No9_L_Regular-106"/>
     <use transform="translate(182.713248 0)scale(0.996264)" xlink:href="#Nimbus_Roman_No9_L_Regular-101"/>
     <use transform="translate(226.946816 0)scale(0.996264)" xlink:href="#Nimbus_Roman_No9_L_Regular-99"/>
     <use transform="translate(271.180385 0)scale(0.996264)" xlink:href="#Nimbus_Roman_No9_L_Regular-116"/>
     <use transform="translate(323.782155 0)scale(0.996264)" xlink:href="#Nimbus_Roman_No9_L_Regular-49"/>
     <use transform="translate(398.501956 0)scale(0.996264)" xlink:href="#Nimbus_Roman_No9_L_Regular-45"/>
     <use transform="translate(456.583786 0)scale(0.996264)" xlink:href="#Nimbus_Roman_No9_L_Regular-84"/>
     <use transform="translate(513.96869 0)scale(0.996264)" xlink:href="#Nimbus_Roman_No9_L_Regular-114"/>
     <use transform="translate(547.14392 0)scale(0.996264)" xlink:href="#Nimbus_Roman_No9_L_Regular-105"/>
     <use transform="translate(574.839089 0)scale(0.996264)" xlink:href="#Nimbus_Roman_No9_L_Regular-97"/>
     <use transform="translate(619.072658 0)scale(0.996264)" xlink:href="#Nimbus_Roman_No9_L_Regular-108"/>
     <use transform="translate(671.674428 0)scale(0.996264)" xlink:href="#Nimbus_Roman_No9_L_Regular-50"/>
    </g>
   </g>
   <g id="legend_1">
    <g id="line2d_78">
     <path d="M 38.52228 28.616482 
L 55.18228 28.616482 
" style="fill:none;stroke:#0c5da5;stroke-linecap:square;stroke-width:0.7;"/>
    </g>
    <g id="line2d_79"/>
    <g id="text_11">
     <!-- Ground Truth -->
     <g transform="translate(61.84628 31.531982)scale(0.0833 -0.0833)">
      <defs>
       <path d="M 1.59375 39.796875 
C 2.203125 40.09375 3.203125 40.1875 4.296875 40.1875 
C 7.09375 40.1875 8 38.6875 8 33.796875 
L 8 9 
C 8 3.296875 6.90625 1.890625 1.796875 1.5 
L 1.796875 0 
L 23 0 
L 23 1.5 
C 17.90625 1.890625 16.40625 3.09375 16.40625 6.6875 
L 16.40625 34.796875 
C 21.203125 39.296875 23.40625 40.484375 26.703125 40.484375 
C 31.59375 40.484375 34 37.390625 34 30.796875 
L 34 9.890625 
C 34 3.59375 32.703125 1.890625 27.703125 1.5 
L 27.703125 0 
L 48.5 0 
L 48.5 1.5 
C 43.59375 2 42.40625 3.1875 42.40625 8.09375 
L 42.40625 31 
C 42.40625 40.390625 38 46 30.59375 46 
C 26 46 22.90625 44.296875 16.09375 37.890625 
L 16.09375 45.796875 
L 15.40625 46 
C 10.5 44.1875 7.09375 43.09375 1.59375 41.484375 
z
" id="Nimbus_Roman_No9_L_Regular-110"/>
       <path d="M 34.40625 -1 
L 49.09375 4.1875 
L 49.09375 5.796875 
C 47.296875 5.6875 47.09375 5.6875 46.796875 5.6875 
C 43.203125 5.6875 42.40625 6.796875 42.40625 11.390625 
L 42.40625 68.09375 
L 41.90625 68.296875 
C 37.09375 66.59375 33.59375 65.59375 27.203125 63.890625 
L 27.203125 62.296875 
C 28 62.390625 28.59375 62.390625 29.40625 62.390625 
C 33.09375 62.390625 34 61.390625 34 57.296875 
L 34 41.6875 
C 30.203125 44.890625 27.5 46 23.5 46 
C 12 46 2.703125 34.6875 2.703125 20.5 
C 2.703125 7.6875 10.203125 -1 21.203125 -1 
C 26.796875 -1 30.59375 1 34 5.6875 
L 34 -0.703125 
z
M 34 10.1875 
C 34 9.5 33.296875 8.296875 32.296875 7.1875 
C 30.5 5.1875 28 4.1875 25.09375 4.1875 
C 16.796875 4.1875 11.296875 12.1875 11.296875 24.5 
C 11.296875 35.796875 16.203125 43.1875 23.796875 43.1875 
C 29.09375 43.1875 34 38.5 34 33.1875 
z
" id="Nimbus_Roman_No9_L_Regular-100"/>
       <path d="M 15.703125 34.296875 
C 19.90625 38.890625 22.90625 40.59375 26.796875 40.59375 
C 31.796875 40.59375 34.296875 37 34.296875 30 
L 34.296875 10.1875 
C 34.296875 3.390625 33.296875 2.09375 27.5 1.5 
L 27.5 0 
L 48.703125 0 
L 48.703125 1.5 
C 43.296875 2.5 42.703125 3.296875 42.703125 10.1875 
L 42.703125 30.09375 
C 42.703125 40.59375 38.5 46 30.40625 46 
C 24.5 46 20.296875 43.59375 15.703125 37.59375 
L 15.703125 68 
L 15.203125 68.296875 
C 11.796875 67.09375 9.296875 66.296875 3.703125 64.6875 
L 1 63.890625 
L 1 62.296875 
C 1.40625 62.390625 1.703125 62.390625 2.203125 62.390625 
C 6.5 62.390625 7.296875 61.59375 7.296875 57.296875 
L 7.296875 10.1875 
C 7.296875 3.1875 6.703125 2.296875 0.90625 1.5 
L 0.90625 0 
L 22.5 0 
L 22.5 1.5 
C 16.703125 2.09375 15.703125 3.296875 15.703125 10.1875 
z
" id="Nimbus_Roman_No9_L_Regular-104"/>
      </defs>
      <use transform="scale(0.996264)" xlink:href="#Nimbus_Roman_No9_L_Regular-71"/>
      <use transform="translate(71.929985 0)scale(0.996264)" xlink:href="#Nimbus_Roman_No9_L_Regular-114"/>
      <use transform="translate(105.105215 0)scale(0.996264)" xlink:href="#Nimbus_Roman_No9_L_Regular-111"/>
      <use transform="translate(154.918415 0)scale(0.996264)" xlink:href="#Nimbus_Roman_No9_L_Regular-117"/>
      <use transform="translate(204.731616 0)scale(0.996264)" xlink:href="#Nimbus_Roman_No9_L_Regular-110"/>
      <use transform="translate(254.544816 0)scale(0.996264)" xlink:href="#Nimbus_Roman_No9_L_Regular-100"/>
      <use transform="translate(329.264617 0)scale(0.996264)" xlink:href="#Nimbus_Roman_No9_L_Regular-84"/>
      <use transform="translate(386.649521 0)scale(0.996264)" xlink:href="#Nimbus_Roman_No9_L_Regular-114"/>
      <use transform="translate(419.824751 0)scale(0.996264)" xlink:href="#Nimbus_Roman_No9_L_Regular-117"/>
      <use transform="translate(469.637951 0)scale(0.996264)" xlink:href="#Nimbus_Roman_No9_L_Regular-116"/>
      <use transform="translate(497.333121 0)scale(0.996264)" xlink:href="#Nimbus_Roman_No9_L_Regular-104"/>
     </g>
    </g>
    <g id="line2d_80">
     <path d="M 38.52228 40.907619 
L 55.18228 40.907619 
" style="fill:none;stroke:#00b945;stroke-linecap:square;stroke-width:0.7;"/>
    </g>
    <g id="line2d_81"/>
    <g id="text_12">
     <!-- Software (float) -->
     <g transform="translate(61.84628 43.823119)scale(0.0833 -0.0833)">
      <defs>
       <path d="M 30.90625 45 
L 18.59375 45 
L 18.59375 56.421875 
C 18.59375 62.140625 20.5 65.1875 24.296875 65.1875 
C 26.40625 65.1875 27.796875 64.203125 29.59375 61.34375 
C 31.203125 58.78125 32.40625 57.796875 34.09375 57.796875 
C 36.40625 57.796875 38.296875 59.578125 38.296875 61.84375 
C 38.296875 65.390625 33.90625 68 27.90625 68 
C 21.703125 68 16.40625 65.296875 13.796875 60.765625 
C 11.203125 56.421875 10.40625 52.875 10.296875 45 
L 2.09375 45 
L 2.09375 41.796875 
L 10.296875 41.796875 
L 10.296875 10.390625 
C 10.296875 3.09375 9.203125 1.890625 2 1.5 
L 2 0 
L 28 0 
L 28 1.5 
C 19.796875 1.796875 18.703125 2.890625 18.703125 10.390625 
L 18.703125 41.796875 
L 30.90625 41.796875 
z
" id="Nimbus_Roman_No9_L_Regular-102"/>
       <path d="M 57.09375 45 
L 57.09375 43.484375 
C 60.5 42.796875 61.5 42.109375 61.5 40.421875 
C 61.5 38.9375 60.90625 36.5625 59.796875 33.875 
L 50.796875 11.890625 
L 42.40625 34.078125 
C 40.703125 38.640625 40.703125 38.640625 40.703125 39.921875 
C 40.703125 42.109375 41.796875 42.796875 46.5 43.484375 
L 46.5 45 
L 26.203125 45 
L 26.203125 43.484375 
C 29.90625 43.09375 31.09375 42 33.09375 36.65625 
C 33.796875 34.765625 34.5 32.890625 35.09375 31.109375 
L 26 11.390625 
L 16.09375 37.25 
C 15.703125 38.234375 15.5 39.234375 15.5 40.21875 
C 15.5 42.296875 16.703125 43.09375 20.09375 43.484375 
L 20.09375 45 
L 2.09375 45 
L 2.09375 43.484375 
C 4.40625 43.296875 5.203125 42.296875 7.40625 37.25 
L 20.90625 3.375 
C 22.09375 0.390625 22.90625 -1 23.5 -1 
C 24 -1 24.796875 0.296875 26 2.875 
L 37.203125 26.65625 
L 46.296875 3.265625 
C 47.703125 -0.40625 48.09375 -1 48.703125 -1 
C 49.40625 -1 49.90625 -0.109375 51.5 3.859375 
L 65.296875 38.140625 
C 67.09375 42.296875 67.40625 42.796875 69.40625 43.484375 
L 69.40625 45 
z
" id="Nimbus_Roman_No9_L_Regular-119"/>
       <path d="M 3.203125 41.796875 
L 10.09375 41.796875 
L 10.09375 10.5 
C 10.09375 6 9.5 3.5 8.09375 2.59375 
C 7.09375 1.890625 6.09375 1.6875 3.203125 1.5 
L 3.203125 0 
L 25.59375 0 
L 25.59375 1.5 
C 19.90625 2.09375 18.5 3.296875 18.5 7.890625 
L 18.5 41.796875 
L 37.296875 41.796875 
L 37.296875 8.390625 
C 37.296875 3.5 35.796875 1.890625 30.59375 1.5 
L 30.59375 0 
L 52.09375 0 
L 52.09375 1.5 
C 46.703125 1.890625 45.703125 2.890625 45.703125 8.09375 
L 45.703125 67.6875 
L 45.203125 67.890625 
C 44.40625 67.796875 43.296875 67.390625 42.09375 66.796875 
C 40.203125 65.890625 38.796875 65.390625 37.90625 65.390625 
C 37.40625 65.390625 36.40625 65.6875 34.90625 66.1875 
C 32.09375 67.390625 29.203125 68 26.796875 68 
C 22.09375 68 17.5 65.59375 14.703125 61.75 
C 11.703125 57.5 10.703125 53.65625 10.296875 45 
L 3.203125 45 
z
M 37.296875 45 
L 18.5 45 
L 18.5 50.109375 
C 18.5 60.359375 20.59375 65.296875 25 65.296875 
C 27.203125 65.296875 28.40625 64.5 30.203125 61.84375 
C 32.09375 58.890625 33.40625 58 35.703125 58 
C 36.40625 58 36.796875 58.1875 37.296875 58.6875 
z
" id="Nimbus_Roman_No9_L_Regular-3"/>
      </defs>
      <use transform="scale(0.996264)" xlink:href="#Nimbus_Roman_No9_L_Regular-83"/>
      <use transform="translate(55.391677 0)scale(0.996264)" xlink:href="#Nimbus_Roman_No9_L_Regular-111"/>
      <use transform="translate(105.204877 0)scale(0.996264)" xlink:href="#Nimbus_Roman_No9_L_Regular-102"/>
      <use transform="translate(138.380107 0)scale(0.996264)" xlink:href="#Nimbus_Roman_No9_L_Regular-116"/>
      <use transform="translate(166.075277 0)scale(0.996264)" xlink:href="#Nimbus_Roman_No9_L_Regular-119"/>
      <use transform="translate(237.009165 0)scale(0.996264)" xlink:href="#Nimbus_Roman_No9_L_Regular-97"/>
      <use transform="translate(281.242734 0)scale(0.996264)" xlink:href="#Nimbus_Roman_No9_L_Regular-114"/>
      <use transform="translate(314.417963 0)scale(0.996264)" xlink:href="#Nimbus_Roman_No9_L_Regular-101"/>
      <use transform="translate(383.558132 0)scale(0.996264)" xlink:href="#Nimbus_Roman_No9_L_Regular-40"/>
      <use transform="translate(416.733362 0)scale(0.996264)" xlink:href="#Nimbus_Roman_No9_L_Regular-3"/>
      <use transform="translate(472.125039 0)scale(0.996264)" xlink:href="#Nimbus_Roman_No9_L_Regular-111"/>
      <use transform="translate(521.938239 0)scale(0.996264)" xlink:href="#Nimbus_Roman_No9_L_Regular-97"/>
      <use transform="translate(566.171808 0)scale(0.996264)" xlink:href="#Nimbus_Roman_No9_L_Regular-116"/>
      <use transform="translate(593.866978 0)scale(0.996264)" xlink:href="#Nimbus_Roman_No9_L_Regular-41"/>
     </g>
    </g>
    <g id="line2d_82">
     <path d="M 38.52228 53.198755 
L 55.18228 53.198755 
" style="fill:none;stroke:#ff9500;stroke-linecap:square;stroke-width:0.7;"/>
    </g>
    <g id="line2d_83"/>
    <g id="text_13">
     <!-- FPGA (fixed-point) -->
     <g transform="translate(61.84628 56.114255)scale(0.0833 -0.0833)">
      <defs>
       <path d="M 47.90625 23.296875 
L 47.90625 46.34375 
L 45.59375 46.34375 
C 44.40625 38.46875 42.59375 37 34.59375 37 
L 20.09375 37 
L 20.09375 58.84375 
C 20.09375 61.59375 20.59375 62.1875 23.296875 62.1875 
L 36.90625 62.1875 
C 48.203125 62.1875 50.40625 60.71875 52.09375 51.859375 
L 54.59375 51.859375 
L 54.296875 66 
L 1.203125 66 
L 1.203125 64.09375 
C 8.59375 63.5 9.90625 62.125 9.90625 55.21875 
L 9.90625 12.0625 
C 9.90625 3.703125 8.796875 2.390625 1.203125 1.890625 
L 1.203125 0 
L 29.203125 0 
L 29.203125 1.890625 
C 21.5 2.296875 20.09375 3.703125 20.09375 10.953125 
L 20.09375 32.890625 
L 34.59375 32.890625 
C 42.703125 32.890625 44.40625 31.375 45.59375 23.234375 
z
" id="Nimbus_Roman_No9_L_Regular-70"/>
       <path d="M 20.203125 29.296875 
C 22.796875 29.09375 24.5 28.984375 27.09375 28.984375 
C 34.90625 28.984375 40.296875 29.984375 44.59375 32.390625 
C 50.59375 35.5625 54.203125 41.578125 54.203125 48.078125 
C 54.203125 52.234375 52.796875 55.984375 50.09375 58.84375 
C 46.09375 63.1875 37.40625 66 28 66 
L 1.59375 66 
L 1.59375 64.09375 
C 9 63.296875 10 62.296875 10 55.125 
L 10 11.953125 
C 10 3.59375 9.203125 2.59375 1.59375 1.890625 
L 1.59375 0 
L 29.59375 0 
L 29.59375 1.890625 
C 21.703125 2.1875 20.203125 3.59375 20.203125 10.859375 
z
M 20.203125 58.9375 
C 20.203125 61.59375 20.90625 62.296875 23.59375 62.296875 
C 37.09375 62.296875 43.296875 57.65625 43.296875 47.5 
C 43.296875 37.921875 37.40625 33 25.90625 33 
C 23.90625 33 22.5 33.09375 20.203125 33.28125 
z
" id="Nimbus_Roman_No9_L_Regular-80"/>
       <path d="M 70.59375 1.890625 
C 66.09375 2.203125 65.09375 3.203125 61.59375 10.71875 
L 36.703125 67 
L 34.703125 67 
L 13.90625 18.546875 
C 7.5 3.71875 6.296875 2.09375 1.5 1.890625 
L 1.5 0 
L 21.296875 0 
L 21.296875 1.890625 
C 16.5 1.890625 14.5 3.203125 14.5 6.046875 
C 14.5 7.265625 14.796875 8.6875 15.296875 10.015625 
L 19.90625 21.890625 
L 46.09375 21.890625 
L 50.203125 12.140625 
C 51.40625 9.40625 52.09375 6.765625 52.09375 5.34375 
C 52.09375 2.796875 50.40625 2 45.09375 1.890625 
L 45.09375 0 
L 70.59375 0 
z
M 21.59375 26 
L 33.09375 53 
L 44.703125 26 
z
" id="Nimbus_Roman_No9_L_Regular-65"/>
       <path d="M 3.09375 41.6875 
L 9.90625 41.6875 
L 9.90625 9.390625 
C 9.90625 3 8.796875 1.6875 3.203125 1.5 
L 3.203125 0 
L 25.203125 0 
L 25.203125 1.5 
C 19.59375 1.890625 18.296875 3.296875 18.296875 8.796875 
L 18.296875 41.6875 
L 26.90625 41.6875 
C 36.5 41.6875 37 41.390625 37 36.09375 
L 37 9.6875 
C 37 2.890625 36.296875 2 30.09375 1.5 
L 30.09375 0 
L 52.09375 0 
L 52.09375 1.5 
C 46.5 2 45.40625 3.296875 45.40625 9.6875 
L 45.40625 35.890625 
C 45.40625 38.09375 45.40625 40.390625 45.59375 45.6875 
L 45.203125 46 
C 40.796875 45.28125 37.90625 45 33.90625 45 
L 18.203125 45 
L 18.203125 49.234375 
C 18.203125 53.5625 18.5 56.625 19 58.296875 
C 20.40625 62.53125 24.296875 65.484375 28.796875 65.484375 
C 31.59375 65.484375 33.5 64.203125 35.90625 60.859375 
C 37.796875 58.203125 39.09375 57.21875 40.796875 57.21875 
C 42.90625 57.21875 44.40625 58.890625 44.40625 61.0625 
C 44.40625 65.203125 39.40625 68 31.703125 68 
C 24.09375 68 18.296875 65.390625 14.703125 60.5625 
C 11.703125 56.515625 10.59375 52.875 10 45 
L 3.09375 45 
z
" id="Nimbus_Roman_No9_L_Regular-2"/>
       <path d="M 27.796875 0 
L 47.90625 0 
L 47.90625 1.5 
C 44.796875 1.5 42.796875 3.09375 39.703125 7.5 
L 26.90625 27.09375 
L 35.203125 39.09375 
C 37.09375 41.796875 40.09375 43.390625 43.296875 43.484375 
L 43.296875 45 
L 27.5 45 
L 27.5 43.484375 
C 30.5 43.296875 31.5 42.6875 31.5 41.296875 
C 31.5 40.09375 30.296875 37.890625 27.796875 34.796875 
C 27.296875 34.1875 26.09375 32.390625 24.796875 30.390625 
L 23.40625 32.390625 
C 20.59375 36.59375 18.796875 40 18.796875 41.296875 
C 18.796875 42.6875 20.09375 43.390625 23.09375 43.484375 
L 23.09375 45 
L 2.40625 45 
L 2.40625 43.484375 
L 3.296875 43.484375 
C 6.296875 43.484375 7.90625 42.1875 11 37.5 
L 20.40625 23.09375 
L 9 6.59375 
C 6 2.5 5 1.796875 1.703125 1.5 
L 1.703125 0 
L 16.203125 0 
L 16.203125 1.5 
C 13.40625 1.5 12.203125 2 12.203125 3.296875 
C 12.203125 3.890625 12.90625 5.390625 14.203125 7.390625 
L 22.09375 19.6875 
L 31.203125 5.6875 
C 31.59375 5.09375 31.796875 4.5 31.796875 3.890625 
C 31.796875 2.09375 31.09375 1.6875 27.796875 1.5 
z
" id="Nimbus_Roman_No9_L_Regular-120"/>
      </defs>
      <use transform="scale(0.996264)" xlink:href="#Nimbus_Roman_No9_L_Regular-70"/>
      <use transform="translate(55.391677 0)scale(0.996264)" xlink:href="#Nimbus_Roman_No9_L_Regular-80"/>
      <use transform="translate(110.783354 0)scale(0.996264)" xlink:href="#Nimbus_Roman_No9_L_Regular-71"/>
      <use transform="translate(182.713339 0)scale(0.996264)" xlink:href="#Nimbus_Roman_No9_L_Regular-65"/>
      <use transform="translate(279.549924 0)scale(0.996264)" xlink:href="#Nimbus_Roman_No9_L_Regular-40"/>
      <use transform="translate(312.725154 0)scale(0.996264)" xlink:href="#Nimbus_Roman_No9_L_Regular-2"/>
      <use transform="translate(368.116831 0)scale(0.996264)" xlink:href="#Nimbus_Roman_No9_L_Regular-120"/>
      <use transform="translate(416.436638 0)scale(0.996264)" xlink:href="#Nimbus_Roman_No9_L_Regular-101"/>
      <use transform="translate(460.670207 0)scale(0.996264)" xlink:href="#Nimbus_Roman_No9_L_Regular-100"/>
      <use transform="translate(510.483408 0)scale(0.996264)" xlink:href="#Nimbus_Roman_No9_L_Regular-45"/>
      <use transform="translate(543.658637 0)scale(0.996264)" xlink:href="#Nimbus_Roman_No9_L_Regular-112"/>
      <use transform="translate(593.471838 0)scale(0.996264)" xlink:href="#Nimbus_Roman_No9_L_Regular-111"/>
      <use transform="translate(643.285038 0)scale(0.996264)" xlink:href="#Nimbus_Roman_No9_L_Regular-105"/>
      <use transform="translate(670.980208 0)scale(0.996264)" xlink:href="#Nimbus_Roman_No9_L_Regular-110"/>
      <use transform="translate(720.793408 0)scale(0.996264)" xlink:href="#Nimbus_Roman_No9_L_Regular-116"/>
      <use transform="translate(748.488578 0)scale(0.996264)" xlink:href="#Nimbus_Roman_No9_L_Regular-41"/>
     </g>
    </g>
   </g>
  </g>
 </g>
 <defs>
  <clipPath id="p5e5b422bc5">
   <rect height="138.6" width="184.14" x="31.02528" y="17.705484"/>
  </clipPath>
 </defs>
</svg>
