<?xml version="1.0" encoding="utf-8" standalone="no"?>
<!DOCTYPE svg PUBLIC "-//W3C//DTD SVG 1.1//EN"
  "http://www.w3.org/Graphics/SVG/1.1/DTD/svg11.dtd">
<!-- Created with matplotlib (https://matplotlib.org/) -->
<svg height="185.228297pt" version="1.1" viewBox="0 0 222.719434 185.228297" width="222.719434pt" xmlns="http://www.w3.org/2000/svg" xmlns:xlink="http://www.w3.org/1999/xlink">
 <metadata>
  <rdf:RDF xmlns:cc="http://creativecommons.org/ns#" xmlns:dc="http://purl.org/dc/elements/1.1/" xmlns:rdf="http://www.w3.org/1999/02/22-rdf-syntax-ns#">
   <cc:Work>
    <dc:type rdf:resource="http://purl.org/dc/dcmitype/StillImage"/>
    <dc:date>2022-02-04T22:15:29.829839</dc:date>
    <dc:format>image/svg+xml</dc:format>
    <dc:creator>
     <cc:Agent>
      <dc:title>Matplotlib v3.3.4, https://matplotlib.org/</dc:title>
     </cc:Agent>
    </dc:creator>
   </cc:Work>
  </rdf:RDF>
 </metadata>
 <defs>
  <style type="text/css">*{stroke-linecap:butt;stroke-linejoin:round;}</style>
 </defs>
 <g id="figure_1">
  <g id="patch_1">
   <path d="M 0 185.228297 
L 222.719434 185.228297 
L 222.719434 0 
L 0 0 
z
" style="fill:#ffffff;"/>
  </g>
  <g id="axes_1">
   <g id="patch_2">
    <path d="M 31.02528 156.305484 
L 215.16528 156.305484 
L 215.16528 17.705484 
L 31.02528 17.705484 
z
" style="fill:#ffffff;"/>
   </g>
   <g id="matplotlib.axis_1">
    <g id="xtick_1">
     <g id="line2d_1">
      <defs>
       <path d="M 0 0 
L 0 -3 
" id="m60b4ff4214" style="stroke:#000000;stroke-width:0.5;"/>
      </defs>
      <g>
       <use style="stroke:#000000;stroke-width:0.5;" x="90.343106" xlink:href="#m60b4ff4214" y="156.305484"/>
      </g>
     </g>
     <g id="line2d_2">
      <defs>
       <path d="M 0 0 
L 0 3 
" id="m3d073bab72" style="stroke:#000000;stroke-width:0.5;"/>
      </defs>
      <g>
       <use style="stroke:#000000;stroke-width:0.5;" x="90.343106" xlink:href="#m3d073bab72" y="17.705484"/>
      </g>
     </g>
     <g id="text_1">
      <!-- $\mathdefault{100}$ -->
      <g transform="translate(82.871126 166.560062)scale(0.1 -0.1)">
       <defs>
        <path d="M 29.09375 68 
L 11.09375 59 
L 11.09375 57.59375 
C 12.296875 58.09375 13.40625 58.484375 13.796875 58.6875 
C 15.59375 59.390625 17.296875 59.78125 18.296875 59.78125 
C 20.40625 59.78125 21.296875 58.296875 21.296875 55.078125 
L 21.296875 9.359375 
C 21.296875 6.03125 20.5 3.71875 18.90625 2.796875 
C 17.40625 1.890625 16 1.59375 11.796875 1.5 
L 11.796875 0 
L 39.40625 0 
L 39.40625 1.5 
C 31.5 1.59375 29.90625 2.609375 29.90625 7.453125 
L 29.90625 67.796875 
z
" id="Nimbus_Roman_No9_L_Regular-49"/>
        <path d="M 25.40625 68 
C 19.90625 68 15.703125 66.296875 12 62.796875 
C 6.203125 57.203125 2.40625 45.6875 2.40625 34 
C 2.40625 23.09375 5.703125 11.390625 10.40625 5.796875 
C 14.09375 1.390625 19.203125 -1 25 -1 
C 30.09375 -1 34.40625 0.6875 38 4.1875 
C 43.796875 9.6875 47.59375 21.296875 47.59375 33.390625 
C 47.59375 53.890625 38.5 68 25.40625 68 
z
M 25.09375 65.390625 
C 33.5 65.390625 38 54.09375 38 33.1875 
C 38 12.296875 33.59375 1.59375 25 1.59375 
C 16.40625 1.59375 12 12.296875 12 33.09375 
C 12 54.296875 16.5 65.390625 25.09375 65.390625 
z
" id="Nimbus_Roman_No9_L_Regular-48"/>
       </defs>
       <use transform="scale(0.996264)" xlink:href="#Nimbus_Roman_No9_L_Regular-49"/>
       <use transform="translate(49.8132 0)scale(0.996264)" xlink:href="#Nimbus_Roman_No9_L_Regular-48"/>
       <use transform="translate(99.626401 0)scale(0.996264)" xlink:href="#Nimbus_Roman_No9_L_Regular-48"/>
      </g>
     </g>
    </g>
    <g id="xtick_2">
     <g id="line2d_3">
      <g>
       <use style="stroke:#000000;stroke-width:0.5;" x="150.99528" xlink:href="#m60b4ff4214" y="156.305484"/>
      </g>
     </g>
     <g id="line2d_4">
      <g>
       <use style="stroke:#000000;stroke-width:0.5;" x="150.99528" xlink:href="#m3d073bab72" y="17.705484"/>
      </g>
     </g>
     <g id="text_2">
      <!-- $\mathdefault{200}$ -->
      <g transform="translate(143.5233 166.560062)scale(0.1 -0.1)">
       <defs>
        <path d="M 47.5 13.734375 
L 46.203125 14.25 
C 42.5 8.5 41.203125 7.59375 36.703125 7.59375 
L 12.796875 7.59375 
L 29.59375 25.328125 
C 38.5 34.703125 42.40625 42.359375 42.40625 50.21875 
C 42.40625 60.28125 34.296875 68 23.90625 68 
C 18.40625 68 13.203125 65.796875 9.5 61.796875 
C 6.296875 58.375 4.796875 55.15625 3.09375 48 
L 5.203125 47.484375 
C 9.203125 57.359375 12.796875 60.59375 19.703125 60.59375 
C 28.09375 60.59375 33.796875 54.84375 33.796875 46.390625 
C 33.796875 38.53125 29.203125 29.15625 20.796875 20.1875 
L 3 1.1875 
L 3 0 
L 42 0 
z
" id="Nimbus_Roman_No9_L_Regular-50"/>
       </defs>
       <use transform="scale(0.996264)" xlink:href="#Nimbus_Roman_No9_L_Regular-50"/>
       <use transform="translate(49.8132 0)scale(0.996264)" xlink:href="#Nimbus_Roman_No9_L_Regular-48"/>
       <use transform="translate(99.626401 0)scale(0.996264)" xlink:href="#Nimbus_Roman_No9_L_Regular-48"/>
      </g>
     </g>
    </g>
    <g id="xtick_3">
     <g id="line2d_5">
      <g>
       <use style="stroke:#000000;stroke-width:0.5;" x="211.647454" xlink:href="#m60b4ff4214" y="156.305484"/>
      </g>
     </g>
     <g id="line2d_6">
      <g>
       <use style="stroke:#000000;stroke-width:0.5;" x="211.647454" xlink:href="#m3d073bab72" y="17.705484"/>
      </g>
     </g>
     <g id="text_3">
      <!-- $\mathdefault{300}$ -->
      <g transform="translate(204.175474 166.560062)scale(0.1 -0.1)">
       <defs>
        <path d="M 15.296875 33.390625 
C 21.203125 33.390625 23.5 33.1875 25.90625 32.296875 
C 32.09375 30.09375 36 24.390625 36 17.5 
C 36 9.09375 30.296875 2.59375 22.90625 2.59375 
C 20.203125 2.59375 18.203125 3.296875 14.5 5.6875 
C 11.5 7.5 9.796875 8.1875 8.09375 8.1875 
C 5.796875 8.1875 4.296875 6.796875 4.296875 4.6875 
C 4.296875 1.1875 8.59375 -1 15.59375 -1 
C 23.296875 -1 31.203125 1.59375 35.90625 5.6875 
C 40.59375 9.796875 43.203125 15.59375 43.203125 22.296875 
C 43.203125 27.390625 41.59375 32.09375 38.703125 35.1875 
C 36.703125 37.390625 34.796875 38.59375 30.40625 40.5 
C 37.296875 45.1875 39.796875 48.890625 39.796875 54.296875 
C 39.796875 62.390625 33.40625 68 24.203125 68 
C 19.203125 68 14.796875 66.296875 11.203125 63.09375 
C 8.203125 60.390625 6.703125 57.796875 4.5 51.796875 
L 6 51.390625 
C 10.09375 58.703125 14.59375 61.984375 20.90625 61.984375 
C 27.40625 61.984375 31.90625 57.59375 31.90625 51.296875 
C 31.90625 47.6875 30.40625 44.09375 27.90625 41.59375 
C 24.90625 38.59375 22.09375 37.09375 15.296875 34.6875 
z
" id="Nimbus_Roman_No9_L_Regular-51"/>
       </defs>
       <use transform="scale(0.996264)" xlink:href="#Nimbus_Roman_No9_L_Regular-51"/>
       <use transform="translate(49.8132 0)scale(0.996264)" xlink:href="#Nimbus_Roman_No9_L_Regular-48"/>
       <use transform="translate(99.626401 0)scale(0.996264)" xlink:href="#Nimbus_Roman_No9_L_Regular-48"/>
      </g>
     </g>
    </g>
    <g id="xtick_4">
     <g id="line2d_7">
      <defs>
       <path d="M 0 0 
L 0 -1.5 
" id="m4b68805f1d" style="stroke:#000000;stroke-width:0.5;"/>
      </defs>
      <g>
       <use style="stroke:#000000;stroke-width:0.5;" x="41.821367" xlink:href="#m4b68805f1d" y="156.305484"/>
      </g>
     </g>
     <g id="line2d_8">
      <defs>
       <path d="M 0 0 
L 0 1.5 
" id="m9babc1dcb7" style="stroke:#000000;stroke-width:0.5;"/>
      </defs>
      <g>
       <use style="stroke:#000000;stroke-width:0.5;" x="41.821367" xlink:href="#m9babc1dcb7" y="17.705484"/>
      </g>
     </g>
    </g>
    <g id="xtick_5">
     <g id="line2d_9">
      <g>
       <use style="stroke:#000000;stroke-width:0.5;" x="53.951802" xlink:href="#m4b68805f1d" y="156.305484"/>
      </g>
     </g>
     <g id="line2d_10">
      <g>
       <use style="stroke:#000000;stroke-width:0.5;" x="53.951802" xlink:href="#m9babc1dcb7" y="17.705484"/>
      </g>
     </g>
    </g>
    <g id="xtick_6">
     <g id="line2d_11">
      <g>
       <use style="stroke:#000000;stroke-width:0.5;" x="66.082237" xlink:href="#m4b68805f1d" y="156.305484"/>
      </g>
     </g>
     <g id="line2d_12">
      <g>
       <use style="stroke:#000000;stroke-width:0.5;" x="66.082237" xlink:href="#m9babc1dcb7" y="17.705484"/>
      </g>
     </g>
    </g>
    <g id="xtick_7">
     <g id="line2d_13">
      <g>
       <use style="stroke:#000000;stroke-width:0.5;" x="78.212672" xlink:href="#m4b68805f1d" y="156.305484"/>
      </g>
     </g>
     <g id="line2d_14">
      <g>
       <use style="stroke:#000000;stroke-width:0.5;" x="78.212672" xlink:href="#m9babc1dcb7" y="17.705484"/>
      </g>
     </g>
    </g>
    <g id="xtick_8">
     <g id="line2d_15">
      <g>
       <use style="stroke:#000000;stroke-width:0.5;" x="102.473541" xlink:href="#m4b68805f1d" y="156.305484"/>
      </g>
     </g>
     <g id="line2d_16">
      <g>
       <use style="stroke:#000000;stroke-width:0.5;" x="102.473541" xlink:href="#m9babc1dcb7" y="17.705484"/>
      </g>
     </g>
    </g>
    <g id="xtick_9">
     <g id="line2d_17">
      <g>
       <use style="stroke:#000000;stroke-width:0.5;" x="114.603976" xlink:href="#m4b68805f1d" y="156.305484"/>
      </g>
     </g>
     <g id="line2d_18">
      <g>
       <use style="stroke:#000000;stroke-width:0.5;" x="114.603976" xlink:href="#m9babc1dcb7" y="17.705484"/>
      </g>
     </g>
    </g>
    <g id="xtick_10">
     <g id="line2d_19">
      <g>
       <use style="stroke:#000000;stroke-width:0.5;" x="126.734411" xlink:href="#m4b68805f1d" y="156.305484"/>
      </g>
     </g>
     <g id="line2d_20">
      <g>
       <use style="stroke:#000000;stroke-width:0.5;" x="126.734411" xlink:href="#m9babc1dcb7" y="17.705484"/>
      </g>
     </g>
    </g>
    <g id="xtick_11">
     <g id="line2d_21">
      <g>
       <use style="stroke:#000000;stroke-width:0.5;" x="138.864845" xlink:href="#m4b68805f1d" y="156.305484"/>
      </g>
     </g>
     <g id="line2d_22">
      <g>
       <use style="stroke:#000000;stroke-width:0.5;" x="138.864845" xlink:href="#m9babc1dcb7" y="17.705484"/>
      </g>
     </g>
    </g>
    <g id="xtick_12">
     <g id="line2d_23">
      <g>
       <use style="stroke:#000000;stroke-width:0.5;" x="163.125715" xlink:href="#m4b68805f1d" y="156.305484"/>
      </g>
     </g>
     <g id="line2d_24">
      <g>
       <use style="stroke:#000000;stroke-width:0.5;" x="163.125715" xlink:href="#m9babc1dcb7" y="17.705484"/>
      </g>
     </g>
    </g>
    <g id="xtick_13">
     <g id="line2d_25">
      <g>
       <use style="stroke:#000000;stroke-width:0.5;" x="175.25615" xlink:href="#m4b68805f1d" y="156.305484"/>
      </g>
     </g>
     <g id="line2d_26">
      <g>
       <use style="stroke:#000000;stroke-width:0.5;" x="175.25615" xlink:href="#m9babc1dcb7" y="17.705484"/>
      </g>
     </g>
    </g>
    <g id="xtick_14">
     <g id="line2d_27">
      <g>
       <use style="stroke:#000000;stroke-width:0.5;" x="187.386585" xlink:href="#m4b68805f1d" y="156.305484"/>
      </g>
     </g>
     <g id="line2d_28">
      <g>
       <use style="stroke:#000000;stroke-width:0.5;" x="187.386585" xlink:href="#m9babc1dcb7" y="17.705484"/>
      </g>
     </g>
    </g>
    <g id="xtick_15">
     <g id="line2d_29">
      <g>
       <use style="stroke:#000000;stroke-width:0.5;" x="199.517019" xlink:href="#m4b68805f1d" y="156.305484"/>
      </g>
     </g>
     <g id="line2d_30">
      <g>
       <use style="stroke:#000000;stroke-width:0.5;" x="199.517019" xlink:href="#m9babc1dcb7" y="17.705484"/>
      </g>
     </g>
    </g>
    <g id="text_4">
     <!-- Timestep \# -->
     <g transform="translate(100.993439 179.471468)scale(0.1 -0.1)">
      <defs>
       <path d="M 25.40625 61.796875 
L 25.40625 11.953125 
C 25.40625 3.484375 24.296875 2.390625 16 1.890625 
L 16 0 
L 45.203125 0 
L 45.203125 1.890625 
C 37 2.296875 35.59375 3.59375 35.59375 10.859375 
L 35.59375 61.796875 
L 41 61.796875 
C 52.40625 61.796875 54.59375 60 56.90625 49.03125 
L 59.296875 49.03125 
L 58.703125 66 
L 2.296875 66 
L 1.703125 49.03125 
L 4.09375 49.03125 
C 6.5 59.90625 8.796875 61.796875 20 61.796875 
z
" id="Nimbus_Roman_No9_L_Regular-84"/>
       <path d="M 17.5 46 
L 2 40.5 
L 2 39 
L 2.796875 39.09375 
C 4 39.296875 5.296875 39.390625 6.203125 39.390625 
C 8.59375 39.390625 9.5 37.796875 9.5 33.390625 
L 9.5 10.1875 
C 9.5 3 8.5 1.890625 1.59375 1.5 
L 1.59375 0 
L 25.296875 0 
L 25.296875 1.5 
C 18.703125 2 17.90625 3 17.90625 10.1875 
L 17.90625 45.6875 
z
M 12.796875 68 
C 10.09375 68 7.796875 65.6875 7.796875 62.890625 
C 7.796875 60.09375 10 57.796875 12.796875 57.796875 
C 15.703125 57.796875 18 59.984375 18 62.890625 
C 18 65.6875 15.703125 68 12.796875 68 
z
" id="Nimbus_Roman_No9_L_Regular-105"/>
       <path d="M 1.90625 39.796875 
C 3.203125 40.09375 4 40.1875 5.09375 40.1875 
C 7.703125 40.1875 8.59375 38.59375 8.59375 33.796875 
L 8.59375 8.5 
C 8.59375 3.09375 7.203125 1.59375 1.59375 1.5 
L 1.59375 0 
L 23.796875 0 
L 23.796875 1.5 
C 18.5 1.6875 17 2.796875 17 6.6875 
L 17 34.890625 
C 17 35.09375 17.796875 36.09375 18.5 36.796875 
C 21 39.09375 25.296875 40.796875 28.796875 40.796875 
C 33.203125 40.796875 35.40625 37.296875 35.40625 30.296875 
L 35.40625 8.59375 
C 35.40625 3 34.296875 1.890625 28.59375 1.5 
L 28.59375 0 
L 51 0 
L 51 1.5 
C 45.296875 1.59375 43.796875 3.296875 43.796875 9.5 
L 43.796875 34.6875 
C 46.796875 39 50.09375 40.796875 54.703125 40.796875 
C 60.40625 40.796875 62.203125 38.09375 62.203125 29.796875 
L 62.203125 8.6875 
C 62.203125 3 61.40625 2.1875 55.59375 1.5 
L 55.59375 0 
L 77.5 0 
L 77.5 1.5 
L 74.90625 1.6875 
C 71.90625 1.890625 70.59375 3.6875 70.59375 7.59375 
L 70.59375 28.1875 
C 70.59375 40 66.703125 46 59 46 
C 53.203125 46 48.09375 43.390625 42.703125 37.59375 
C 40.90625 43.296875 37.5 46 32.09375 46 
C 27.703125 46 24.90625 44.59375 16.59375 38.296875 
L 16.59375 45.796875 
L 15.90625 46 
C 10.796875 44.09375 7.40625 42.984375 1.90625 41.484375 
z
" id="Nimbus_Roman_No9_L_Regular-109"/>
       <path d="M 40.796875 16.4375 
C 36 8.8125 31.703125 5.890625 25.296875 5.890625 
C 19.59375 5.890625 15.296875 8.8125 12.40625 14.53125 
C 10.59375 18.34375 9.90625 21.65625 9.703125 27.796875 
L 40.5 27.796875 
C 39.703125 34.265625 38.703125 37.140625 36.203125 40.3125 
C 33.203125 43.890625 28.59375 46 23.40625 46 
C 18.40625 46 13.703125 44.1875 9.90625 40.8125 
C 5.203125 36.734375 2.5 29.6875 2.5 21.46875 
C 2.5 7.59375 9.703125 -1 21.203125 -1 
C 30.703125 -1 38.203125 4.890625 42.40625 15.734375 
z
M 9.90625 31 
C 11 38.71875 14.40625 42.390625 20.5 42.390625 
C 26.59375 42.390625 29 39.609375 30.296875 31 
z
" id="Nimbus_Roman_No9_L_Regular-101"/>
       <path d="M 31.5 31.390625 
L 31.09375 45 
L 30 45 
L 29.796875 44.796875 
C 28.90625 44.09375 28.796875 43.984375 28.40625 43.984375 
C 27.796875 43.984375 26.796875 44.1875 25.703125 44.6875 
C 23.5 45.59375 21.296875 46 18.703125 46 
C 10.796875 46 5.09375 40.890625 5.09375 33.671875 
C 5.09375 28.0625 8.296875 24.046875 16.796875 19.234375 
L 22.59375 15.921875 
C 26.09375 13.921875 27.796875 11.515625 27.796875 8.40625 
C 27.796875 4 24.59375 1.1875 19.5 1.1875 
C 16.09375 1.1875 13 2.5 11.09375 4.703125 
C 9 7.203125 8.09375 9.515625 6.796875 15.21875 
L 5.203125 15.21875 
L 5.203125 -0.40625 
L 6.5 -0.40625 
C 7.203125 0.59375 7.59375 0.796875 8.796875 0.796875 
C 9.703125 0.796875 11.09375 0.59375 13.40625 0 
C 16.203125 -0.609375 18.90625 -1 20.703125 -1 
C 28.40625 -1 34.796875 4.796875 34.796875 11.8125 
C 34.796875 16.828125 32.40625 20.140625 26.40625 23.75 
L 15.59375 30.15625 
C 12.796875 31.765625 11.296875 34.265625 11.296875 36.96875 
C 11.296875 40.984375 14.40625 43.796875 19 43.796875 
C 24.703125 43.796875 27.703125 40.390625 30 31.46875 
z
" id="Nimbus_Roman_No9_L_Regular-115"/>
       <path d="M 25.5 45 
L 15.40625 45 
L 15.40625 56.59375 
C 15.40625 57.59375 15.296875 57.890625 14.703125 57.890625 
C 14 57 13.40625 56.09375 12.703125 55.09375 
C 8.90625 49.59375 4.59375 44.796875 3 44.390625 
C 1.90625 43.6875 1.296875 42.984375 1.296875 42.484375 
C 1.296875 42.1875 1.40625 41.984375 1.703125 41.796875 
L 7 41.796875 
L 7 11.6875 
C 7 3.296875 10 -1 15.90625 -1 
C 20.796875 -1 24.59375 1.390625 27.90625 6.59375 
L 26.59375 7.6875 
C 24.5 5.1875 22.796875 4.1875 20.59375 4.1875 
C 16.90625 4.1875 15.40625 6.890625 15.40625 13.1875 
L 15.40625 41.796875 
L 25.5 41.796875 
z
" id="Nimbus_Roman_No9_L_Regular-116"/>
       <path d="M 0.90625 39.296875 
C 1.796875 39.390625 2.5 39.390625 3.40625 39.390625 
C 6.796875 39.390625 7.5 38.390625 7.5 33.703125 
L 7.5 -13.109375 
C 7.5 -18.3125 6.40625 -19.40625 0.5 -20 
L 0.5 -21.703125 
L 24.703125 -21.703125 
L 24.703125 -20 
C 17.203125 -19.90625 15.90625 -18.796875 15.90625 -12.46875 
L 15.90625 3.296875 
C 19.40625 0 21.796875 -1 26 -1 
C 37.796875 -1 47 10.1875 47 24.6875 
C 47 37.09375 40 46 30.296875 46 
C 24.703125 46 20.296875 43.484375 15.90625 38.09375 
L 15.90625 45.796875 
L 15.296875 46 
C 9.90625 43.890625 6.40625 42.59375 0.90625 40.890625 
z
M 15.90625 33.390625 
C 15.90625 36.390625 21.5 39.984375 26.09375 39.984375 
C 33.5 39.984375 38.40625 32.390625 38.40625 20.796875 
C 38.40625 9.6875 33.5 2.1875 26.296875 2.1875 
C 21.59375 2.1875 15.90625 5.796875 15.90625 8.796875 
z
" id="Nimbus_Roman_No9_L_Regular-112"/>
       <path d="M 47.09375 27 
L 37.09375 27 
L 39.09375 40.484375 
L 49.59375 40.484375 
L 49.59375 46 
L 39.90625 46 
L 42.90625 66 
L 37.09375 66 
L 34.09375 46 
L 20.796875 46 
L 23.90625 66 
L 18.09375 66 
L 15 46 
L 3.203125 46 
L 3.203125 40.484375 
L 14.203125 40.484375 
L 12.09375 27 
L 0.5 27 
L 0.5 21.484375 
L 11.203125 21.484375 
L 7.90625 0 
L 13.703125 0 
L 17 21.484375 
L 30.40625 21.484375 
L 27.296875 0 
L 33.09375 0 
L 36.203125 21.484375 
L 47.09375 21.484375 
z
M 33.296875 40.484375 
L 31.296875 27 
L 17.90625 27 
L 20 40.484375 
z
" id="Nimbus_Roman_No9_L_Regular-35"/>
      </defs>
      <use transform="scale(0.996264)" xlink:href="#Nimbus_Roman_No9_L_Regular-84"/>
      <use transform="translate(57.384904 0)scale(0.996264)" xlink:href="#Nimbus_Roman_No9_L_Regular-105"/>
      <use transform="translate(85.080074 0)scale(0.996264)" xlink:href="#Nimbus_Roman_No9_L_Regular-109"/>
      <use transform="translate(162.588444 0)scale(0.996264)" xlink:href="#Nimbus_Roman_No9_L_Regular-101"/>
      <use transform="translate(206.822013 0)scale(0.996264)" xlink:href="#Nimbus_Roman_No9_L_Regular-115"/>
      <use transform="translate(245.575719 0)scale(0.996264)" xlink:href="#Nimbus_Roman_No9_L_Regular-116"/>
      <use transform="translate(273.270888 0)scale(0.996264)" xlink:href="#Nimbus_Roman_No9_L_Regular-101"/>
      <use transform="translate(317.504457 0)scale(0.996264)" xlink:href="#Nimbus_Roman_No9_L_Regular-112"/>
      <use transform="translate(392.224258 0)scale(0.996264)" xlink:href="#Nimbus_Roman_No9_L_Regular-35"/>
     </g>
    </g>
   </g>
   <g id="matplotlib.axis_2">
    <g id="ytick_1">
     <g id="line2d_31">
      <defs>
       <path d="M 0 0 
L 3 0 
" id="m1f7faa57ef" style="stroke:#000000;stroke-width:0.5;"/>
      </defs>
      <g>
       <use style="stroke:#000000;stroke-width:0.5;" x="31.02528" xlink:href="#m1f7faa57ef" y="130.713663"/>
      </g>
     </g>
     <g id="line2d_32">
      <defs>
       <path d="M 0 0 
L -3 0 
" id="md866c2a74a" style="stroke:#000000;stroke-width:0.5;"/>
      </defs>
      <g>
       <use style="stroke:#000000;stroke-width:0.5;" x="215.16528" xlink:href="#md866c2a74a" y="130.713663"/>
      </g>
     </g>
     <g id="text_5">
      <!-- $\mathdefault{5}$ -->
      <g transform="translate(22.54396 134.090951)scale(0.1 -0.1)">
       <defs>
        <path d="M 18.09375 58.09375 
L 37.703125 58.09375 
C 39.296875 58.09375 39.703125 58.296875 40 58.984375 
L 43.796875 67.890625 
L 42.90625 68.59375 
C 41.40625 66.5 40.40625 66 38.296875 66 
L 17.40625 66 
L 6.5 42.453125 
C 6.40625 42.265625 6.40625 42.15625 6.40625 41.96875 
C 6.40625 41.46875 6.796875 41.171875 7.59375 41.171875 
C 10.796875 41.171875 14.796875 40.484375 18.90625 39.1875 
C 30.40625 35.53125 35.703125 29.40625 35.703125 19.609375 
C 35.703125 10.109375 29.59375 2.6875 21.796875 2.6875 
C 19.796875 2.6875 18.09375 3.390625 15.09375 5.5625 
C 11.90625 7.84375 9.59375 8.828125 7.5 8.828125 
C 4.59375 8.828125 3.203125 7.640625 3.203125 5.171875 
C 3.203125 1.390625 7.90625 -1 15.40625 -1 
C 23.796875 -1 31 1.6875 36 6.75 
C 40.59375 11.203125 42.703125 16.84375 42.703125 24.359375 
C 42.703125 31.484375 40.796875 36.03125 35.796875 40.96875 
C 31.40625 45.328125 25.703125 47.609375 13.90625 49.6875 
z
" id="Nimbus_Roman_No9_L_Regular-53"/>
       </defs>
       <use transform="scale(0.996264)" xlink:href="#Nimbus_Roman_No9_L_Regular-53"/>
      </g>
     </g>
    </g>
    <g id="ytick_2">
     <g id="line2d_33">
      <g>
       <use style="stroke:#000000;stroke-width:0.5;" x="31.02528" xlink:href="#m1f7faa57ef" y="99.328904"/>
      </g>
     </g>
     <g id="line2d_34">
      <g>
       <use style="stroke:#000000;stroke-width:0.5;" x="215.16528" xlink:href="#md866c2a74a" y="99.328904"/>
      </g>
     </g>
     <g id="text_6">
      <!-- $\mathdefault{10}$ -->
      <g transform="translate(17.56264 102.706193)scale(0.1 -0.1)">
       <use transform="scale(0.996264)" xlink:href="#Nimbus_Roman_No9_L_Regular-49"/>
       <use transform="translate(49.8132 0)scale(0.996264)" xlink:href="#Nimbus_Roman_No9_L_Regular-48"/>
      </g>
     </g>
    </g>
    <g id="ytick_3">
     <g id="line2d_35">
      <g>
       <use style="stroke:#000000;stroke-width:0.5;" x="31.02528" xlink:href="#m1f7faa57ef" y="67.944146"/>
      </g>
     </g>
     <g id="line2d_36">
      <g>
       <use style="stroke:#000000;stroke-width:0.5;" x="215.16528" xlink:href="#md866c2a74a" y="67.944146"/>
      </g>
     </g>
     <g id="text_7">
      <!-- $\mathdefault{15}$ -->
      <g transform="translate(17.56264 71.321435)scale(0.1 -0.1)">
       <use transform="scale(0.996264)" xlink:href="#Nimbus_Roman_No9_L_Regular-49"/>
       <use transform="translate(49.8132 0)scale(0.996264)" xlink:href="#Nimbus_Roman_No9_L_Regular-53"/>
      </g>
     </g>
    </g>
    <g id="ytick_4">
     <g id="line2d_37">
      <g>
       <use style="stroke:#000000;stroke-width:0.5;" x="31.02528" xlink:href="#m1f7faa57ef" y="36.559387"/>
      </g>
     </g>
     <g id="line2d_38">
      <g>
       <use style="stroke:#000000;stroke-width:0.5;" x="215.16528" xlink:href="#md866c2a74a" y="36.559387"/>
      </g>
     </g>
     <g id="text_8">
      <!-- $\mathdefault{20}$ -->
      <g transform="translate(17.56264 39.936676)scale(0.1 -0.1)">
       <use transform="scale(0.996264)" xlink:href="#Nimbus_Roman_No9_L_Regular-50"/>
       <use transform="translate(49.8132 0)scale(0.996264)" xlink:href="#Nimbus_Roman_No9_L_Regular-48"/>
      </g>
     </g>
    </g>
    <g id="ytick_5">
     <g id="line2d_39">
      <defs>
       <path d="M 0 0 
L 1.5 0 
" id="mabac0a3d0a" style="stroke:#000000;stroke-width:0.5;"/>
      </defs>
      <g>
       <use style="stroke:#000000;stroke-width:0.5;" x="31.02528" xlink:href="#mabac0a3d0a" y="155.821469"/>
      </g>
     </g>
     <g id="line2d_40">
      <defs>
       <path d="M 0 0 
L -1.5 0 
" id="m5bdf4b8f96" style="stroke:#000000;stroke-width:0.5;"/>
      </defs>
      <g>
       <use style="stroke:#000000;stroke-width:0.5;" x="215.16528" xlink:href="#m5bdf4b8f96" y="155.821469"/>
      </g>
     </g>
    </g>
    <g id="ytick_6">
     <g id="line2d_41">
      <g>
       <use style="stroke:#000000;stroke-width:0.5;" x="31.02528" xlink:href="#mabac0a3d0a" y="149.544518"/>
      </g>
     </g>
     <g id="line2d_42">
      <g>
       <use style="stroke:#000000;stroke-width:0.5;" x="215.16528" xlink:href="#m5bdf4b8f96" y="149.544518"/>
      </g>
     </g>
    </g>
    <g id="ytick_7">
     <g id="line2d_43">
      <g>
       <use style="stroke:#000000;stroke-width:0.5;" x="31.02528" xlink:href="#mabac0a3d0a" y="143.267566"/>
      </g>
     </g>
     <g id="line2d_44">
      <g>
       <use style="stroke:#000000;stroke-width:0.5;" x="215.16528" xlink:href="#m5bdf4b8f96" y="143.267566"/>
      </g>
     </g>
    </g>
    <g id="ytick_8">
     <g id="line2d_45">
      <g>
       <use style="stroke:#000000;stroke-width:0.5;" x="31.02528" xlink:href="#mabac0a3d0a" y="136.990614"/>
      </g>
     </g>
     <g id="line2d_46">
      <g>
       <use style="stroke:#000000;stroke-width:0.5;" x="215.16528" xlink:href="#m5bdf4b8f96" y="136.990614"/>
      </g>
     </g>
    </g>
    <g id="ytick_9">
     <g id="line2d_47">
      <g>
       <use style="stroke:#000000;stroke-width:0.5;" x="31.02528" xlink:href="#mabac0a3d0a" y="124.436711"/>
      </g>
     </g>
     <g id="line2d_48">
      <g>
       <use style="stroke:#000000;stroke-width:0.5;" x="215.16528" xlink:href="#m5bdf4b8f96" y="124.436711"/>
      </g>
     </g>
    </g>
    <g id="ytick_10">
     <g id="line2d_49">
      <g>
       <use style="stroke:#000000;stroke-width:0.5;" x="31.02528" xlink:href="#mabac0a3d0a" y="118.159759"/>
      </g>
     </g>
     <g id="line2d_50">
      <g>
       <use style="stroke:#000000;stroke-width:0.5;" x="215.16528" xlink:href="#m5bdf4b8f96" y="118.159759"/>
      </g>
     </g>
    </g>
    <g id="ytick_11">
     <g id="line2d_51">
      <g>
       <use style="stroke:#000000;stroke-width:0.5;" x="31.02528" xlink:href="#mabac0a3d0a" y="111.882808"/>
      </g>
     </g>
     <g id="line2d_52">
      <g>
       <use style="stroke:#000000;stroke-width:0.5;" x="215.16528" xlink:href="#m5bdf4b8f96" y="111.882808"/>
      </g>
     </g>
    </g>
    <g id="ytick_12">
     <g id="line2d_53">
      <g>
       <use style="stroke:#000000;stroke-width:0.5;" x="31.02528" xlink:href="#mabac0a3d0a" y="105.605856"/>
      </g>
     </g>
     <g id="line2d_54">
      <g>
       <use style="stroke:#000000;stroke-width:0.5;" x="215.16528" xlink:href="#m5bdf4b8f96" y="105.605856"/>
      </g>
     </g>
    </g>
    <g id="ytick_13">
     <g id="line2d_55">
      <g>
       <use style="stroke:#000000;stroke-width:0.5;" x="31.02528" xlink:href="#mabac0a3d0a" y="93.051952"/>
      </g>
     </g>
     <g id="line2d_56">
      <g>
       <use style="stroke:#000000;stroke-width:0.5;" x="215.16528" xlink:href="#m5bdf4b8f96" y="93.051952"/>
      </g>
     </g>
    </g>
    <g id="ytick_14">
     <g id="line2d_57">
      <g>
       <use style="stroke:#000000;stroke-width:0.5;" x="31.02528" xlink:href="#mabac0a3d0a" y="86.775001"/>
      </g>
     </g>
     <g id="line2d_58">
      <g>
       <use style="stroke:#000000;stroke-width:0.5;" x="215.16528" xlink:href="#m5bdf4b8f96" y="86.775001"/>
      </g>
     </g>
    </g>
    <g id="ytick_15">
     <g id="line2d_59">
      <g>
       <use style="stroke:#000000;stroke-width:0.5;" x="31.02528" xlink:href="#mabac0a3d0a" y="80.498049"/>
      </g>
     </g>
     <g id="line2d_60">
      <g>
       <use style="stroke:#000000;stroke-width:0.5;" x="215.16528" xlink:href="#m5bdf4b8f96" y="80.498049"/>
      </g>
     </g>
    </g>
    <g id="ytick_16">
     <g id="line2d_61">
      <g>
       <use style="stroke:#000000;stroke-width:0.5;" x="31.02528" xlink:href="#mabac0a3d0a" y="74.221097"/>
      </g>
     </g>
     <g id="line2d_62">
      <g>
       <use style="stroke:#000000;stroke-width:0.5;" x="215.16528" xlink:href="#m5bdf4b8f96" y="74.221097"/>
      </g>
     </g>
    </g>
    <g id="ytick_17">
     <g id="line2d_63">
      <g>
       <use style="stroke:#000000;stroke-width:0.5;" x="31.02528" xlink:href="#mabac0a3d0a" y="61.667194"/>
      </g>
     </g>
     <g id="line2d_64">
      <g>
       <use style="stroke:#000000;stroke-width:0.5;" x="215.16528" xlink:href="#m5bdf4b8f96" y="61.667194"/>
      </g>
     </g>
    </g>
    <g id="ytick_18">
     <g id="line2d_65">
      <g>
       <use style="stroke:#000000;stroke-width:0.5;" x="31.02528" xlink:href="#mabac0a3d0a" y="55.390242"/>
      </g>
     </g>
     <g id="line2d_66">
      <g>
       <use style="stroke:#000000;stroke-width:0.5;" x="215.16528" xlink:href="#m5bdf4b8f96" y="55.390242"/>
      </g>
     </g>
    </g>
    <g id="ytick_19">
     <g id="line2d_67">
      <g>
       <use style="stroke:#000000;stroke-width:0.5;" x="31.02528" xlink:href="#mabac0a3d0a" y="49.113291"/>
      </g>
     </g>
     <g id="line2d_68">
      <g>
       <use style="stroke:#000000;stroke-width:0.5;" x="215.16528" xlink:href="#m5bdf4b8f96" y="49.113291"/>
      </g>
     </g>
    </g>
    <g id="ytick_20">
     <g id="line2d_69">
      <g>
       <use style="stroke:#000000;stroke-width:0.5;" x="31.02528" xlink:href="#mabac0a3d0a" y="42.836339"/>
      </g>
     </g>
     <g id="line2d_70">
      <g>
       <use style="stroke:#000000;stroke-width:0.5;" x="215.16528" xlink:href="#m5bdf4b8f96" y="42.836339"/>
      </g>
     </g>
    </g>
    <g id="ytick_21">
     <g id="line2d_71">
      <g>
       <use style="stroke:#000000;stroke-width:0.5;" x="31.02528" xlink:href="#mabac0a3d0a" y="30.282436"/>
      </g>
     </g>
     <g id="line2d_72">
      <g>
       <use style="stroke:#000000;stroke-width:0.5;" x="215.16528" xlink:href="#m5bdf4b8f96" y="30.282436"/>
      </g>
     </g>
    </g>
    <g id="ytick_22">
     <g id="line2d_73">
      <g>
       <use style="stroke:#000000;stroke-width:0.5;" x="31.02528" xlink:href="#mabac0a3d0a" y="24.005484"/>
      </g>
     </g>
     <g id="line2d_74">
      <g>
       <use style="stroke:#000000;stroke-width:0.5;" x="215.16528" xlink:href="#m5bdf4b8f96" y="24.005484"/>
      </g>
     </g>
    </g>
    <g id="ytick_23">
     <g id="line2d_75">
      <g>
       <use style="stroke:#000000;stroke-width:0.5;" x="31.02528" xlink:href="#mabac0a3d0a" y="17.728532"/>
      </g>
     </g>
     <g id="line2d_76">
      <g>
       <use style="stroke:#000000;stroke-width:0.5;" x="215.16528" xlink:href="#m5bdf4b8f96" y="17.728532"/>
      </g>
     </g>
    </g>
    <g id="text_9">
     <!-- Glucose ($mmol/L$) -->
     <g transform="translate(11.07198 124.489469)rotate(-90)scale(0.1 -0.1)">
      <defs>
       <path d="M 70.90625 35.796875 
L 45.40625 35.796875 
L 45.40625 34 
C 49.703125 33.6875 50.90625 33.390625 52.09375 32.59375 
C 53.59375 31.6875 54.203125 29.390625 54.203125 25.09375 
L 54.203125 8.890625 
C 54.203125 5.6875 48.09375 3 40.90625 3 
C 24.59375 3 14.59375 14.390625 14.59375 33 
C 14.59375 42.390625 17.40625 51.5 21.796875 56.390625 
C 26.203125 61.296875 32.40625 63.984375 39.203125 63.984375 
C 44.796875 63.984375 49.703125 62.09375 53.59375 58.5 
C 56.59375 55.703125 58.203125 53 60.703125 46.890625 
L 63 46.890625 
L 62.203125 68 
L 60 68 
C 59.40625 66.09375 57.59375 64.6875 55.5 64.6875 
C 54.5 64.6875 52.90625 64.984375 51.09375 65.6875 
C 46.59375 67.1875 42 68 37.5 68 
C 17.5 68 3.203125 53.296875 3.203125 32.890625 
C 3.203125 23.09375 5.90625 15.59375 11.5 9.6875 
C 18.203125 2.796875 27.796875 -1 38.796875 -1 
C 47.40625 -1 59.90625 2.5 63.90625 6 
L 63.90625 26.296875 
C 63.90625 32.1875 65.09375 33.5 70.90625 34 
z
" id="Nimbus_Roman_No9_L_Regular-71"/>
       <path d="M 1.90625 62.296875 
L 2.5 62.296875 
C 3.59375 62.390625 4.796875 62.5 5.59375 62.5 
C 8.796875 62.5 9.796875 61.09375 9.796875 56.390625 
L 9.796875 8.6875 
C 9.796875 3.296875 8.40625 2 2.09375 1.5 
L 2.09375 0 
L 25.703125 0 
L 25.703125 1.5 
C 19.40625 1.890625 18.203125 2.890625 18.203125 8.390625 
L 18.203125 68.09375 
L 17.796875 68.296875 
C 12.59375 66.59375 8.796875 65.59375 1.90625 63.890625 
z
" id="Nimbus_Roman_No9_L_Regular-108"/>
       <path d="M 47.90625 4.984375 
L 47.40625 4.984375 
C 42.796875 4.984375 41.703125 6.09375 41.703125 10.6875 
L 41.703125 45 
L 25.90625 45 
L 25.90625 43.296875 
C 32.09375 43 33.296875 42 33.296875 37 
L 33.296875 13.5 
C 33.296875 10.6875 32.796875 9.296875 31.40625 8.1875 
C 28.703125 6 25.59375 4.796875 22.59375 4.796875 
C 18.703125 4.796875 15.5 8.1875 15.5 12.390625 
L 15.5 45 
L 0.90625 45 
L 0.90625 43.59375 
C 5.703125 43.296875 7.09375 41.796875 7.09375 37.1875 
L 7.09375 12 
C 7.09375 4.09375 11.90625 -1 19.203125 -1 
C 22.90625 -1 26.796875 0.59375 29.5 3.296875 
L 33.796875 7.59375 
L 33.796875 -0.703125 
L 34.203125 -1 
C 39.203125 1 42.796875 2.09375 47.90625 3.5 
z
" id="Nimbus_Roman_No9_L_Regular-117"/>
       <path d="M 39.796875 15.59375 
C 35 8.59375 31.40625 6.1875 25.703125 6.1875 
C 16.59375 6.1875 10.203125 14.1875 10.203125 25.6875 
C 10.203125 35.984375 15.703125 43.09375 23.796875 43.09375 
C 27.40625 43.09375 28.703125 41.984375 29.703125 38.296875 
L 30.296875 36.09375 
C 31.09375 33.296875 32.90625 31.484375 35 31.484375 
C 37.59375 31.484375 39.796875 33.390625 39.796875 35.6875 
C 39.796875 41.296875 32.796875 46 24.40625 46 
C 19.5 46 14.40625 43.984375 10.296875 40.390625 
C 5.296875 35.984375 2.5 29.1875 2.5 21.296875 
C 2.5 8.296875 10.40625 -1 21.5 -1 
C 26 -1 30 0.59375 33.59375 3.6875 
C 36.296875 6.09375 38.203125 8.796875 41.203125 14.6875 
z
" id="Nimbus_Roman_No9_L_Regular-99"/>
       <path d="M 25 46 
C 12 46 2.90625 36.390625 2.90625 22.59375 
C 2.90625 9.09375 12.203125 -1 24.796875 -1 
C 37.40625 -1 47 9.59375 47 23.390625 
C 47 36.5 37.796875 46 25 46 
z
M 23.703125 43.1875 
C 32.09375 43.1875 38 33.59375 38 19.890625 
C 38 8.59375 33.5 1.796875 26 1.796875 
C 22.09375 1.796875 18.40625 4.1875 16.296875 8.1875 
C 13.5 13.390625 11.90625 20.390625 11.90625 27.5 
C 11.90625 37 16.59375 43.1875 23.703125 43.1875 
z
" id="Nimbus_Roman_No9_L_Regular-111"/>
       <path d="M 29.5 68 
C 22.09375 63.1875 19.09375 60.59375 15.40625 55.984375 
C 8.296875 47.296875 4.796875 37.296875 4.796875 25.59375 
C 4.796875 12.890625 8.5 3.09375 17.296875 -7.109375 
C 21.40625 -11.90625 24 -14.109375 29.203125 -17.3125 
L 30.40625 -15.71875 
C 22.40625 -9.40625 19.59375 -5.90625 16.90625 1.59375 
C 14.5 8.28125 13.40625 15.890625 13.40625 25.890625 
C 13.40625 36.390625 14.703125 44.59375 17.40625 50.796875 
C 20.203125 56.984375 23.203125 60.59375 30.40625 66.390625 
z
" id="Nimbus_Roman_No9_L_Regular-40"/>
       <path d="M 68.90625 11.59375 
C 67.90625 10.390625 67.09375 9.390625 66.796875 8.984375 
C 64 5.390625 61.90625 3.6875 60.40625 3.6875 
C 59.59375 3.6875 59.09375 4.296875 59.09375 5.296875 
C 59.09375 5.796875 59.5 7.390625 60.09375 9.796875 
L 66.90625 34.890625 
C 67 35.296875 67.203125 37.09375 67.203125 37.6875 
C 67.203125 41.296875 64.703125 44 61.296875 44 
C 59.40625 44 57.40625 43.296875 55 41.796875 
C 50.09375 38.59375 46 33.796875 39.09375 22.796875 
C 41.59375 30.390625 43.09375 36.09375 43.09375 37.984375 
C 43.09375 41.484375 40.796875 44 37.40625 44 
C 31.296875 44 24.296875 37.390625 15.09375 22.890625 
L 20.90625 43.796875 
L 20.59375 44 
C 15 42.796875 12.90625 42.390625 4.59375 40.890625 
L 4.59375 39.296875 
L 7.09375 39.296875 
C 9.703125 39.296875 11 38.59375 11 37.09375 
C 11 35.984375 8.703125 26.890625 5.09375 14.1875 
C 2.796875 6 2.5 5 1.203125 -0.109375 
L 8.703125 -0.109375 
C 13.5 15.796875 15 19.484375 18.40625 24.6875 
C 24 33.1875 30 38.796875 33.40625 38.796875 
C 34.703125 38.796875 35.40625 37.890625 35.40625 36.296875 
C 35.40625 35.390625 32.203125 23.296875 25.90625 -0.109375 
L 33.40625 -0.109375 
C 37.40625 15.484375 39.40625 20.484375 44.5 27.59375 
C 49.40625 34.390625 54.40625 38.796875 57.296875 38.796875 
C 58.40625 38.796875 59.296875 37.796875 59.296875 36.6875 
C 59.296875 36.1875 59.09375 34.984375 58.59375 33.1875 
L 52.796875 10.1875 
C 51.90625 6.5 51.5 4.59375 51.5 3.59375 
C 51.5 0.59375 52.90625 -1 55.5 -1 
C 60.203125 -1 64.59375 2.296875 69.90625 9.6875 
L 70.40625 10.390625 
z
" id="Nimbus_Roman_No9_L_Regular_Italic-109"/>
       <path d="M 32.5 44 
C 17.5 44 2.703125 28.5625 2.703125 12.9375 
C 2.703125 4.375 8.296875 -1 17.40625 -1 
C 24 -1 30.40625 1.984375 36.203125 7.65625 
C 42.796875 14.125 46.796875 22.59375 46.796875 30.046875 
C 46.796875 38.3125 41 44 32.5 44 
z
M 31.296875 41.890625 
C 35.59375 41.890625 38.40625 38.21875 38.40625 32.546875 
C 38.40625 25.28125 35.09375 15.328125 30.703125 8.859375 
C 27 3.578125 23.203125 1.09375 18.90625 1.09375 
C 14.203125 1.09375 11.09375 4.671875 11.09375 10.15625 
C 11.09375 17.515625 14 26.265625 18.90625 33.34375 
C 22.796875 38.90625 27 41.890625 31.296875 41.890625 
z
" id="Nimbus_Roman_No9_L_Regular_Italic-111"/>
       <path d="M 22.796875 12.390625 
C 21.90625 11.296875 21 10.1875 20.09375 9 
C 16.90625 4.796875 15 3.296875 13.203125 3.296875 
C 12.203125 3.296875 11.703125 4 11.703125 5.09375 
C 11.703125 5.796875 12 7 12.5 9 
C 12.59375 9.296875 12.703125 9.796875 12.796875 10 
L 27.90625 67.890625 
L 27.40625 68.390625 
C 21.5 67.09375 17.703125 66.390625 11.796875 65.703125 
L 11.796875 64.09375 
C 16.59375 64.09375 18.59375 63.390625 18.59375 61.796875 
C 18.59375 61.5 18.5 60.890625 18.203125 60 
L 4.5 7.1875 
C 4.203125 6.09375 4 5.09375 4 4.59375 
C 4 1 5.703125 -1 8.90625 -1 
C 14.09375 -1 17.59375 1.890625 24.09375 11.5 
z
" id="Nimbus_Roman_No9_L_Regular_Italic-108"/>
       <path d="M 43.90625 71.203125 
C 44.40625 72.5 44.40625 72.890625 44.40625 73 
C 44.40625 74.09375 43.5 75 42.40625 75 
C 41.703125 75 41 74.6875 40.703125 74.09375 
L 6 -21.203125 
C 5.5 -22.5 5.5 -22.90625 5.5 -23 
C 5.5 -24.109375 6.40625 -25 7.5 -25 
C 8.796875 -25 9.09375 -24.3125 9.703125 -22.609375 
z
" id="CMMI10-61"/>
       <path d="M 40.296875 65 
L 13 65 
L 13 63.390625 
C 19.203125 62.796875 20.703125 62 20.703125 59.109375 
C 20.703125 57.71875 20.296875 55.4375 19.59375 52.953125 
L 7.296875 8.96875 
C 5.5 3.1875 4.796875 2.59375 -0.796875 1.59375 
L -0.796875 0 
L 50.09375 0 
L 55.90625 17.828125 
L 53.90625 18.421875 
C 50.40625 11.25 47.703125 8.0625 43.296875 5.875 
C 39.796875 4.1875 35.703125 3.59375 27 3.59375 
C 19.40625 3.59375 16.90625 4.390625 16.90625 6.96875 
C 16.90625 7.671875 17.40625 10.0625 17.90625 11.953125 
L 30.203125 56.03125 
C 31.703125 61.109375 34.296875 62.984375 40.296875 63.390625 
z
" id="Nimbus_Roman_No9_L_Regular_Italic-76"/>
       <path d="M 3.796875 -17.3125 
C 11.203125 -12.515625 14.203125 -9.90625 17.90625 -5.3125 
C 25 3.390625 28.5 13.390625 28.5 25.09375 
C 28.5 37.890625 24.796875 47.59375 16 57.796875 
C 11.90625 62.59375 9.296875 64.796875 4.09375 68 
L 2.90625 66.390625 
C 10.90625 60.09375 13.59375 56.59375 16.40625 49.09375 
C 18.796875 42.390625 19.90625 34.796875 19.90625 24.796875 
C 19.90625 14.390625 18.59375 6.09375 15.90625 -0.015625 
C 13.09375 -6.3125 10.09375 -9.90625 2.90625 -15.71875 
z
" id="Nimbus_Roman_No9_L_Regular-41"/>
      </defs>
      <use transform="scale(0.996264)" xlink:href="#Nimbus_Roman_No9_L_Regular-71"/>
      <use transform="translate(71.929985 0)scale(0.996264)" xlink:href="#Nimbus_Roman_No9_L_Regular-108"/>
      <use transform="translate(99.625154 0)scale(0.996264)" xlink:href="#Nimbus_Roman_No9_L_Regular-117"/>
      <use transform="translate(149.438355 0)scale(0.996264)" xlink:href="#Nimbus_Roman_No9_L_Regular-99"/>
      <use transform="translate(193.671924 0)scale(0.996264)" xlink:href="#Nimbus_Roman_No9_L_Regular-111"/>
      <use transform="translate(243.485124 0)scale(0.996264)" xlink:href="#Nimbus_Roman_No9_L_Regular-115"/>
      <use transform="translate(282.23883 0)scale(0.996264)" xlink:href="#Nimbus_Roman_No9_L_Regular-101"/>
      <use transform="translate(351.378999 0)scale(0.996264)" xlink:href="#Nimbus_Roman_No9_L_Regular-40"/>
      <use transform="translate(384.554229 0)scale(0.996264)" xlink:href="#Nimbus_Roman_No9_L_Regular_Italic-109"/>
      <use transform="translate(456.484214 0)scale(0.996264)" xlink:href="#Nimbus_Roman_No9_L_Regular_Italic-109"/>
      <use transform="translate(528.414199 0)scale(0.996264)" xlink:href="#Nimbus_Roman_No9_L_Regular_Italic-111"/>
      <use transform="translate(578.227399 0)scale(0.996264)" xlink:href="#Nimbus_Roman_No9_L_Regular_Italic-108"/>
      <use transform="translate(611.002427 0)scale(0.996264)" xlink:href="#CMMI10-61"/>
      <use transform="translate(660.815627 0)scale(0.996264)" xlink:href="#Nimbus_Roman_No9_L_Regular_Italic-76"/>
      <use transform="translate(716.505153 0)scale(0.996264)" xlink:href="#Nimbus_Roman_No9_L_Regular-41"/>
     </g>
    </g>
   </g>
   <g id="line2d_77">
    <path clip-path="url(#p58ea3b82ca)" d="M 39.39528 63.55028 
L 41.214845 59.784109 
L 42.427889 58.528718 
L 43.034411 57.273328 
L 43.640932 56.645633 
L 44.853976 54.134852 
L 46.673541 52.251767 
L 48.493106 52.251767 
L 49.70615 50.996376 
L 50.312672 50.996376 
L 52.132237 49.113291 
L 53.34528 46.60251 
L 53.951802 45.974815 
L 54.558324 44.091729 
L 55.164845 43.464034 
L 56.377889 43.464034 
L 58.803976 45.974815 
L 61.230063 45.974815 
L 62.443106 47.230205 
L 63.049628 47.230205 
L 64.869193 49.113291 
L 66.082237 49.113291 
L 66.688758 49.740986 
L 68.508324 49.740986 
L 69.721367 50.996376 
L 70.934411 53.507157 
L 71.540932 54.134852 
L 72.753976 56.645633 
L 75.180063 59.156413 
L 75.786585 60.411804 
L 78.212672 62.922584 
L 80.032237 66.688755 
L 80.638758 69.199536 
L 81.24528 68.571841 
L 82.458324 72.338012 
L 83.671367 74.848793 
L 84.277889 74.848793 
L 84.884411 74.221097 
L 85.490932 72.965707 
L 86.097454 72.965707 
L 86.703976 73.593402 
L 87.310498 76.104183 
L 87.917019 81.125744 
L 88.523541 87.402696 
L 91.55615 123.809016 
L 92.162672 129.458272 
L 93.375715 137.618309 
L 94.588758 144.522956 
L 95.19528 147.033737 
L 95.801802 148.289127 
L 102.473541 148.289127 
L 103.080063 147.661432 
L 103.686585 148.289127 
L 104.293106 148.289127 
L 104.899628 145.778347 
L 105.50615 141.38448 
L 106.112672 135.107529 
L 107.325715 118.787454 
L 108.538758 100.584294 
L 109.751802 86.775001 
L 110.964845 76.104183 
L 112.177889 68.571841 
L 112.784411 66.06106 
L 113.390932 64.177975 
L 113.997454 62.922584 
L 114.603976 62.294889 
L 115.210498 62.294889 
L 115.817019 63.55028 
L 116.423541 65.433365 
L 117.030063 66.688755 
L 118.849628 74.221097 
L 120.062672 77.987268 
L 121.275715 80.498049 
L 121.882237 83.00883 
L 122.488758 81.125744 
L 123.09528 80.498049 
L 123.701802 79.242659 
L 124.308324 77.359573 
L 124.914845 74.848793 
L 126.127889 68.571841 
L 126.734411 66.688755 
L 127.340932 65.433365 
L 127.947454 66.06106 
L 128.553976 67.944146 
L 129.767019 72.965707 
L 135.225715 106.233551 
L 135.832237 108.744332 
L 137.04528 112.510503 
L 138.258324 113.765893 
L 138.864845 115.021283 
L 140.077889 115.021283 
L 140.684411 115.648979 
L 141.290932 115.648979 
L 141.897454 116.276674 
L 142.503976 116.276674 
L 143.110498 116.904369 
L 143.717019 116.904369 
L 144.930063 118.159759 
L 145.536585 118.159759 
L 146.143106 118.787454 
L 146.749628 118.787454 
L 147.35615 119.41515 
L 147.962672 119.41515 
L 150.388758 121.92593 
L 150.99528 123.181321 
L 154.634411 126.947492 
L 155.240932 126.947492 
L 155.847454 128.202882 
L 157.667019 130.085967 
L 158.880063 130.085967 
L 159.486585 128.830577 
L 160.093106 126.319796 
L 160.699628 123.181321 
L 163.125715 106.233551 
L 164.338758 99.328904 
L 164.94528 96.818123 
L 165.551802 94.935038 
L 166.764845 93.679648 
L 167.977889 93.679648 
L 168.584411 93.051952 
L 169.190932 93.051952 
L 169.797454 92.424257 
L 170.403976 92.424257 
L 171.010498 93.051952 
L 171.617019 94.307343 
L 172.223541 96.190428 
L 172.830063 98.701209 
L 173.436585 96.818123 
L 174.043106 101.21199 
L 174.649628 104.350465 
L 175.25615 106.861246 
L 178.288758 116.276674 
L 180.108324 123.809016 
L 180.714845 126.947492 
L 181.927889 131.969053 
L 182.534411 133.852138 
L 184.353976 137.618309 
L 184.960498 140.756785 
L 185.567019 138.246005 
L 186.173541 138.8737 
L 186.780063 138.8737 
L 187.386585 137.618309 
L 187.993106 135.735224 
L 188.599628 132.596748 
L 189.812672 123.181321 
L 191.025715 112.510503 
L 193.451802 88.030391 
L 194.664845 76.104183 
L 195.877889 64.177975 
L 197.090932 52.879462 
L 198.303976 44.091729 
L 199.517019 37.814778 
L 200.730063 34.048607 
L 201.336585 32.793216 
L 202.549628 29.027045 
L 204.369193 25.260874 
L 204.975715 24.633179 
L 205.582237 24.633179 
L 206.188758 24.005484 
L 206.79528 24.633179 
L 206.79528 24.633179 
" style="fill:none;stroke:#0c5da5;stroke-linecap:square;stroke-width:0.7;"/>
   </g>
   <g id="line2d_78">
    <path clip-path="url(#p58ea3b82ca)" d="M 39.39528 65.413671 
L 40.001802 64.432897 
L 41.821367 60.754992 
L 42.427889 60.019411 
L 43.034411 59.774217 
L 43.640932 58.057861 
L 44.247454 57.322281 
L 44.853976 56.096312 
L 45.460498 54.379957 
L 46.067019 53.889569 
L 46.673541 53.644376 
L 47.280063 52.908795 
L 47.886585 52.908795 
L 48.493106 53.153988 
L 49.099628 52.908795 
L 49.70615 52.173214 
L 50.312672 50.947245 
L 50.919193 51.192439 
L 51.525715 50.702052 
L 52.132237 49.721277 
L 52.738758 49.23089 
L 53.951802 46.043372 
L 54.558324 45.798179 
L 55.164845 43.836629 
L 55.771367 43.101048 
L 56.377889 43.836629 
L 56.984411 43.836629 
L 57.590932 44.57221 
L 58.197454 45.552985 
L 58.803976 45.798179 
L 59.410498 46.53376 
L 60.623541 46.043372 
L 61.836585 46.043372 
L 62.443106 46.778953 
L 63.049628 47.759728 
L 63.65615 47.514534 
L 64.262672 48.004922 
L 64.869193 48.985696 
L 65.475715 49.476084 
L 66.082237 49.476084 
L 66.688758 49.23089 
L 67.29528 49.966471 
L 67.901802 49.966471 
L 68.508324 49.721277 
L 69.114845 49.721277 
L 69.721367 50.702052 
L 70.327889 51.437633 
L 71.540932 54.379957 
L 72.147454 54.870344 
L 73.360498 57.567474 
L 75.786585 59.529023 
L 76.393106 61.245379 
L 78.819193 63.206928 
L 80.638758 67.37522 
L 81.24528 70.317544 
L 81.851802 69.33677 
L 82.458324 70.807932 
L 83.064845 73.259869 
L 83.671367 74.731031 
L 84.277889 75.711805 
L 84.884411 75.466612 
L 86.097454 71.788707 
L 86.703976 72.0339 
L 87.310498 73.259869 
L 87.917019 77.428161 
L 88.523541 83.803196 
L 89.736585 101.702333 
L 90.949628 121.808213 
L 91.55615 130.635185 
L 92.769193 140.933318 
L 93.375715 143.385255 
L 94.588758 146.572772 
L 95.19528 147.798741 
L 95.801802 148.534322 
L 96.408324 148.043934 
L 97.014845 146.327579 
L 97.621367 145.10161 
L 98.227889 145.10161 
L 98.834411 145.837191 
L 99.440932 147.308353 
L 100.653976 148.289128 
L 101.260498 148.043934 
L 103.080063 148.043934 
L 103.686585 146.817966 
L 104.293106 147.798741 
L 104.899628 147.798741 
L 105.50615 144.611223 
L 106.112672 137.255413 
L 108.538758 100.231171 
L 109.14528 92.13978 
L 109.751802 85.764745 
L 110.964845 75.956998 
L 111.571367 72.0339 
L 112.177889 69.581963 
L 112.784411 66.639639 
L 113.390932 65.168478 
L 113.997454 64.187703 
L 114.603976 63.697316 
L 115.210498 63.452122 
L 115.817019 64.187703 
L 116.423541 65.658865 
L 117.030063 68.110801 
L 117.636585 69.091577 
L 119.45615 76.69258 
L 120.669193 80.125291 
L 121.275715 80.615678 
L 121.882237 81.596452 
L 122.488758 84.293583 
L 123.09528 81.351259 
L 124.914845 75.221417 
L 126.734411 67.130027 
L 127.340932 66.639639 
L 127.947454 66.884834 
L 128.553976 68.355996 
L 129.160498 71.543513 
L 130.373541 75.956998 
L 131.586585 83.558002 
L 135.225715 108.077368 
L 135.832237 110.529304 
L 136.438758 112.000466 
L 137.04528 112.736047 
L 137.651802 113.962016 
L 138.258324 113.226435 
L 138.864845 112.981241 
L 139.471367 113.471628 
L 140.684411 113.471628 
L 141.897454 113.962016 
L 142.503976 115.187984 
L 143.110498 115.187984 
L 143.717019 116.413953 
L 144.323541 116.168759 
L 144.930063 117.149534 
L 145.536585 117.885115 
L 146.143106 118.130308 
L 146.749628 118.620696 
L 147.35615 118.375501 
L 147.962672 119.356277 
L 148.569193 119.111082 
L 149.175715 120.091858 
L 149.782237 120.582245 
L 150.388758 121.563019 
L 150.99528 122.053407 
L 151.601802 123.769762 
L 152.208324 124.014956 
L 152.814845 124.750536 
L 153.421367 124.995731 
L 154.027889 125.486117 
L 154.634411 126.466893 
L 155.240932 126.95728 
L 155.847454 126.95728 
L 156.453976 128.183248 
L 157.060498 128.918829 
L 157.667019 129.899604 
L 158.273541 130.389991 
L 158.880063 129.899604 
L 159.486585 129.65441 
L 160.093106 127.447667 
L 160.699628 124.26015 
L 163.125715 107.341787 
L 163.732237 104.88985 
L 164.94528 99.49559 
L 165.551802 97.534041 
L 166.158324 96.553266 
L 166.764845 96.553266 
L 167.371367 96.062879 
L 167.977889 96.308072 
L 168.584411 95.817685 
L 169.190932 94.83691 
L 169.797454 94.591717 
L 170.403976 93.856136 
L 171.010498 93.856136 
L 171.617019 94.83691 
L 172.830063 98.514815 
L 173.436585 101.211945 
L 174.043106 97.534041 
L 174.649628 102.19272 
L 175.25615 105.380238 
L 175.862672 109.793723 
L 176.469193 110.774499 
L 177.075715 112.000466 
L 177.682237 112.736047 
L 178.288758 114.697597 
L 179.501802 119.846663 
L 180.108324 122.788988 
L 180.714845 124.995731 
L 181.321367 129.409216 
L 181.927889 131.125572 
L 182.534411 134.067896 
L 183.140932 134.803477 
L 183.747454 135.784252 
L 184.353976 136.274639 
L 184.960498 137.500607 
L 185.567019 141.668899 
L 186.173541 138.236188 
L 186.780063 138.726575 
L 187.386585 136.274639 
L 187.993106 136.519832 
L 188.599628 133.822702 
L 189.20615 129.899604 
L 190.419193 117.885115 
L 191.632237 108.322562 
L 196.484411 64.187703 
L 198.303976 48.985696 
L 198.910498 44.57221 
L 200.730063 36.235626 
L 201.336585 34.028883 
L 201.943106 32.312528 
L 203.15615 27.653848 
L 203.762672 26.918267 
L 204.975715 24.956717 
L 205.582237 24.711524 
L 206.188758 25.201912 
L 206.79528 24.711524 
L 206.79528 24.711524 
" style="fill:none;stroke:#00b945;stroke-linecap:square;stroke-width:0.7;"/>
   </g>
   <g id="line2d_79">
    <path clip-path="url(#p58ea3b82ca)" d="M 39.39528 66.149252 
L 40.001802 65.904058 
L 40.608324 64.187703 
L 41.821367 62.226154 
L 42.427889 61.490573 
L 43.034411 61.245379 
L 43.640932 59.038636 
L 44.247454 58.548249 
L 45.460498 55.360731 
L 46.673541 54.870344 
L 47.280063 54.379957 
L 47.886585 54.134763 
L 48.493106 54.62515 
L 49.099628 54.134763 
L 50.312672 52.173214 
L 50.919193 52.173214 
L 51.525715 51.682826 
L 52.132237 50.702052 
L 52.738758 50.702052 
L 53.951802 47.024147 
L 54.558324 47.269341 
L 55.164845 45.307791 
L 55.771367 44.327017 
L 56.377889 44.817404 
L 56.984411 44.817404 
L 57.590932 46.043372 
L 58.197454 46.778953 
L 58.803976 47.024147 
L 59.410498 47.759728 
L 60.017019 46.778953 
L 61.230063 46.778953 
L 61.836585 47.024147 
L 62.443106 48.004922 
L 63.049628 48.495309 
L 63.65615 48.004922 
L 64.262672 49.23089 
L 64.869193 49.966471 
L 65.475715 50.456858 
L 66.082237 50.456858 
L 66.688758 49.966471 
L 67.29528 50.947245 
L 67.901802 50.947245 
L 68.508324 51.437633 
L 69.114845 50.947245 
L 69.721367 51.437633 
L 71.540932 55.605925 
L 72.147454 55.851119 
L 72.753976 58.057861 
L 73.360498 58.793442 
L 73.967019 59.28383 
L 75.180063 59.774217 
L 75.786585 60.754992 
L 76.999628 63.206928 
L 77.60615 63.452122 
L 78.212672 64.187703 
L 78.819193 64.432897 
L 79.425715 65.904058 
L 80.032237 67.865608 
L 80.638758 69.33677 
L 81.24528 72.524288 
L 81.851802 71.053125 
L 82.458324 72.279094 
L 83.064845 74.976224 
L 83.671367 76.447386 
L 84.277889 77.182967 
L 84.884411 77.428161 
L 86.097454 73.014675 
L 86.703976 73.99545 
L 87.310498 75.466612 
L 87.917019 79.38971 
L 88.523541 85.519551 
L 89.130063 93.610942 
L 91.55615 131.370766 
L 92.769193 141.178512 
L 93.375715 144.120836 
L 95.801802 149.76029 
L 96.408324 150.005484 
L 97.014845 147.798741 
L 97.621367 146.327579 
L 98.227889 145.591998 
L 98.834411 145.837191 
L 99.440932 146.572772 
L 101.260498 145.837191 
L 101.867019 145.837191 
L 102.473541 145.346804 
L 103.080063 145.346804 
L 103.686585 143.875642 
L 104.293106 144.611223 
L 104.899628 144.366029 
L 105.50615 141.423706 
L 106.112672 134.803477 
L 106.719193 124.505343 
L 108.538758 100.721558 
L 109.14528 94.101329 
L 110.358324 84.293583 
L 111.571367 75.956998 
L 113.390932 68.110801 
L 114.603976 65.413671 
L 115.210498 64.67809 
L 115.817019 64.67809 
L 117.030063 68.601189 
L 117.636585 69.827157 
L 120.062672 79.634904 
L 120.669193 81.351259 
L 121.882237 82.822421 
L 122.488758 85.764745 
L 123.09528 82.822421 
L 123.701802 80.615678 
L 124.914845 77.428161 
L 126.127889 72.279094 
L 126.734411 69.091577 
L 127.340932 68.846382 
L 127.947454 68.355996 
L 128.553976 70.072351 
L 129.160498 73.014675 
L 130.373541 77.182967 
L 133.40615 96.062879 
L 134.012672 101.702333 
L 134.619193 105.625431 
L 135.832237 111.019692 
L 136.438758 112.981241 
L 137.651802 115.433178 
L 138.258324 114.94279 
L 138.864845 114.697597 
L 139.471367 115.187984 
L 140.077889 115.187984 
L 140.684411 114.697597 
L 141.290932 114.94279 
L 141.897454 114.452403 
L 142.503976 115.433178 
L 143.110498 114.94279 
L 143.717019 116.413953 
L 144.323541 115.923565 
L 144.930063 115.923565 
L 145.536585 116.904339 
L 146.143106 116.904339 
L 146.749628 117.149534 
L 147.35615 116.659146 
L 147.962672 117.885115 
L 148.569193 117.394727 
L 149.175715 118.620696 
L 149.782237 118.865889 
L 150.388758 120.091858 
L 150.99528 120.582245 
L 152.208324 122.788988 
L 152.814845 123.034181 
L 153.421367 123.524569 
L 154.027889 123.769762 
L 154.634411 124.995731 
L 155.240932 125.486117 
L 155.847454 125.486117 
L 156.453976 126.466893 
L 157.060498 126.712086 
L 157.667019 128.428442 
L 158.273541 128.183248 
L 159.486585 127.202474 
L 160.093106 125.240924 
L 160.699628 122.2986 
L 163.125715 105.135044 
L 164.338758 101.211945 
L 165.551802 96.308072 
L 166.764845 94.83691 
L 167.371367 95.082104 
L 167.977889 95.082104 
L 168.584411 94.591717 
L 169.190932 93.365748 
L 169.797454 92.875361 
L 170.403976 91.894587 
L 171.617019 93.365748 
L 172.830063 98.024428 
L 173.436585 100.476365 
L 174.043106 97.534041 
L 174.649628 102.437914 
L 175.25615 105.380238 
L 175.862672 109.54853 
L 176.469193 110.529304 
L 177.075715 112.245661 
L 177.682237 112.981241 
L 178.288758 114.697597 
L 178.89528 117.149534 
L 179.501802 120.582245 
L 180.714845 125.240924 
L 181.321367 129.65441 
L 181.927889 131.370766 
L 182.534411 133.577509 
L 183.140932 134.803477 
L 184.353976 135.784252 
L 184.960498 136.519832 
L 185.567019 140.197737 
L 186.173541 137.255413 
L 186.780063 137.255413 
L 187.386585 134.803477 
L 187.993106 134.558283 
L 189.20615 128.673635 
L 190.419193 115.678372 
L 193.451802 91.649393 
L 194.058324 86.74552 
L 194.664845 82.822421 
L 196.484411 65.904058 
L 197.090932 61.000185 
L 197.697454 54.870344 
L 198.910498 46.288566 
L 199.517019 37.951982 
L 200.730063 34.274077 
L 201.943106 31.086559 
L 202.549628 29.12501 
L 203.15615 28.634623 
L 203.762672 27.653848 
L 204.369193 27.16346 
L 204.975715 25.937493 
L 205.582237 25.447105 
L 206.188758 25.937493 
L 206.79528 25.447105 
L 206.79528 25.447105 
" style="fill:none;stroke:#ff9500;stroke-linecap:square;stroke-width:0.7;"/>
   </g>
   <g id="patch_3">
    <path d="M 31.02528 156.305484 
L 31.02528 17.705484 
" style="fill:none;stroke:#000000;stroke-linecap:square;stroke-linejoin:miter;stroke-width:0.5;"/>
   </g>
   <g id="patch_4">
    <path d="M 215.16528 156.305484 
L 215.16528 17.705484 
" style="fill:none;stroke:#000000;stroke-linecap:square;stroke-linejoin:miter;stroke-width:0.5;"/>
   </g>
   <g id="patch_5">
    <path d="M 31.02528 156.305484 
L 215.16528 156.305484 
" style="fill:none;stroke:#000000;stroke-linecap:square;stroke-linejoin:miter;stroke-width:0.5;"/>
   </g>
   <g id="patch_6">
    <path d="M 31.02528 17.705484 
L 215.16528 17.705484 
" style="fill:none;stroke:#000000;stroke-linecap:square;stroke-linejoin:miter;stroke-width:0.5;"/>
   </g>
   <g id="text_10">
    <!-- Subject 2 - Trial 2 -->
    <g transform="translate(79.806054 11.705484)scale(0.12 -0.12)">
     <defs>
      <path d="M 44.703125 67.390625 
L 42.59375 67.390625 
C 42.203125 65.09375 41.09375 63.984375 39.40625 63.984375 
C 38.40625 63.984375 36.703125 64.390625 35 65.1875 
C 31.296875 67.1875 27.59375 68 24.40625 68 
C 20.09375 68 15.703125 66.296875 12.40625 63.390625 
C 8.90625 60.296875 7.09375 56.09375 7.09375 50.890625 
C 7.09375 42.890625 11.5 37.296875 22.703125 31.390625 
C 29.90625 27.59375 35.09375 23.5 37.59375 19.6875 
C 38.5 18.390625 39 16.296875 39 13.890625 
C 39 7.1875 34 2.59375 26.703125 2.59375 
C 17.796875 2.59375 11.5 8.09375 6.5 20.296875 
L 4.203125 20.296875 
L 7.203125 -0.90625 
L 9.40625 -0.90625 
C 9.5 0.59375 10.703125 2 12.203125 2 
C 13.296875 2 15 1.59375 16.90625 0.890625 
C 20.703125 -0.203125 24.703125 -1 28.703125 -1 
C 40.203125 -1 49.09375 6.890625 49.09375 17.1875 
C 49.09375 25.390625 43.59375 31.890625 30.40625 39 
C 19.90625 44.796875 15.703125 49.1875 15.703125 54.59375 
C 15.703125 60.09375 19.90625 63.890625 26.09375 63.890625 
C 30.59375 63.890625 34.796875 62 38.296875 58.390625 
C 41.40625 55.203125 42.796875 52.59375 44.40625 46.6875 
L 46.90625 46.6875 
z
" id="Nimbus_Roman_No9_L_Regular-83"/>
      <path d="M 15.296875 68.09375 
L 14.796875 68.296875 
C 10.59375 66.796875 7.90625 66 3.203125 64.6875 
L 0.296875 63.890625 
L 0.296875 62.296875 
C 0.90625 62.390625 1.296875 62.390625 2 62.390625 
C 6 62.390625 6.90625 61.5 6.90625 57.296875 
L 6.90625 5.390625 
C 6.90625 2.296875 15.40625 -1 23.40625 -1 
C 36.59375 -1 46.796875 9.984375 46.796875 24.296875 
C 46.796875 36.59375 39.203125 46 29.203125 46 
C 23.09375 46 17.296875 42.390625 15.296875 37.484375 
z
M 15.296875 32.1875 
C 15.296875 36.09375 20 39.6875 25.203125 39.6875 
C 33 39.6875 38 31.890625 38 19.6875 
C 38 8.59375 33.203125 2.1875 25 2.1875 
C 19.796875 2.1875 15.296875 4.484375 15.296875 6.984375 
z
" id="Nimbus_Roman_No9_L_Regular-98"/>
      <path d="M 19.296875 45.6875 
L 18.796875 46 
C 12.90625 43.6875 9.09375 42.390625 3.203125 40.578125 
L 3.203125 38.984375 
L 3.703125 39.078125 
C 5.203125 39.28125 6.703125 39.375 7.703125 39.375 
C 10 39.375 10.90625 37.671875 10.90625 33.359375 
L 10.90625 -4.65625 
C 10.90625 -12.28125 10.59375 -14.796875 9.5 -16.796875 
C 8.90625 -17.8125 7.5 -18.609375 6.09375 -18.609375 
C 4.59375 -18.609375 3.59375 -17.90625 1.90625 -15.796875 
C 0.09375 -13.484375 -1.296875 -12.59375 -2.90625 -12.59375 
C -5.203125 -12.59375 -7 -14.296875 -7 -16.5 
C -7 -19.703125 -3 -22 2.40625 -22 
C 13.40625 -22 19.296875 -14.390625 19.296875 -0.140625 
z
M 14.203125 68 
C 11.5 68 9.203125 65.6875 9.203125 62.890625 
C 9.203125 60.09375 11.40625 57.796875 14.203125 57.796875 
C 17.09375 57.796875 19.40625 59.984375 19.40625 62.890625 
C 19.40625 65.6875 17.09375 68 14.203125 68 
z
" id="Nimbus_Roman_No9_L_Regular-106"/>
      <path d="M 3.90625 26 
L 3.90625 19.6875 
L 28.5 19.6875 
L 28.5 26 
z
" id="Nimbus_Roman_No9_L_Regular-45"/>
      <path d="M 0.703125 39 
C 2.09375 39.296875 3 39.390625 4.203125 39.390625 
C 6.703125 39.390625 7.59375 37.796875 7.59375 33.390625 
L 7.59375 8.390625 
C 7.59375 3.390625 6.90625 2.6875 0.5 1.5 
L 0.5 0 
L 24.5 0 
L 24.5 1.5 
C 17.703125 1.796875 16 3.296875 16 9 
L 16 31.5 
C 16 34.6875 20.296875 39.6875 23 39.6875 
C 23.59375 39.6875 24.5 39.1875 25.59375 38.1875 
C 27.203125 36.796875 28.296875 36.1875 29.59375 36.1875 
C 32 36.1875 33.5 37.890625 33.5 40.6875 
C 33.5 43.984375 31.40625 46 28 46 
C 23.796875 46 20.90625 43.6875 16 36.59375 
L 16 45.796875 
L 15.5 46 
C 10.203125 43.796875 6.59375 42.5 0.703125 40.59375 
z
" id="Nimbus_Roman_No9_L_Regular-114"/>
      <path d="M 44.203125 6.59375 
C 42.5 5.1875 41.296875 4.6875 39.796875 4.6875 
C 37.5 4.6875 36.796875 6.09375 36.796875 10.5 
L 36.796875 30 
C 36.796875 35.1875 36.296875 38.09375 34.796875 40.5 
C 32.59375 44.09375 28.296875 46 22.40625 46 
C 13 46 5.59375 41.09375 5.59375 34.796875 
C 5.59375 32.5 7.59375 30.5 9.90625 30.5 
C 12.296875 30.5 14.40625 32.5 14.40625 34.6875 
C 14.40625 35.09375 14.296875 35.59375 14.203125 36.296875 
C 14 37.1875 13.90625 38 13.90625 38.6875 
C 13.90625 41.390625 17.09375 43.59375 21.09375 43.59375 
C 26 43.59375 28.703125 40.6875 28.703125 35.296875 
L 28.703125 29.1875 
C 13.296875 23 11.59375 22.1875 7.296875 18.390625 
C 5.09375 16.390625 3.703125 13 3.703125 9.6875 
C 3.703125 3.390625 8.09375 -1 14.203125 -1 
C 18.59375 -1 22.703125 1.09375 28.796875 6.296875 
C 29.296875 1.09375 31.09375 -1 35.203125 -1 
C 38.59375 -1 40.703125 0.1875 44.203125 4 
z
M 28.703125 12.296875 
C 28.703125 9.1875 28.203125 8.296875 26.09375 7.09375 
C 23.703125 5.6875 20.90625 4.796875 18.796875 4.796875 
C 15.296875 4.796875 12.5 8.1875 12.5 12.5 
L 12.5 12.890625 
C 12.5 18.796875 16.59375 22.390625 28.703125 26.796875 
z
" id="Nimbus_Roman_No9_L_Regular-97"/>
     </defs>
     <use transform="scale(0.996264)" xlink:href="#Nimbus_Roman_No9_L_Regular-83"/>
     <use transform="translate(55.391677 0)scale(0.996264)" xlink:href="#Nimbus_Roman_No9_L_Regular-117"/>
     <use transform="translate(105.204877 0)scale(0.996264)" xlink:href="#Nimbus_Roman_No9_L_Regular-98"/>
     <use transform="translate(155.018078 0)scale(0.996264)" xlink:href="#Nimbus_Roman_No9_L_Regular-106"/>
     <use transform="translate(182.713248 0)scale(0.996264)" xlink:href="#Nimbus_Roman_No9_L_Regular-101"/>
     <use transform="translate(226.946816 0)scale(0.996264)" xlink:href="#Nimbus_Roman_No9_L_Regular-99"/>
     <use transform="translate(271.180385 0)scale(0.996264)" xlink:href="#Nimbus_Roman_No9_L_Regular-116"/>
     <use transform="translate(323.782155 0)scale(0.996264)" xlink:href="#Nimbus_Roman_No9_L_Regular-50"/>
     <use transform="translate(398.501956 0)scale(0.996264)" xlink:href="#Nimbus_Roman_No9_L_Regular-45"/>
     <use transform="translate(456.583786 0)scale(0.996264)" xlink:href="#Nimbus_Roman_No9_L_Regular-84"/>
     <use transform="translate(513.96869 0)scale(0.996264)" xlink:href="#Nimbus_Roman_No9_L_Regular-114"/>
     <use transform="translate(547.14392 0)scale(0.996264)" xlink:href="#Nimbus_Roman_No9_L_Regular-105"/>
     <use transform="translate(574.839089 0)scale(0.996264)" xlink:href="#Nimbus_Roman_No9_L_Regular-97"/>
     <use transform="translate(619.072658 0)scale(0.996264)" xlink:href="#Nimbus_Roman_No9_L_Regular-108"/>
     <use transform="translate(671.674428 0)scale(0.996264)" xlink:href="#Nimbus_Roman_No9_L_Regular-50"/>
    </g>
   </g>
   <g id="legend_1">
    <g id="line2d_80">
     <path d="M 78.877037 28.616482 
L 95.537037 28.616482 
" style="fill:none;stroke:#0c5da5;stroke-linecap:square;stroke-width:0.7;"/>
    </g>
    <g id="line2d_81"/>
    <g id="text_11">
     <!-- Ground Truth -->
     <g transform="translate(102.201037 31.531982)scale(0.0833 -0.0833)">
      <defs>
       <path d="M 1.59375 39.796875 
C 2.203125 40.09375 3.203125 40.1875 4.296875 40.1875 
C 7.09375 40.1875 8 38.6875 8 33.796875 
L 8 9 
C 8 3.296875 6.90625 1.890625 1.796875 1.5 
L 1.796875 0 
L 23 0 
L 23 1.5 
C 17.90625 1.890625 16.40625 3.09375 16.40625 6.6875 
L 16.40625 34.796875 
C 21.203125 39.296875 23.40625 40.484375 26.703125 40.484375 
C 31.59375 40.484375 34 37.390625 34 30.796875 
L 34 9.890625 
C 34 3.59375 32.703125 1.890625 27.703125 1.5 
L 27.703125 0 
L 48.5 0 
L 48.5 1.5 
C 43.59375 2 42.40625 3.1875 42.40625 8.09375 
L 42.40625 31 
C 42.40625 40.390625 38 46 30.59375 46 
C 26 46 22.90625 44.296875 16.09375 37.890625 
L 16.09375 45.796875 
L 15.40625 46 
C 10.5 44.1875 7.09375 43.09375 1.59375 41.484375 
z
" id="Nimbus_Roman_No9_L_Regular-110"/>
       <path d="M 34.40625 -1 
L 49.09375 4.1875 
L 49.09375 5.796875 
C 47.296875 5.6875 47.09375 5.6875 46.796875 5.6875 
C 43.203125 5.6875 42.40625 6.796875 42.40625 11.390625 
L 42.40625 68.09375 
L 41.90625 68.296875 
C 37.09375 66.59375 33.59375 65.59375 27.203125 63.890625 
L 27.203125 62.296875 
C 28 62.390625 28.59375 62.390625 29.40625 62.390625 
C 33.09375 62.390625 34 61.390625 34 57.296875 
L 34 41.6875 
C 30.203125 44.890625 27.5 46 23.5 46 
C 12 46 2.703125 34.6875 2.703125 20.5 
C 2.703125 7.6875 10.203125 -1 21.203125 -1 
C 26.796875 -1 30.59375 1 34 5.6875 
L 34 -0.703125 
z
M 34 10.1875 
C 34 9.5 33.296875 8.296875 32.296875 7.1875 
C 30.5 5.1875 28 4.1875 25.09375 4.1875 
C 16.796875 4.1875 11.296875 12.1875 11.296875 24.5 
C 11.296875 35.796875 16.203125 43.1875 23.796875 43.1875 
C 29.09375 43.1875 34 38.5 34 33.1875 
z
" id="Nimbus_Roman_No9_L_Regular-100"/>
       <path d="M 15.703125 34.296875 
C 19.90625 38.890625 22.90625 40.59375 26.796875 40.59375 
C 31.796875 40.59375 34.296875 37 34.296875 30 
L 34.296875 10.1875 
C 34.296875 3.390625 33.296875 2.09375 27.5 1.5 
L 27.5 0 
L 48.703125 0 
L 48.703125 1.5 
C 43.296875 2.5 42.703125 3.296875 42.703125 10.1875 
L 42.703125 30.09375 
C 42.703125 40.59375 38.5 46 30.40625 46 
C 24.5 46 20.296875 43.59375 15.703125 37.59375 
L 15.703125 68 
L 15.203125 68.296875 
C 11.796875 67.09375 9.296875 66.296875 3.703125 64.6875 
L 1 63.890625 
L 1 62.296875 
C 1.40625 62.390625 1.703125 62.390625 2.203125 62.390625 
C 6.5 62.390625 7.296875 61.59375 7.296875 57.296875 
L 7.296875 10.1875 
C 7.296875 3.1875 6.703125 2.296875 0.90625 1.5 
L 0.90625 0 
L 22.5 0 
L 22.5 1.5 
C 16.703125 2.09375 15.703125 3.296875 15.703125 10.1875 
z
" id="Nimbus_Roman_No9_L_Regular-104"/>
      </defs>
      <use transform="scale(0.996264)" xlink:href="#Nimbus_Roman_No9_L_Regular-71"/>
      <use transform="translate(71.929985 0)scale(0.996264)" xlink:href="#Nimbus_Roman_No9_L_Regular-114"/>
      <use transform="translate(105.105215 0)scale(0.996264)" xlink:href="#Nimbus_Roman_No9_L_Regular-111"/>
      <use transform="translate(154.918415 0)scale(0.996264)" xlink:href="#Nimbus_Roman_No9_L_Regular-117"/>
      <use transform="translate(204.731616 0)scale(0.996264)" xlink:href="#Nimbus_Roman_No9_L_Regular-110"/>
      <use transform="translate(254.544816 0)scale(0.996264)" xlink:href="#Nimbus_Roman_No9_L_Regular-100"/>
      <use transform="translate(329.264617 0)scale(0.996264)" xlink:href="#Nimbus_Roman_No9_L_Regular-84"/>
      <use transform="translate(386.649521 0)scale(0.996264)" xlink:href="#Nimbus_Roman_No9_L_Regular-114"/>
      <use transform="translate(419.824751 0)scale(0.996264)" xlink:href="#Nimbus_Roman_No9_L_Regular-117"/>
      <use transform="translate(469.637951 0)scale(0.996264)" xlink:href="#Nimbus_Roman_No9_L_Regular-116"/>
      <use transform="translate(497.333121 0)scale(0.996264)" xlink:href="#Nimbus_Roman_No9_L_Regular-104"/>
     </g>
    </g>
    <g id="line2d_82">
     <path d="M 78.877037 40.907619 
L 95.537037 40.907619 
" style="fill:none;stroke:#00b945;stroke-linecap:square;stroke-width:0.7;"/>
    </g>
    <g id="line2d_83"/>
    <g id="text_12">
     <!-- Software (float) -->
     <g transform="translate(102.201037 43.823119)scale(0.0833 -0.0833)">
      <defs>
       <path d="M 30.90625 45 
L 18.59375 45 
L 18.59375 56.421875 
C 18.59375 62.140625 20.5 65.1875 24.296875 65.1875 
C 26.40625 65.1875 27.796875 64.203125 29.59375 61.34375 
C 31.203125 58.78125 32.40625 57.796875 34.09375 57.796875 
C 36.40625 57.796875 38.296875 59.578125 38.296875 61.84375 
C 38.296875 65.390625 33.90625 68 27.90625 68 
C 21.703125 68 16.40625 65.296875 13.796875 60.765625 
C 11.203125 56.421875 10.40625 52.875 10.296875 45 
L 2.09375 45 
L 2.09375 41.796875 
L 10.296875 41.796875 
L 10.296875 10.390625 
C 10.296875 3.09375 9.203125 1.890625 2 1.5 
L 2 0 
L 28 0 
L 28 1.5 
C 19.796875 1.796875 18.703125 2.890625 18.703125 10.390625 
L 18.703125 41.796875 
L 30.90625 41.796875 
z
" id="Nimbus_Roman_No9_L_Regular-102"/>
       <path d="M 57.09375 45 
L 57.09375 43.484375 
C 60.5 42.796875 61.5 42.109375 61.5 40.421875 
C 61.5 38.9375 60.90625 36.5625 59.796875 33.875 
L 50.796875 11.890625 
L 42.40625 34.078125 
C 40.703125 38.640625 40.703125 38.640625 40.703125 39.921875 
C 40.703125 42.109375 41.796875 42.796875 46.5 43.484375 
L 46.5 45 
L 26.203125 45 
L 26.203125 43.484375 
C 29.90625 43.09375 31.09375 42 33.09375 36.65625 
C 33.796875 34.765625 34.5 32.890625 35.09375 31.109375 
L 26 11.390625 
L 16.09375 37.25 
C 15.703125 38.234375 15.5 39.234375 15.5 40.21875 
C 15.5 42.296875 16.703125 43.09375 20.09375 43.484375 
L 20.09375 45 
L 2.09375 45 
L 2.09375 43.484375 
C 4.40625 43.296875 5.203125 42.296875 7.40625 37.25 
L 20.90625 3.375 
C 22.09375 0.390625 22.90625 -1 23.5 -1 
C 24 -1 24.796875 0.296875 26 2.875 
L 37.203125 26.65625 
L 46.296875 3.265625 
C 47.703125 -0.40625 48.09375 -1 48.703125 -1 
C 49.40625 -1 49.90625 -0.109375 51.5 3.859375 
L 65.296875 38.140625 
C 67.09375 42.296875 67.40625 42.796875 69.40625 43.484375 
L 69.40625 45 
z
" id="Nimbus_Roman_No9_L_Regular-119"/>
       <path d="M 3.203125 41.796875 
L 10.09375 41.796875 
L 10.09375 10.5 
C 10.09375 6 9.5 3.5 8.09375 2.59375 
C 7.09375 1.890625 6.09375 1.6875 3.203125 1.5 
L 3.203125 0 
L 25.59375 0 
L 25.59375 1.5 
C 19.90625 2.09375 18.5 3.296875 18.5 7.890625 
L 18.5 41.796875 
L 37.296875 41.796875 
L 37.296875 8.390625 
C 37.296875 3.5 35.796875 1.890625 30.59375 1.5 
L 30.59375 0 
L 52.09375 0 
L 52.09375 1.5 
C 46.703125 1.890625 45.703125 2.890625 45.703125 8.09375 
L 45.703125 67.6875 
L 45.203125 67.890625 
C 44.40625 67.796875 43.296875 67.390625 42.09375 66.796875 
C 40.203125 65.890625 38.796875 65.390625 37.90625 65.390625 
C 37.40625 65.390625 36.40625 65.6875 34.90625 66.1875 
C 32.09375 67.390625 29.203125 68 26.796875 68 
C 22.09375 68 17.5 65.59375 14.703125 61.75 
C 11.703125 57.5 10.703125 53.65625 10.296875 45 
L 3.203125 45 
z
M 37.296875 45 
L 18.5 45 
L 18.5 50.109375 
C 18.5 60.359375 20.59375 65.296875 25 65.296875 
C 27.203125 65.296875 28.40625 64.5 30.203125 61.84375 
C 32.09375 58.890625 33.40625 58 35.703125 58 
C 36.40625 58 36.796875 58.1875 37.296875 58.6875 
z
" id="Nimbus_Roman_No9_L_Regular-3"/>
      </defs>
      <use transform="scale(0.996264)" xlink:href="#Nimbus_Roman_No9_L_Regular-83"/>
      <use transform="translate(55.391677 0)scale(0.996264)" xlink:href="#Nimbus_Roman_No9_L_Regular-111"/>
      <use transform="translate(105.204877 0)scale(0.996264)" xlink:href="#Nimbus_Roman_No9_L_Regular-102"/>
      <use transform="translate(138.380107 0)scale(0.996264)" xlink:href="#Nimbus_Roman_No9_L_Regular-116"/>
      <use transform="translate(166.075277 0)scale(0.996264)" xlink:href="#Nimbus_Roman_No9_L_Regular-119"/>
      <use transform="translate(237.009165 0)scale(0.996264)" xlink:href="#Nimbus_Roman_No9_L_Regular-97"/>
      <use transform="translate(281.242734 0)scale(0.996264)" xlink:href="#Nimbus_Roman_No9_L_Regular-114"/>
      <use transform="translate(314.417963 0)scale(0.996264)" xlink:href="#Nimbus_Roman_No9_L_Regular-101"/>
      <use transform="translate(383.558132 0)scale(0.996264)" xlink:href="#Nimbus_Roman_No9_L_Regular-40"/>
      <use transform="translate(416.733362 0)scale(0.996264)" xlink:href="#Nimbus_Roman_No9_L_Regular-3"/>
      <use transform="translate(472.125039 0)scale(0.996264)" xlink:href="#Nimbus_Roman_No9_L_Regular-111"/>
      <use transform="translate(521.938239 0)scale(0.996264)" xlink:href="#Nimbus_Roman_No9_L_Regular-97"/>
      <use transform="translate(566.171808 0)scale(0.996264)" xlink:href="#Nimbus_Roman_No9_L_Regular-116"/>
      <use transform="translate(593.866978 0)scale(0.996264)" xlink:href="#Nimbus_Roman_No9_L_Regular-41"/>
     </g>
    </g>
    <g id="line2d_84">
     <path d="M 78.877037 53.198755 
L 95.537037 53.198755 
" style="fill:none;stroke:#ff9500;stroke-linecap:square;stroke-width:0.7;"/>
    </g>
    <g id="line2d_85"/>
    <g id="text_13">
     <!-- FPGA (fixed-point) -->
     <g transform="translate(102.201037 56.114255)scale(0.0833 -0.0833)">
      <defs>
       <path d="M 47.90625 23.296875 
L 47.90625 46.34375 
L 45.59375 46.34375 
C 44.40625 38.46875 42.59375 37 34.59375 37 
L 20.09375 37 
L 20.09375 58.84375 
C 20.09375 61.59375 20.59375 62.1875 23.296875 62.1875 
L 36.90625 62.1875 
C 48.203125 62.1875 50.40625 60.71875 52.09375 51.859375 
L 54.59375 51.859375 
L 54.296875 66 
L 1.203125 66 
L 1.203125 64.09375 
C 8.59375 63.5 9.90625 62.125 9.90625 55.21875 
L 9.90625 12.0625 
C 9.90625 3.703125 8.796875 2.390625 1.203125 1.890625 
L 1.203125 0 
L 29.203125 0 
L 29.203125 1.890625 
C 21.5 2.296875 20.09375 3.703125 20.09375 10.953125 
L 20.09375 32.890625 
L 34.59375 32.890625 
C 42.703125 32.890625 44.40625 31.375 45.59375 23.234375 
z
" id="Nimbus_Roman_No9_L_Regular-70"/>
       <path d="M 20.203125 29.296875 
C 22.796875 29.09375 24.5 28.984375 27.09375 28.984375 
C 34.90625 28.984375 40.296875 29.984375 44.59375 32.390625 
C 50.59375 35.5625 54.203125 41.578125 54.203125 48.078125 
C 54.203125 52.234375 52.796875 55.984375 50.09375 58.84375 
C 46.09375 63.1875 37.40625 66 28 66 
L 1.59375 66 
L 1.59375 64.09375 
C 9 63.296875 10 62.296875 10 55.125 
L 10 11.953125 
C 10 3.59375 9.203125 2.59375 1.59375 1.890625 
L 1.59375 0 
L 29.59375 0 
L 29.59375 1.890625 
C 21.703125 2.1875 20.203125 3.59375 20.203125 10.859375 
z
M 20.203125 58.9375 
C 20.203125 61.59375 20.90625 62.296875 23.59375 62.296875 
C 37.09375 62.296875 43.296875 57.65625 43.296875 47.5 
C 43.296875 37.921875 37.40625 33 25.90625 33 
C 23.90625 33 22.5 33.09375 20.203125 33.28125 
z
" id="Nimbus_Roman_No9_L_Regular-80"/>
       <path d="M 70.59375 1.890625 
C 66.09375 2.203125 65.09375 3.203125 61.59375 10.71875 
L 36.703125 67 
L 34.703125 67 
L 13.90625 18.546875 
C 7.5 3.71875 6.296875 2.09375 1.5 1.890625 
L 1.5 0 
L 21.296875 0 
L 21.296875 1.890625 
C 16.5 1.890625 14.5 3.203125 14.5 6.046875 
C 14.5 7.265625 14.796875 8.6875 15.296875 10.015625 
L 19.90625 21.890625 
L 46.09375 21.890625 
L 50.203125 12.140625 
C 51.40625 9.40625 52.09375 6.765625 52.09375 5.34375 
C 52.09375 2.796875 50.40625 2 45.09375 1.890625 
L 45.09375 0 
L 70.59375 0 
z
M 21.59375 26 
L 33.09375 53 
L 44.703125 26 
z
" id="Nimbus_Roman_No9_L_Regular-65"/>
       <path d="M 3.09375 41.6875 
L 9.90625 41.6875 
L 9.90625 9.390625 
C 9.90625 3 8.796875 1.6875 3.203125 1.5 
L 3.203125 0 
L 25.203125 0 
L 25.203125 1.5 
C 19.59375 1.890625 18.296875 3.296875 18.296875 8.796875 
L 18.296875 41.6875 
L 26.90625 41.6875 
C 36.5 41.6875 37 41.390625 37 36.09375 
L 37 9.6875 
C 37 2.890625 36.296875 2 30.09375 1.5 
L 30.09375 0 
L 52.09375 0 
L 52.09375 1.5 
C 46.5 2 45.40625 3.296875 45.40625 9.6875 
L 45.40625 35.890625 
C 45.40625 38.09375 45.40625 40.390625 45.59375 45.6875 
L 45.203125 46 
C 40.796875 45.28125 37.90625 45 33.90625 45 
L 18.203125 45 
L 18.203125 49.234375 
C 18.203125 53.5625 18.5 56.625 19 58.296875 
C 20.40625 62.53125 24.296875 65.484375 28.796875 65.484375 
C 31.59375 65.484375 33.5 64.203125 35.90625 60.859375 
C 37.796875 58.203125 39.09375 57.21875 40.796875 57.21875 
C 42.90625 57.21875 44.40625 58.890625 44.40625 61.0625 
C 44.40625 65.203125 39.40625 68 31.703125 68 
C 24.09375 68 18.296875 65.390625 14.703125 60.5625 
C 11.703125 56.515625 10.59375 52.875 10 45 
L 3.09375 45 
z
" id="Nimbus_Roman_No9_L_Regular-2"/>
       <path d="M 27.796875 0 
L 47.90625 0 
L 47.90625 1.5 
C 44.796875 1.5 42.796875 3.09375 39.703125 7.5 
L 26.90625 27.09375 
L 35.203125 39.09375 
C 37.09375 41.796875 40.09375 43.390625 43.296875 43.484375 
L 43.296875 45 
L 27.5 45 
L 27.5 43.484375 
C 30.5 43.296875 31.5 42.6875 31.5 41.296875 
C 31.5 40.09375 30.296875 37.890625 27.796875 34.796875 
C 27.296875 34.1875 26.09375 32.390625 24.796875 30.390625 
L 23.40625 32.390625 
C 20.59375 36.59375 18.796875 40 18.796875 41.296875 
C 18.796875 42.6875 20.09375 43.390625 23.09375 43.484375 
L 23.09375 45 
L 2.40625 45 
L 2.40625 43.484375 
L 3.296875 43.484375 
C 6.296875 43.484375 7.90625 42.1875 11 37.5 
L 20.40625 23.09375 
L 9 6.59375 
C 6 2.5 5 1.796875 1.703125 1.5 
L 1.703125 0 
L 16.203125 0 
L 16.203125 1.5 
C 13.40625 1.5 12.203125 2 12.203125 3.296875 
C 12.203125 3.890625 12.90625 5.390625 14.203125 7.390625 
L 22.09375 19.6875 
L 31.203125 5.6875 
C 31.59375 5.09375 31.796875 4.5 31.796875 3.890625 
C 31.796875 2.09375 31.09375 1.6875 27.796875 1.5 
z
" id="Nimbus_Roman_No9_L_Regular-120"/>
      </defs>
      <use transform="scale(0.996264)" xlink:href="#Nimbus_Roman_No9_L_Regular-70"/>
      <use transform="translate(55.391677 0)scale(0.996264)" xlink:href="#Nimbus_Roman_No9_L_Regular-80"/>
      <use transform="translate(110.783354 0)scale(0.996264)" xlink:href="#Nimbus_Roman_No9_L_Regular-71"/>
      <use transform="translate(182.713339 0)scale(0.996264)" xlink:href="#Nimbus_Roman_No9_L_Regular-65"/>
      <use transform="translate(279.549924 0)scale(0.996264)" xlink:href="#Nimbus_Roman_No9_L_Regular-40"/>
      <use transform="translate(312.725154 0)scale(0.996264)" xlink:href="#Nimbus_Roman_No9_L_Regular-2"/>
      <use transform="translate(368.116831 0)scale(0.996264)" xlink:href="#Nimbus_Roman_No9_L_Regular-120"/>
      <use transform="translate(416.436638 0)scale(0.996264)" xlink:href="#Nimbus_Roman_No9_L_Regular-101"/>
      <use transform="translate(460.670207 0)scale(0.996264)" xlink:href="#Nimbus_Roman_No9_L_Regular-100"/>
      <use transform="translate(510.483408 0)scale(0.996264)" xlink:href="#Nimbus_Roman_No9_L_Regular-45"/>
      <use transform="translate(543.658637 0)scale(0.996264)" xlink:href="#Nimbus_Roman_No9_L_Regular-112"/>
      <use transform="translate(593.471838 0)scale(0.996264)" xlink:href="#Nimbus_Roman_No9_L_Regular-111"/>
      <use transform="translate(643.285038 0)scale(0.996264)" xlink:href="#Nimbus_Roman_No9_L_Regular-105"/>
      <use transform="translate(670.980208 0)scale(0.996264)" xlink:href="#Nimbus_Roman_No9_L_Regular-110"/>
      <use transform="translate(720.793408 0)scale(0.996264)" xlink:href="#Nimbus_Roman_No9_L_Regular-116"/>
      <use transform="translate(748.488578 0)scale(0.996264)" xlink:href="#Nimbus_Roman_No9_L_Regular-41"/>
     </g>
    </g>
   </g>
  </g>
 </g>
 <defs>
  <clipPath id="p58ea3b82ca">
   <rect height="138.6" width="184.14" x="31.02528" y="17.705484"/>
  </clipPath>
 </defs>
</svg>
